<?xml version="1.0" encoding="UTF-8"?>
<svg id="Layer_1" xmlns="http://www.w3.org/2000/svg" xmlns:xlink="http://www.w3.org/1999/xlink" version="1.1" viewBox="0 0 509.05 140.53">
  <defs>
    <style>
      .st0 {
        fill: #015607;
      }

      .st1 {
        fill: blue;
        fill-opacity: .13;
      }

      .st1, .st2, .st3, .st4, .st5 {
        stroke: #000;
      }

      .st6 {
        fill: url(#linear-gradient1);
      }

      .st7 {
        fill: #bfdfff;
      }

      .st8 {
        stroke: #903;
        stroke-miterlimit: 10;
      }

      .st8, .st2, .st3, .st9, .st5 {
        fill: none;
      }

      .st10, .st11, .st12, .st13, .st14 {
        font-family: MyriadPro-Regular, 'Myriad Pro';
      }

      .st10, .st14 {
        font-size: 10.51px;
      }

      .st11 {
        font-size: 10px;
      }

      .st12 {
        font-size: 12px;
      }

      .st13 {
        font-size: 11px;
      }

      .st15 {
        fill: url(#linear-gradient);
      }

      .st2 {
        stroke-width: .5px;
      }

      .st3 {
        stroke-width: .75px;
      }

      .st16 {
        fill: #903;
      }

      .st17 {
        fill: #fff;
      }

      .st14 {
        fill: #006102;
      }

      .st9 {
        stroke: #008837;
        stroke-dasharray: 12;
      }

      .st4 {
        fill: #ffbf7f;
      }
    </style>
    <linearGradient id="linear-gradient" x1="400.86" y1="95.66" x2="535.77" y2="95.66" gradientTransform="translate(-82.35 1.65) rotate(-.11) scale(1.1 1)" gradientUnits="userSpaceOnUse">
      <stop offset="0" stop-color="#fff"/>
      <stop offset="1" stop-color="#000"/>
    </linearGradient>
    <linearGradient id="linear-gradient1" x1="600.23" y1="183.93" x2="735.15" y2="183.93" gradientTransform="translate(271.6 682.32) rotate(-90.11) scale(.91 1)" xlink:href="#linear-gradient"/>
  </defs>
  <line x1="277.34" y1="89.68" x2="277.34" y2="127.99"/>
  <path d="M278.11,129.76c.38-1.24.72-2.05,1.12-3.04h-3.78c.17.36.74,1.8,1.12,3.04.4,1.33.68,2.53.77,3.31.1-.78.37-1.98.77-3.31"/>
  <line class="st3" x1="277.34" y1="89.68" x2="277.34" y2="127.99"/>
  <path d="M277.92,129.32c.28-.93.54-1.53.84-2.28h-2.84c.13.27.56,1.35.84,2.28.3,1,.51,1.9.58,2.48.07-.59.28-1.49.58-2.48"/>
  <rect class="st7" x="84.25" y="31.7" width="178.5" height="102.5"/>
  <rect class="st5" x="84.25" y="31.7" width="178.5" height="102.5"/>
  <g>
    <path class="st5" d="M50.92,32.82c13.5,9,18,9,27,4.5,6.76-3.38,13.51,3.39,18.37,8.88"/>
    <polygon points="93.84 46.53 100.42 50.82 96.87 43.81 93.84 46.53"/>
  </g>
  <polyline class="st17" points="75.67 123.01 81.27 122.61 76.22 120.16 75.67 123.01"/>
  <g>
    <path class="st5" d="M75.27,104.86c-6.81-2.31-13.63-6.31-18.46-11.74-5.46-6.14-7.59-14.15-7.59-14.15"/>
    <polygon points="74.49 102.49 81.27 106.46 73.41 106.42 74.49 102.49"/>
  </g>
  <line x1="70.09" y1="88.15" x2="287.26" y2="88.7"/>
  <path d="M289.62,87.68c-1.65-.5-2.73-.97-4.05-1.5v5.04c.46-.22,2.39-.99,4.04-1.48,1.77-.53,3.38-.89,4.42-1.02-1.04-.13-2.64-.5-4.41-1.04"/>
  <path d="M289.62,87.68c-1.65-.5-2.73-.97-4.05-1.5v5.04c.46-.22,2.39-.99,4.04-1.48,1.77-.53,3.38-.89,4.42-1.02-1.04-.13-2.64-.5-4.41-1.04"/>
  <path d="M161.73,9c-.5,1.65-.96,2.73-1.49,4.05h5.04c-.22-.48-.99-2.4-1.49-4.05-.53-1.77-.9-3.37-1.03-4.42-.13,1.04-.5,2.65-1.03,4.42"/>
  <path d="M161.73,9c-.5,1.65-.96,2.73-1.49,4.05h5.04c-.22-.48-.99-2.4-1.49-4.05-.53-1.77-.9-3.37-1.03-4.42-.13,1.04-.5,2.65-1.03,4.42"/>
  <line x1="165.09" y1="18.62" x2="256.22" y2="18.62"/>
  <path d="M257.99,17.85c-1.24-.37-2.04-.72-3.04-1.12v3.78c.36-.17,1.8-.74,3.04-1.12,1.33-.4,2.53-.68,3.31-.77-.78-.1-1.98-.37-3.31-.77"/>
  <line class="st3" x1="165.09" y1="18.62" x2="256.22" y2="18.62"/>
  <path d="M257.54,18.04c-.93-.28-1.53-.54-2.28-.84v2.84c.27-.13,1.35-.56,2.28-.84.99-.3,1.9-.51,2.48-.58-.58-.07-1.49-.28-2.48-.58"/>
  <line class="st7" x1="262.75" y1="29.87" x2="262.75" y2="13.37"/>
  <line class="st2" x1="262.75" y1="29.87" x2="262.75" y2="13.37"/>
  <line class="st7" x1="288.67" y1="134.37" x2="267.17" y2="134.37"/>
  <line class="st2" x1="288.67" y1="134.37" x2="267.17" y2="134.37"/>
  <rect class="st17" x="266.09" y="101.37" width="21.75" height="18"/>
  <line x1="277.34" y1="88.87" x2="277.34" y2="40.55"/>
  <path d="M276.57,38.78c-.38,1.24-.72,2.05-1.12,3.04h3.78c-.17-.36-.74-1.8-1.12-3.04-.4-1.33-.67-2.53-.77-3.31-.1.78-.37,1.98-.77,3.31"/>
  <line class="st3" x1="277.34" y1="88.87" x2="277.34" y2="40.55"/>
  <path d="M276.76,39.22c-.28.93-.54,1.53-.84,2.28h2.84c-.13-.27-.56-1.35-.84-2.28-.3-1-.51-1.9-.58-2.48-.07.58-.28,1.49-.58,2.48"/>
  <line class="st7" x1="266.01" y1="34.17" x2="287.51" y2="34.17"/>
  <line class="st2" x1="266.01" y1="34.17" x2="287.51" y2="34.17"/>
  <rect class="st17" x="269.09" y="55.44" width="18.17" height="18"/>
  <rect class="st17" x="191.83" y="8.87" width="37.2" height="18"/>
  <line x1="160.75" y1="18.62" x2="90.62" y2="18.62"/>
  <path d="M88.85,19.38c1.24.38,2.05.72,3.04,1.12v-3.78c-.36.17-1.8.74-3.04,1.12-1.33.4-2.53.68-3.31.77.78.1,1.98.37,3.31.77"/>
  <line class="st3" x1="160.75" y1="18.62" x2="90.62" y2="18.62"/>
  <path d="M89.3,19.19c.93.28,1.53.54,2.28.84v-2.84c-.27.13-1.35.56-2.28.84-1,.3-1.9.51-2.48.58.58.07,1.49.28,2.48.58"/>
  <line class="st7" x1="84.09" y1="30.37" x2="84.09" y2="11.87"/>
  <line class="st2" x1="84.09" y1="30.37" x2="84.09" y2="11.87"/>
  <rect class="st17" x="109.55" y="11.37" width="34.93" height="12"/>
  <text class="st13" transform="translate(112.23 21.43)"><tspan x="0" y="0">x_min</tspan></text>
  <text class="st13" transform="translate(194.97 21.62)"><tspan x="0" y="0">x_max</tspan></text>
  <text class="st13" transform="translate(269.09 114.18)"><tspan x="0" y="0">y_min</tspan></text>
  <text class="st13" transform="translate(269.09 67.32)"><tspan x="0" y="0">y_max</tspan></text>
  <text class="st11" transform="translate(10.09 29.87)"><tspan x="0" y="0">ELLIPTICAL</tspan></text>
  <text class="st13" transform="translate(289.8 86.18)"><tspan x="0" y="0">x</tspan></text>
  <text class="st13" transform="translate(167.51 9.21)"><tspan x="0" y="0">y</tspan></text>
  <text class="st11" transform="translate(9.49 78.54)"><tspan x="0" y="0">RECTANGULAR</tspan></text>
  <g>
    <g>
      <line class="st15" x1="359.5" y1="96.34" x2="508.15" y2="96.31"/>
      <g>
        <line class="st5" x1="359.5" y1="96.34" x2="500.18" y2="96.32"/>
        <polygon points="498.4 98.82 508.15 96.21 498.39 93.59 498.4 98.82"/>
      </g>
    </g>
    <g>
      <line class="st6" x1="454.38" y1="134.92" x2="454.4" y2="11.95"/>
      <g>
        <line class="st5" x1="454.38" y1="134.92" x2="454.4" y2="19.92"/>
        <polygon points="456.91 21.71 454.29 11.95 451.68 21.71 456.91 21.71"/>
      </g>
    </g>
    <text class="st10" transform="translate(504.19 91.22)"><tspan x="0" y="0">x</tspan></text>
    <text class="st10" transform="translate(459.3 18.69)"><tspan x="0" y="0">y</tspan></text>
    <path class="st1" d="M432.69,36.14c-8.81,1.91-18.55,5.68-28.18,11.24-12.97,7.49-23.25,16.79-29.36,25.75v42.16l100.48,10.18V34.72l-42.94,1.42Z"/>
    <path d="M433.83,37.01c0,1.26-1.02,2.29-2.28,2.29s-2.29-1.02-2.29-2.29,1.02-2.29,2.29-2.29,2.28,1.02,2.28,2.29Z"/>
    <path d="M377.45,73.13c0,1.26-1.02,2.29-2.28,2.29s-2.29-1.02-2.29-2.29,1.02-2.29,2.29-2.29,2.28,1.02,2.28,2.29Z"/>
    <path d="M377.45,115.29c0,1.26-1.02,2.29-2.28,2.29s-2.29-1.02-2.29-2.29,1.02-2.29,2.29-2.29,2.28,1.02,2.28,2.29Z"/>
    <path d="M477.92,125.46c0,1.26-1.02,2.29-2.28,2.29s-2.29-1.02-2.29-2.29,1.02-2.29,2.29-2.29,2.28,1.02,2.28,2.29Z"/>
    <path d="M477.92,34.73c0,1.26-1.02,2.29-2.28,2.29s-2.29-1.02-2.29-2.29,1.02-2.29,2.29-2.29,2.28,1.02,2.28,2.29Z"/>
    <path class="st16" d="M420.64,71.75c0,.52-.42.94-.94.94s-.94-.42-.94-.94.42-.94.94-.94.94.42.94.94Z"/>
    <text class="st10" transform="translate(481.24 37.53)"><tspan x="0" y="0">V1</tspan></text>
    <text class="st10" transform="translate(480.55 131.38)"><tspan x="0" y="0">V5</tspan></text>
    <text class="st10" transform="translate(356.7 123.88)"><tspan x="0" y="0">V4</tspan></text>
    <text class="st10" transform="translate(356.87 69.76)"><tspan x="0" y="0">V3</tspan></text>
    <text class="st10" transform="translate(417.83 29.82)"><tspan x="0" y="0">V2</tspan></text>
    <text class="st12" transform="translate(341 18.62)"><tspan x="0" y="0" xml:space="preserve">B)  WALL2D</tspan></text>
    <path class="st9" d="M375.37,73.89c-11.07,2.46-19.68,1.39-22.62-3.69-5.13-8.88,9.02-26.65,31.6-39.68,22.58-13.04,45.04-16.4,50.17-7.52,2.07,3.59.99,8.64-2.53,14.24"/>
    <g>
      <line class="st8" x1="419.71" y1="71.74" x2="410.29" y2="50.84"/>
      <polygon class="st16" points="412.3 51.24 408.04 46.02 409.12 52.67 412.3 51.24"/>
    </g>
    <g>
      <path class="st8" d="M421.61,54.35c-4.99-1.38-9.73-.69-13.47,1.2"/>
      <polygon class="st16" points="408.17 53.25 403.28 59.4 410.59 56.52 408.17 53.25"/>
    </g>
    <path class="st0" d="M416.11,85.58c.45,1.73-1.09,3.26-2.81,2.81-.79-.21-1.44-.86-1.62-1.66-.39-1.69,1.09-3.16,2.77-2.77.8.18,1.46.83,1.66,1.62Z"/>
    <text class="st14" transform="translate(420.8 88.91)"><tspan x="0" y="0">center</tspan></text>
  </g>
  <text class="st12" transform="translate(0 18.62)"><tspan x="0" y="0">A)</tspan></text>
  <ellipse class="st4" cx="173.42" cy="82.92" rx="89.33" ry="50.94"/>
  <line class="st5" x1="70.09" y1="88.15" x2="287.26" y2="88.7"/>
  <line class="st5" x1="162.76" y1="140.53" x2="162.76" y2="11.37"/>
</svg>