<?xml version="1.0" encoding="UTF-8"?>
<svg id="Layer_1" xmlns="http://www.w3.org/2000/svg" version="1.1" viewBox="0 0 237.56 102.98">
  <defs>
    <style>
      .st0 {
        fill: #bfdfff;
      }

      .st1 {
        font-family: MyriadPro-Regular, 'Myriad Pro';
      }

      .st1, .st2 {
        font-size: 16px;
      }

      .st3 {
        stroke-dasharray: 2 2;
      }

      .st3, .st4, .st5 {
        fill: none;
        stroke: #000;
      }

      .st4 {
        stroke-width: .75px;
      }

      .st2 {
        font-family: MyriadPro-It, 'Myriad Pro';
        font-style: italic;
      }

      .st6 {
        fill: #fff;
      }
    </style>
  </defs>
  <path class="st0" d="M164.06,98.77l35-35C159.97,24.68,105.97.5,46.33.5v49.5c45.98,0,87.6,18.64,117.73,48.77"/>
  <path class="st5" d="M164.06,98.77l35-35C159.97,24.68,105.97.5,46.33.5v49.5c45.98,0,87.6,18.64,117.73,48.77Z"/>
  <g>
    <line class="st3" x1="15.33" y1="12.05" x2="217.28" y2="95.71"/>
    <polygon points="214.93 97.25 223.83 98.42 216.71 92.95 214.93 97.25"/>
  </g>
  <g>
    <line class="st5" x1="14.9" y1="25.12" x2="38.35" y2="25.12"/>
    <polygon points="36.77 27.44 45.44 25.12 36.77 22.79 36.77 27.44"/>
  </g>
  <polyline class="st6" points="198.7 100.17 203.56 102.98 200.76 98.12 198.7 100.17"/>
  <g>
    <line class="st5" x1="181.33" y1="80.77" x2="195.41" y2="94.85"/>
    <polygon points="192.64 95.37 200.42 99.86 195.93 92.08 192.64 95.37"/>
  </g>
  <text class="st1" transform="translate(203.56 80.91)"><tspan x="0" y="0">z_rot</tspan></text>
  <text class="st2" transform="translate(142.14 63.9)"><tspan x="0" y="0">z</tspan></text>
  <text class="st2" transform="translate(126.06 29.04)"><tspan x="0" y="0">x</tspan></text>
  <path class="st5" d="M181.45,80.91C146.87,46.34,99.1,24.95,46.34,24.95"/>
  <g>
    <line class="st5" x1="112.28" y1="49.41" x2="130.47" y2="57.51"/>
    <polygon points="128.07 58.99 136.94 60.39 129.96 54.74 128.07 58.99"/>
  </g>
  <g>
    <line class="st5" x1="112.28" y1="49.41" x2="120.38" y2="31.22"/>
    <polygon points="121.85 33.61 123.26 24.74 117.61 31.72 121.85 33.61"/>
  </g>
  <circle cx="111.22" cy="51.12" r="1.6" transform="translate(-.08 .17) rotate(-.09)"/>
  <g>
    <polyline class="st6" points="15.24 30.9 17.82 27.17 14.44 28.31 15.24 30.9"/>
    <path class="st4" d="M17.69,23.14c0-3.73-1.86-6.75-4.15-6.75s-4.15,3.02-4.15,6.75,1.86,6.75,4.15,6.75c.67,0,1.3-.26,1.86-.72"/>
    <polyline points="15.24 30.9 17.82 27.17 14.44 28.31 15.24 30.9"/>
  </g>
  <text class="st1" transform="translate(0 43.29)"><tspan x="0" y="0">tilt_ref</tspan></text>
  <g>
    <polyline class="st6" points="211.34 99.55 215.43 97.6 211.94 96.89 211.34 99.55"/>
    <path class="st4" d="M217.32,94.03c1.86-3.23,1.75-6.78-.24-7.91-1.99-1.15-5.11.55-6.96,3.78-1.86,3.23-1.76,6.78.24,7.92.58.34,1.25.42,1.96.31"/>
    <polyline points="211.34 99.55 215.43 97.6 211.94 96.89 211.34 99.55"/>
  </g>
</svg>