<?xml version="1.0" encoding="UTF-8"?>
<svg id="Layer_1" xmlns="http://www.w3.org/2000/svg" version="1.1" viewBox="0 0 414.68 275.03">
  <defs>
    <style>
      .st0 {
        fill: #cb0046;
      }

      .st1 {
        letter-spacing: 0em;
      }

      .st1, .st2 {
        font-family: Helvetica-Oblique, Helvetica;
        font-size: 11px;
        font-style: oblique;
      }

      .st3 {
        font-size: 12px;
      }

      .st3, .st4 {
        font-family: MyriadPro-Regular, 'Myriad Pro';
      }

      .st4 {
        font-size: 13px;
      }

      .st5 {
        stroke-dasharray: 2 2;
      }

      .st5, .st6, .st7, .st8 {
        stroke: #000;
      }

      .st5, .st9, .st7 {
        fill: none;
      }

      .st6, .st8 {
        fill: #dbf8ff;
      }

      .st9 {
        stroke: #b52200;
      }

      .st8 {
        stroke-width: 1.5px;
      }
    </style>
  </defs>
  <polygon class="st6" points="160.12 260.93 12.73 260.33 63.51 191.56 135.62 192.37 160.12 260.93"/>
  <g>
    <path class="st7" d="M50.46,23.46c-.81-.3-1.63-.56-2.47-.79-7.49-2.07-15.48-1.3-23.71,1.89"/>
    <path d="M49.37,23.07l-2.22,1.54.05.08,4.04.16c1.31.27,2.63.53,3.94.8-1.08-.79-2.16-1.59-3.24-2.38l-2.83-2.89h-.09s.34,2.69.34,2.69Z"/>
  </g>
  <path class="st8" d="M49.01,48.06l-13.68,50.08c18.95-9.67,37.36-13.61,60.1-13.61s42.51,5.61,61.65,15.52l-14.87-51.79c-14.62-3.36-30.76-5.18-46.4-5.18s-32.39,1.73-46.8,4.98Z"/>
  <g>
    <path class="st7" d="M127.6,110.89c-9.94-3.55-20.41-5.47-31.23-5.47-12.94,0-25.37,2.74-37,7.74"/>
    <polygon points="127.02 108.53 133.37 113.15 125.56 112.33 127.02 108.53"/>
  </g>
  <path class="st9" d="M149.77,72.63c-16.89-5.58-34.94-8.61-53.7-8.61s-37.18,3.09-54.22,8.78"/>
  <line class="st5" x1="61.17" y1="120.72" x2="42.14" y2="73.01"/>
  <line class="st5" x1="131.92" y1="116.8" x2="149.34" y2="73.01"/>
  <g>
    <line class="st7" x1="146.54" y1="80.66" x2="172.57" y2="11.26"/>
    <path d="M172.12,12.43l-2.9.55-.02-.1,2.97-3.28c.8-1.23,1.6-2.46,2.39-3.69-.21,1.45-.42,2.9-.62,4.36l.09,4.42-.07.07-1.84-2.33Z"/>
  </g>
  <g>
    <line class="st7" x1="140.91" y1="69.63" x2="173.02" y2="80.33"/>
    <polygon points="170.93 81.93 179.33 82.43 172.3 77.79 170.93 81.93"/>
  </g>
  <g>
    <line class="st7" x1="45.2" y1="80.64" x2="20.86" y2="18.89"/>
    <path d="M21.33,20.06l-1.78,2.35-.08-.06v-4.43c-.22-1.45-.45-2.9-.68-4.35.82,1.22,1.64,2.43,2.46,3.65l3.03,3.23v.1s-2.93-.5-2.93-.5Z"/>
  </g>
  <g>
    <line class="st7" x1="33.41" y1="75.49" x2="70.59" y2="62.86"/>
    <polygon points="69.88 65.4 76.88 60.72 68.48 61.27 69.88 65.4"/>
  </g>
  <text class="st2" transform="translate(143.1 14.13)"><tspan x="0" y="0">e2</tspan></text>
  <text class="st2" transform="translate(20.86 13.58)"><tspan x="0" y="0">x</tspan></text>
  <text class="st2" transform="translate(26.36 18.16) scale(.73)"><tspan x="0" y="0">1</tspan></text>
  <text class="st2" transform="translate(174.93 13.58)"><tspan x="0" y="0">x</tspan></text>
  <text class="st2" transform="translate(180.43 18.16) scale(.73)"><tspan x="0" y="0">2</tspan></text>
  <text class="st2" transform="translate(71.32 57.44) scale(1.25)"><tspan x="0" y="0">z</tspan></text>
  <text class="st2" transform="translate(78.2 62.02) scale(.73)"><tspan x="0" y="0">1</tspan></text>
  <text class="st2" transform="translate(83.44 74.66)"><tspan x="0" y="0">length</tspan></text>
  <text class="st2" transform="translate(173.87 76.03) scale(1.25)"><tspan x="0" y="0">z</tspan></text>
  <text class="st2" transform="translate(180.74 80.61) scale(.73)"><tspan x="0" y="0">2</tspan></text>
  <text class="st1" transform="translate(185.2 79.69) scale(.58)"><tspan x="0" y="0"> </tspan></text>
  <text class="st2" transform="translate(81.46 114.97)"><tspan x="0" y="0">angle</tspan></text>
  <g>
    <path class="st7" d="M138.95,17.17c1.25-.29,2.51-.53,3.79-.71,8.96-1.26,18.01.39,26.92,4.5"/>
    <path d="M140.08,16.96l.73-2.6-.09-.03-3.22,2.45c-1.18.63-2.37,1.26-3.55,1.89,1.34-.07,2.68-.15,4.02-.22l4.02.43.07-.06-1.97-1.86Z"/>
  </g>
  <g>
    <path class="st7" d="M48.04,31.55c-2.62-.33-5.36.09-8.16,1.18"/>
    <path d="M46.88,31.41l-1.99,1.82.06.07,4.03-.38c1.34.09,2.68.18,4.01.27-1.18-.64-2.35-1.29-3.53-1.93l-3.19-2.49-.09.02.7,2.62Z"/>
  </g>
  <text class="st2" transform="translate(55.19 35.77)"><tspan x="0" y="0">e1_rect</tspan></text>
  <line class="st5" x1="44.1" y1="109.29" x2="39.74" y2="27.61"/>
  <line class="st5" x1="46.43" y1="57.44" x2="56.44" y2="19.34"/>
  <text class="st2" transform="translate(98.44 33.19)"><tspan x="0" y="0">e2_rect</tspan></text>
  <g>
    <path class="st7" d="M141.71,28.02c2.4-.56,4.94-.54,7.58,0"/>
    <path d="M142.85,27.78l.48-2.66-.09-.02-2.97,2.75c-1.12.74-2.24,1.48-3.35,2.22,1.33-.2,2.65-.41,3.98-.61l4.05.04.06-.07-2.14-1.66Z"/>
  </g>
  <line class="st5" x1="142.34" y1="48.51" x2="132.29" y2="10.42"/>
  <line class="st5" x1="149.44" y1="109.5" x2="149.2" y2="25.65"/>
  <circle class="st0" cx="42.14" cy="72.27" r="2.5"/>
  <circle class="st0" cx="149.34" cy="72.27" r="2.5"/>
  <text class="st4" transform="translate(0 15.38)"><tspan x="0" y="0">A)</tspan></text>
  <g>
    <path class="st7" d="M253.96,98.59c-2.62.33-5.36-.09-8.16-1.18"/>
    <path d="M252.8,98.73l-.7,2.61.09.03,3.19-2.49c1.18-.64,2.35-1.29,3.53-1.93-1.34.09-2.68.18-4.01.27l-4.03-.38-.06.06,2,1.83Z"/>
  </g>
  <path class="st8" d="M260.45,102.39l-13.68-50.08c18.95,9.67,37.36,13.61,60.1,13.61s42.51-5.61,61.65-15.52l-14.87,51.79c-14.62,3.36-30.76,5.18-46.4,5.18s-32.39-1.73-46.8-4.98Z"/>
  <g>
    <path class="st7" d="M339.03,39.57c-9.94,3.55-20.41,5.47-31.23,5.47-12.94,0-25.37-2.74-37-7.74"/>
    <polygon points="336.99 38.13 344.81 37.3 338.45 41.92 336.99 38.13"/>
  </g>
  <path class="st9" d="M361.21,77.83c-16.89,5.58-34.94,8.61-53.7,8.61s-37.18-3.09-54.22-8.78"/>
  <line class="st5" x1="276.8" y1="20.95" x2="241.68" y2="105.54"/>
  <line class="st5" x1="336.95" y1="18.16" x2="372.76" y2="107.65"/>
  <g>
    <line class="st7" x1="361.13" y1="78.23" x2="348.46" y2="46.47"/>
    <path d="M348.92,47.64l-1.77,2.36-.08-.06v-4.43c-.25-1.45-.48-2.9-.72-4.34.82,1.21,1.65,2.43,2.47,3.64l3.04,3.21v.1s-2.93-.48-2.93-.48Z"/>
  </g>
  <g>
    <line class="st7" x1="352.34" y1="80.83" x2="384.46" y2="70.12"/>
    <polygon points="383.74 72.66 390.76 68.02 382.36 68.53 383.74 72.66"/>
  </g>
  <g>
    <line class="st7" x1="253.04" y1="77.44" x2="265.77" y2="46.45"/>
    <path d="M265.29,47.61l-2.92.46-.02-.1,3.07-3.18c.84-1.21,1.67-2.41,2.51-3.62-.25,1.45-.51,2.89-.76,4.34l-.05,4.42-.07.06-1.76-2.38Z"/>
  </g>
  <g>
    <line class="st7" x1="244.84" y1="74.97" x2="282.02" y2="87.6"/>
    <polygon points="279.91 89.18 288.31 89.73 281.31 85.06 279.91 89.18"/>
  </g>
  <g>
    <path class="st7" d="M360.2,97.99c2.47,0,4.94-.59,7.38-1.72"/>
    <path d="M361.37,97.96l1.71-2.09-.07-.06-3.93.95c-1.34.1-2.67.2-4.01.31,1.26.47,2.51.94,3.77,1.41l3.51,2.01.08-.03-1.06-2.49Z"/>
  </g>
  <text class="st2" transform="translate(296.64 94.9)"><tspan x="0" y="0">length</tspan></text>
  <text class="st2" transform="translate(252.58 46.72)"><tspan x="0" y="0">x</tspan></text>
  <text class="st2" transform="translate(258.08 51.3) scale(.73)"><tspan x="0" y="0">1</tspan></text>
  <text class="st2" transform="translate(353.13 46.66)"><tspan x="0" y="0">x</tspan></text>
  <text class="st2" transform="translate(358.63 51.24) scale(.73)"><tspan x="0" y="0">2</tspan></text>
  <text class="st2" transform="translate(294.86 41.35)"><tspan x="0" y="0">angle</tspan></text>
  <text class="st4" transform="translate(229.05 18.55)"><tspan x="0" y="0">B)</tspan></text>
  <text class="st2" transform="translate(225.46 31.9) scale(.93 1)"><tspan x="0" y="0">radius_ref</tspan></text>
  <text class="st2" transform="translate(343.23 30.94)"><tspan x="0" y="0">radius_ref</tspan></text>
  <g>
    <path class="st7" d="M77.81,162.05c-.65-.57-1.32-1.11-2.02-1.62-6.26-4.6-14.01-6.73-22.83-6.68"/>
    <path d="M76.94,161.3l-2.62.65.02.09,3.72,1.59c1.13.72,2.27,1.44,3.4,2.15-.73-1.13-1.45-2.25-2.18-3.38l-1.62-3.71-.08-.03-.64,2.63Z"/>
  </g>
  <path class="st9" d="M153.1,243.36c-13.79-11.23-29.58-20.49-47.11-27.17-17.71-6.75-35.84-10.35-53.79-11.1"/>
  <path class="st5" d="M52.39,205.39"/>
  <path class="st5" d="M53.18,256.75"/>
  <line class="st5" x1="123.63" y1="274.69" x2="152.56" y2="243.57"/>
  <g>
    <line class="st7" x1="147.22" y1="249.72" x2="196.26" y2="194.14"/>
    <path d="M195.43,195.08l-2.91-.52v-.1s3.96-2,3.96-2c1.18-.87,2.37-1.73,3.55-2.6-.71,1.28-1.42,2.57-2.13,3.85l-1.5,4.16-.09.04-.89-2.83Z"/>
  </g>
  <g>
    <line class="st7" x1="145.89" y1="237.4" x2="172.09" y2="258.84"/>
    <polygon points="169.56 259.59 177.23 263.05 172.32 256.22 169.56 259.59"/>
  </g>
  <g>
    <line class="st7" x1="52.75" y1="213.61" x2="52" y2="147.24"/>
    <path d="M52.02,148.5l-2.5,1.56-.06-.09,1.59-4.13c.3-1.44.6-2.87.9-4.31.33,1.43.66,2.86.99,4.29l1.68,4.09-.04.09-2.55-1.51Z"/>
  </g>
  <g>
    <line class="st7" x1="44.33" y1="204.38" x2="145.91" y2="205.33"/>
    <polygon points="144.41 207.5 152.56 205.39 144.45 203.14 144.41 207.5"/>
  </g>
  <line class="st5" x1="61.95" y1="192.37" x2="84.87" y2="160.33"/>
  <circle class="st0" cx="152.82" cy="242.88" r="2.5" transform="translate(-128.55 299.18) rotate(-69.14)"/>
  <text class="st2" transform="translate(74.16 201.08)"><tspan x="0" y="0">L_rectangle</tspan></text>
  <text class="st2" transform="translate(39.51 144.78)"><tspan x="0" y="0">x</tspan></text>
  <text class="st2" transform="translate(45.01 149.36) scale(.73)"><tspan x="0" y="0">1</tspan></text>
  <text class="st2" transform="translate(57.85 152)"><tspan x="0" y="0">e1 &amp; e1_rect</tspan></text>
  <line class="st5" x1="153.2" y1="248.94" x2="152.97" y2="165.21"/>
  <line class="st5" x1="136.11" y1="193.6" x2="126.05" y2="155.51"/>
  <g>
    <path class="st7" d="M134.6,169.81c5.68-1.92,11.85-2.48,18.35-1.81"/>
    <path d="M135.69,169.44l.44-2.66-.09-.02-2.93,2.79c-1.11.76-2.21,1.51-3.32,2.27,1.32-.22,2.65-.45,3.97-.67l4.05-.02.06-.07-2.17-1.63Z"/>
  </g>
  <g>
    <path class="st7" d="M139.03,184.57c3.2-.28,6.41-.35,9.64-.19,14.79.75,28.83,6.2,41.87,15.57"/>
    <path d="M140.18,184.49l1.13-2.45-.08-.04-3.57,1.91c-1.27.43-2.54.87-3.81,1.3,1.33.14,2.67.28,4,.41l3.9,1.06.07-.05-1.66-2.14Z"/>
  </g>
  <text class="st2" transform="translate(131.08 161.94)"><tspan x="0" y="0">e2_rect</tspan></text>
  <text class="st2" transform="translate(91.23 222.2) rotate(20.86)"><tspan x="0" y="0">length</tspan></text>
  <line class="st5" x1="54.65" y1="254.99" x2="52.3" y2="211.06"/>
  <g>
    <path class="st7" d="M120.2,268c-8.03-6.86-17.13-12.38-27.24-16.23-12.09-4.61-24.68-6.48-37.33-5.95"/>
    <polygon points="120.49 265.6 124.79 272.18 117.78 268.62 120.49 265.6"/>
  </g>
  <text class="st4" transform="translate(226.39 153.76)"><tspan x="0" y="0">D)</tspan></text>
  <text class="st4" transform="translate(.32 151.42)"><tspan x="0" y="0">C)</tspan></text>
  <polygon class="st6" points="266.31 251.05 402.32 250.5 365.35 178.05 291.7 179.98 266.31 251.05"/>
  <g>
    <path class="st7" d="M354.62,148.18c.23-.19.47-.37.71-.55,4.88-3.59,11.29-4.74,18.86-3.76"/>
    <path d="M355.51,147.46l-.65-2.62-.09.02-1.59,3.72c-.72,1.13-1.43,2.27-2.15,3.4,1.13-.73,2.25-1.46,3.38-2.18l3.71-1.62.03-.08-2.63-.64Z"/>
  </g>
  <path class="st9" d="M273.32,233.48c13.79-11.23,29.58-20.49,47.11-27.17,17.71-6.75,35.84-10.35,53.79-11.1"/>
  <path class="st5" d="M374.03,195.51"/>
  <path class="st5" d="M373.24,246.87"/>
  <line class="st5" x1="302.79" y1="264.81" x2="273.86" y2="233.69"/>
  <g>
    <line class="st7" x1="279.2" y1="239.84" x2="230.17" y2="184.26"/>
    <path d="M231,185.2l-.88,2.82-.1-.03-1.5-4.16c-.71-1.28-1.42-2.57-2.13-3.85,1.18.87,2.37,1.73,3.55,2.6l3.95,2,.02.09-2.92.53Z"/>
  </g>
  <g>
    <line class="st7" x1="272.61" y1="233.63" x2="298.81" y2="212.19"/>
    <polygon points="299.04 214.82 303.96 207.98 296.28 211.44 299.04 214.82"/>
  </g>
  <g>
    <line class="st7" x1="373.67" y1="203.73" x2="374.42" y2="137.36"/>
    <path d="M374.41,138.62l-2.54,1.51-.06-.09,1.68-4.09c.33-1.43.66-2.86.99-4.29.3,1.44.6,2.87.9,4.31l1.59,4.13-.04.09-2.52-1.56Z"/>
  </g>
  <g>
    <line class="st7" x1="273.79" y1="195.81" x2="367.58" y2="194.8"/>
    <polygon points="366.11 196.99 374.22 194.73 366.07 192.64 366.11 196.99"/>
  </g>
  <line class="st5" x1="365.35" y1="178.05" x2="348.17" y2="144.73"/>
  <circle class="st0" cx="273.6" cy="233" r="2.5" transform="translate(-65.04 112.72) rotate(-20.86)"/>
  <line class="st5" x1="273.22" y1="239.06" x2="273.48" y2="148.17"/>
  <line class="st5" x1="290.1" y1="185.52" x2="297.64" y2="156.97"/>
  <g>
    <path class="st7" d="M291.83,159.93c-5.68-1.92-11.85-2.48-18.35-1.81"/>
    <path d="M290.73,159.56l-2.16,1.61.05.08,4.05.02c1.32.22,2.65.45,3.97.67-1.11-.76-2.21-1.51-3.32-2.27l-2.93-2.79h-.09s.43,2.68.43,2.68Z"/>
  </g>
  <g>
    <path class="st7" d="M287.4,174.69c-3.2-.28-6.41-.35-9.64-.19-14.79.75-28.83,6.2-41.87,15.57"/>
    <path d="M286.25,174.61l-1.65,2.13.07.06,3.91-1.06c1.33-.14,2.67-.28,4-.41-1.27-.43-2.54-.87-3.81-1.3l-3.57-1.91-.08.03,1.13,2.46Z"/>
  </g>
  <line class="st5" x1="371.78" y1="245.11" x2="374.13" y2="201.18"/>
  <g>
    <path class="st7" d="M301.64,262.3c9.09-8.81,19.73-15.8,31.82-20.41,9.83-3.75,19.99-5.68,30.24-5.99"/>
    <polygon points="362.12 238.28 370.79 235.94 362.12 233.63 362.12 238.28"/>
  </g>
  <g>
    <line class="st7" x1="51.94" y1="204.88" x2="73.71" y2="204.74"/>
    <polygon points="72.24 206.93 80.36 204.7 72.21 202.57 72.24 206.93"/>
  </g>
  <circle class="st0" cx="52.66" cy="204.7" r="2.5" transform="translate(-157.37 181) rotate(-69.14)"/>
  <circle class="st0" cx="373.77" cy="194.82" r="2.5" transform="translate(-44.88 145.89) rotate(-20.86)"/>
  <g>
    <line class="st7" x1="376.55" y1="194.91" x2="398.33" y2="194.77"/>
    <polygon points="396.85 196.96 404.97 194.73 396.83 192.6 396.85 196.96"/>
  </g>
  <text class="st2" transform="translate(378.08 141.53)"><tspan x="0" y="0">x</tspan></text>
  <text class="st2" transform="translate(383.58 146.11) scale(.73)"><tspan x="0" y="0">2</tspan></text>
  <text class="st2" transform="translate(197.31 203.49)"><tspan x="0" y="0">x</tspan></text>
  <text class="st2" transform="translate(202.81 208.07) scale(.73)"><tspan x="0" y="0">2</tspan></text>
  <text class="st2" transform="translate(222.94 194.82)"><tspan x="0" y="0">x</tspan></text>
  <text class="st2" transform="translate(228.44 199.4) scale(.73)"><tspan x="0" y="0">1</tspan></text>
  <text class="st2" transform="translate(39.64 16.95)"><tspan x="0" y="0">e1</tspan></text>
  <text class="st2" transform="translate(317.98 244.02) rotate(-20.86)"><tspan x="0" y="0">angle</tspan></text>
  <text class="st2" transform="translate(310.73 220.83) rotate(-20.86)"><tspan x="0" y="0">length</tspan></text>
  <text class="st2" transform="translate(245.8 109.29)"><tspan x="0" y="0">e1</tspan></text>
  <text class="st2" transform="translate(356.41 110.23)"><tspan x="0" y="0">e2</tspan></text>
  <text class="st2" transform="translate(245.1 175.66)"><tspan x="0" y="0">e1</tspan></text>
  <text class="st2" transform="translate(167.98 186.09)"><tspan x="0" y="0">e2</tspan></text>
  <text class="st2" transform="translate(299.83 191.77)"><tspan x="0" y="0">L_rectangle</tspan></text>
  <text class="st2" transform="translate(276.8 154.22)"><tspan x="0" y="0">e1_rect</tspan></text>
  <text class="st2" transform="translate(302.51 141.82)"><tspan x="0" y="0">e2 &amp; e2_rect</tspan></text>
  <circle class="st0" cx="253.36" cy="77.66" r="2.5"/>
  <circle class="st0" cx="360.99" cy="77.46" r="2.5"/>
  <g>
    <line class="st7" x1="43.31" y1="102.23" x2="143.03" y2="101.16"/>
    <polygon points="141.57 103.36 149.67 101.09 141.52 99 141.57 103.36"/>
  </g>
  <text class="st2" transform="translate(70.48 98.7)"><tspan x="0" y="0">L_chord</tspan></text>
  <text class="st2" transform="translate(81.48 243.96) rotate(20.86)"><tspan x="0" y="0">angle</tspan></text>
  <text class="st2" transform="translate(285.06 209.91) scale(1.25)"><tspan x="0" y="0">z</tspan></text>
  <text class="st2" transform="translate(291.93 214.49) scale(.73)"><tspan x="0" y="0">1</tspan></text>
  <text class="st2" transform="translate(67.21 215.71) scale(1.25)"><tspan x="0" y="0">z</tspan></text>
  <text class="st2" transform="translate(74.08 220.29) scale(.73)"><tspan x="0" y="0">1</tspan></text>
  <text class="st2" transform="translate(273.79 98.7) scale(1.25)"><tspan x="0" y="0">z</tspan></text>
  <text class="st2" transform="translate(280.66 103.28) scale(.73)"><tspan x="0" y="0">1</tspan></text>
  <text class="st2" transform="translate(395.7 207.07) scale(1.25)"><tspan x="0" y="0">z</tspan></text>
  <text class="st2" transform="translate(402.57 211.65) scale(.73)"><tspan x="0" y="0">2</tspan></text>
  <text class="st1" transform="translate(407.03 210.74) scale(.58)"><tspan x="0" y="0"> </tspan></text>
  <text class="st2" transform="translate(175.99 254.99) scale(1.25)"><tspan x="0" y="0">z</tspan></text>
  <text class="st2" transform="translate(182.86 259.57) scale(.73)"><tspan x="0" y="0">2</tspan></text>
  <text class="st1" transform="translate(187.32 258.65) scale(.58)"><tspan x="0" y="0"> </tspan></text>
  <text class="st2" transform="translate(382.1 82.05) scale(1.25)"><tspan x="0" y="0">z</tspan></text>
  <text class="st2" transform="translate(388.97 86.63) scale(.73)"><tspan x="0" y="0">2</tspan></text>
  <text class="st1" transform="translate(393.43 85.71) scale(.58)"><tspan x="0" y="0"> </tspan></text>
  <text class="st3" transform="translate(683 384)"><tspan x="0" y="0">Kn0_from_g_ref</tspan></text>
  <text class="st3" transform="translate(683 384)"><tspan x="0" y="0">Kn0_from_g_ref</tspan></text>
</svg>