<?xml version="1.0" encoding="UTF-8"?>
<svg id="Layer_1" xmlns="http://www.w3.org/2000/svg" version="1.1" viewBox="0 0 637.67 218.09">
  <defs>
    <style>
      .st0, .st1 {
        fill: #0618c1;
      }

      .st0, .st2, .st3, .st4, .st5, .st6, .st7, .st8 {
        font-family: MyriadPro-Regular, 'Myriad Pro';
      }

      .st0, .st2, .st3, .st5, .st6, .st7, .st8 {
        font-size: 16px;
      }

      .st9 {
        fill: #1e00a2;
      }

      .st10 {
        fill: #a300a5;
        opacity: .5;
      }

      .st10, .st11, .st12, .st13, .st14, .st15, .st16, .st17, .st18, .st19, .st20, .st21 {
        stroke-miterlimit: 10;
      }

      .st10, .st12, .st13, .st16, .st19, .st21 {
        stroke: #000;
      }

      .st22 {
        fill: #a2009c;
      }

      .st3 {
        fill: #1e00bd;
      }

      .st4 {
        fill: #b000b3;
        font-size: 18px;
      }

      .st23 {
        fill: #87007e;
      }

      .st11 {
        stroke: #a2009c;
      }

      .st11, .st14, .st15, .st16, .st17, .st18, .st20 {
        fill: none;
      }

      .st11, .st14, .st16, .st17 {
        stroke-width: 2px;
      }

      .st5 {
        fill: #c800c0;
      }

      .st12 {
        fill: #004795;
        opacity: .8;
      }

      .st13 {
        fill: #fff;
      }

      .st14 {
        stroke: #bc021d;
      }

      .st6 {
        fill: #9a00a5;
      }

      .st15 {
        stroke: #0618c1;
      }

      .st7 {
        fill: #0500c0;
      }

      .st24 {
        opacity: .79;
      }

      .st25 {
        fill: #b42024;
      }

      .st8, .st26 {
        fill: #bc021d;
      }

      .st17 {
        stroke: #1e00a2;
      }

      .st18 {
        stroke: #87007e;
      }

      .st19 {
        fill: #a3a2a2;
      }

      .st20 {
        stroke: #b42024;
      }

      .st21 {
        fill: #029917;
      }
    </style>
  </defs>
  <path class="st19" d="M258.18,30.72c-27.73-.18-55.96,4.95-83.27,15.98-27.33,11.04-41.85,19.05-61.68,38.46l19.89,20.34c17.25-16.89,28.67-22.83,52.44-32.43,23.76-9.6,48.31-14.06,72.44-13.9l.18-28.45Z"/>
  <rect class="st19" x="49.27" y="83.27" width="23.5" height="144.3" transform="translate(130.43 3.56) rotate(46)"/>
  <rect class="st13" x="102.29" y="93.75" width="31.5" height="13.43" transform="translate(106.96 -54.14) rotate(45.5)"/>
  <path class="st19" d="M407.91,31.72c27.73-.18,55.96,4.95,83.27,15.98,27.33,11.04,51.21,26.97,71.04,46.38l-19.89,20.34c-17.25-16.89-38.03-30.75-61.8-40.35-23.76-9.6-48.31-14.06-72.44-13.9l-.18-28.45Z"/>
  <rect class="st19" x="321.4" y="-16.07" width="23.5" height="123.07" transform="translate(287.69 378.61) rotate(-90)"/>
  <rect class="st13" x="249.15" y="38.75" width="31.5" height="13.43" transform="translate(219.44 310.36) rotate(-90)"/>
  <rect class="st13" x="385.44" y="39" width="31.5" height="13.43" transform="translate(355.48 446.9) rotate(-90)"/>
  <rect class="st19" x="566.75" y="107.44" width="23.5" height="44.37" transform="translate(1073.61 -196.47) rotate(134)"/>
  <rect class="st13" x="541.68" y="102.67" width="31.5" height="13.43" transform="translate(1026.16 -211.52) rotate(134.5)"/>
  <rect class="st10" x="293.26" y="21.38" width="84.64" height="44.08"/>
  <g class="st24">
    <rect class="st21" x="51.03" y="131.85" width="10" height="57" transform="translate(-95.66 83.93) rotate(-44)"/>
    <rect class="st21" x="19.1" y="162.69" width="10" height="57" transform="translate(-126.04 70.4) rotate(-44)"/>
    <rect class="st21" x="90.95" y="93.31" width="10" height="57" transform="translate(-57.69 100.84) rotate(-44)"/>
    <rect class="st21" x="67" y="116.43" width="10" height="57" transform="translate(-80.47 90.69) rotate(-44)"/>
    <rect class="st21" x="82.96" y="101.02" width="10" height="57" transform="translate(-65.28 97.45) rotate(-44)"/>
    <rect class="st21" x="59.01" y="124.14" width="10" height="57" transform="translate(-88.07 87.31) rotate(-44)"/>
    <rect class="st21" x="27.08" y="154.98" width="10" height="57" transform="translate(-118.45 73.78) rotate(-44)"/>
    <rect class="st21" x="35.07" y="147.27" width="10" height="57" transform="translate(-110.85 77.16) rotate(-44)"/>
    <rect class="st21" x="43.05" y="139.56" width="10" height="57" transform="translate(-103.26 80.55) rotate(-44)"/>
    <rect class="st21" x="74.98" y="108.72" width="10" height="57" transform="translate(-72.88 94.07) rotate(-44)"/>
  </g>
  <text class="st8" transform="translate(617.04 183.69)"><tspan x="0" y="0">s</tspan></text>
  <g>
    <path class="st14" d="M256.93,43.84c-25.84-.17-52.15,4.61-77.6,14.89-18.01,6.65-44.67,22.7-56.84,35.3"/>
    <line class="st14" x1="257.12" y1="43.89" x2="408.19" y2="43.89"/>
    <path class="st14" d="M408.37,43.84c25.84-.17,52.15,4.61,77.6,14.89,25.46,10.29,47.72,25.14,66.2,43.22"/>
    <line class="st14" x1="2.6" y1="210.18" x2="122.87" y2="94.04"/>
    <g>
      <line class="st14" x1="619.26" y1="166.94" x2="551.85" y2="101.84"/>
      <polygon class="st26" points="619.98 162.78 626.91 174.33 615.13 167.8 619.98 162.78"/>
    </g>
  </g>
  <g>
    <line class="st14" x1="624.67" y1="126.13" x2="602.04" y2="149.56"/>
    <polygon class="st26" points="620.51 125.42 632.05 118.48 625.52 130.26 620.51 125.42"/>
  </g>
  <text class="st8" transform="translate(630.26 137.48)"><tspan x="0" y="0">x</tspan></text>
  <g>
    <g>
      <line class="st16" x1="145.64" y1="198.83" x2="212.04" y2="198.83"/>
      <polygon points="209.66 202.31 222.67 198.83 209.66 195.34 209.66 202.31"/>
    </g>
    <g>
      <line class="st16" x1="145.64" y1="198.84" x2="145.64" y2="132.44"/>
      <polygon points="149.13 134.82 145.64 121.81 142.16 134.82 149.13 134.82"/>
    </g>
    <text class="st2" transform="translate(152.36 126.33)"><tspan x="0" y="0">X</tspan></text>
    <text class="st2" transform="translate(216.32 190.33)"><tspan x="0" y="0">Z</tspan></text>
  </g>
  <text class="st2" transform="translate(135.62 216.09)"><tspan x="0" y="0">Floor coordinates</tspan></text>
  <text class="st8" transform="translate(491.01 195.55)"><tspan x="0" y="0">Branch coordinates </tspan></text>
  <rect class="st12" x="235.81" y="103.55" width="84.64" height="44.08" transform="translate(48.87 -75.83) rotate(17)"/>
  <g>
    <g>
      <line class="st11" x1="335.01" y1="43.09" x2="392.56" y2="43.25"/>
      <polygon class="st22" points="390.17 46.73 403.19 43.27 390.19 39.75 390.17 46.73"/>
    </g>
    <g>
      <line class="st11" x1="336.01" y1="41.97" x2="336.11" y2="11.52"/>
      <polygon class="st22" points="339.59 13.91 336.14 .89 332.62 13.89 339.59 13.91"/>
    </g>
  </g>
  <text class="st6" transform="translate(323.77 10.51)"><tspan x="0" y="0">x</tspan></text>
  <text class="st5" transform="translate(374.43 92.79)"><tspan x="0" y="0">Nominal element</tspan><tspan x="0" y="15">position</tspan></text>
  <text class="st7" transform="translate(345.36 138.09)"><tspan x="0" y="0">Element body</tspan><tspan x="0" y="15">coordinates</tspan></text>
  <text class="st0" transform="translate(224.15 146.99) rotate(16.79)"><tspan x="0" y="0">Actual element</tspan><tspan x="0" y="15">position</tspan></text>
  <g>
    <path class="st18" d="M360.17,76.24c.19,1.36.39,2.72.58,4.08,1.29,4.67,2.56,6.54,3.38,7.38.49.5,1.31.95,2.95,1.85,1.1.6,1.72.93,2.53,1.23.88.32,2.1.64,3.59.62"/>
    <polygon class="st23" points="357.46 78.39 359.69 67.39 363.26 78.03 357.46 78.39"/>
  </g>
  <g>
    <path class="st15" d="M312.66,101.28c.18-.17.37-.31.57-.42,4.07-3.81,5.4-7.09,5.9-9.15.3-1.22.4-3.22.61-7.21.14-2.68.22-4.17.18-6.12-.04-2.1-.23-5.01-.86-8.48"/>
    <polygon class="st1" points="316.39 101.51 307.72 108.64 311.66 98.13 316.39 101.51"/>
  </g>
  <text class="st8" transform="translate(14.9 52.55)"><tspan x="0" y="0">Branch</tspan><tspan x="0" y="15">reference curve</tspan></text>
  <g>
    <path class="st20" d="M131.01,70.9c-1.24-2.1-2.49-4.2-3.73-6.3-3.71-4.76-4.45-5.2-5.61-6.09-.85-.65-3.13-2.01-5.21-3.07-4.09-2.09-10.84-4.14-13.19-4.73-3.57-.89-13.5-2.76-20.24-2.66"/>
    <polygon class="st25" points="132.73 67.92 134.66 78.98 127.46 70.37 132.73 67.92"/>
  </g>
  <text class="st4" transform="translate(398.81 40.49)"><tspan x="0" y="0">z</tspan></text>
  <g>
    <g>
      <line class="st17" x1="278.14" y1="125.98" x2="333.18" y2="142.81"/>
      <polygon class="st9" points="329.88 145.45 343.34 145.92 331.92 138.78 329.88 145.45"/>
    </g>
    <g>
      <line class="st17" x1="279.46" y1="125.09" x2="289.67" y2="91.69"/>
      <polygon class="st9" points="292.31 94.98 292.78 81.52 285.64 92.94 292.31 94.98"/>
    </g>
  </g>
  <text class="st3" transform="translate(294.58 89.79)"><tspan x="0" y="0">x</tspan></text>
  <text class="st3" transform="translate(330.27 154.9)"><tspan x="0" y="0">z</tspan></text>
</svg>