<?xml version="1.0" encoding="UTF-8"?>
<svg id="Layer_1" xmlns="http://www.w3.org/2000/svg" xmlns:xlink="http://www.w3.org/1999/xlink" version="1.1" viewBox="0 0 349.69 108.18">
  <defs>
    <style>
      .st0, .st1, .st2 {
        fill: none;
      }

      .st1, .st3, .st2 {
        stroke: #231f20;
        stroke-miterlimit: 10;
      }

      .st3, .st4, .st5 {
        fill: #231f20;
      }

      .st3, .st2 {
        stroke-dasharray: 6;
      }

      .st6 {
        fill: #2e4388;
      }

      .st6, .st7, .st8, .st9 {
        opacity: .9;
      }

      .st7 {
        fill: #2d4287;
      }

      .st8, .st10 {
        isolation: isolate;
      }

      .st11 {
        fill: #22316d;
      }

      .st12 {
        fill: #9e3575;
      }

      .st12, .st13, .st14, .st15, .st16 {
        opacity: .9;
      }

      .st17 {
        fill: #21306b;
      }

      .st18 {
        fill: #1f2e68;
      }

      .st13 {
        fill: #008a41;
      }

      .st19 {
        clip-path: url(#clippath-1);
      }

      .st20 {
        clip-path: url(#clippath-3);
      }

      .st21 {
        clip-path: url(#clippath-4);
      }

      .st22 {
        clip-path: url(#clippath-2);
      }

      .st23 {
        clip-path: url(#clippath-7);
      }

      .st24 {
        clip-path: url(#clippath-6);
      }

      .st25 {
        clip-path: url(#clippath-5);
      }

      .st5 {
        font-family: MyriadPro-Regular, 'Myriad Pro';
        font-size: 10px;
      }

      .st9 {
        fill: #2f448b;
      }

      .st14 {
        fill: #00652c;
      }

      .st26 {
        opacity: .89;
      }

      .st27 {
        opacity: .69;
      }

      .st28 {
        fill: #1e2c66;
      }

      .st15 {
        fill: #00873f;
      }

      .st16 {
        fill: #b03d83;
      }

      .st29 {
        clip-path: url(#clippath);
      }
    </style>
    <clipPath id="clippath">
      <polygon class="st0" points="133.02 62.72 133.84 8.58 175.61 3.59 174.79 57.73 133.02 62.72"/>
    </clipPath>
    <clipPath id="clippath-1">
      <polygon class="st0" points="8.06 69.19 8.33 21.27 45.78 5.62 45.51 53.54 8.06 69.19"/>
    </clipPath>
    <clipPath id="clippath-2">
      <polygon class="st0" points="48.77 92.14 49.03 44.23 86.47 28.59 86.2 76.49 48.77 92.14"/>
    </clipPath>
    <clipPath id="clippath-3">
      <path class="st0" d="M187.53,30.06c2.75,5.44,11.57,10.23,24.08,13.07l-.51,29.49c-12.51-2.84-21.33-7.63-24.08-13.07.15-8.85.36-20.65.51-29.49Z"/>
    </clipPath>
    <clipPath id="clippath-4">
      <path class="st0" d="M151.26,61.74l.51-29.49c4.83,9.55,20.29,17.95,42.24,22.93l-.51,29.49c-21.94-4.99-37.41-13.38-42.24-22.93Z"/>
    </clipPath>
    <clipPath id="clippath-5">
      <polygon class="st0" points="171.26 90.41 171.53 42.51 208.96 26.86 208.69 74.76 171.26 90.41"/>
    </clipPath>
    <clipPath id="clippath-6">
      <polygon class="st0" points="291.98 97.69 292.25 49.77 329.68 34.12 329.41 82.05 291.98 97.69"/>
    </clipPath>
    <clipPath id="clippath-7">
      <polygon class="st0" points="257.84 69.88 258.66 15.75 300.43 10.76 299.61 64.89 257.84 69.88"/>
    </clipPath>
  </defs>
  <path class="st2" d="M202.86,66.81c-17.25-3.99-27.75-8.99-32.89-18.31"/>
  <line class="st3" x1="81.05" y1="68.57" x2="41.55" y2="45.82"/>
  <g>
    <polygon points="156.04 23.8 156.3 24.07 162.01 30.02 160.24 30.21 159.34 30.31 157.37 30.51 156.04 23.8"/>
    <polygon points="160.24 30.21 170.47 48.32 170.02 48.37 169.57 48.41 159.34 30.31 160.24 30.21"/>
  </g>
  <g class="st10">
    <g class="st10">
      <g class="st29">
        <g>
          <polyline class="st4" points="137.09 50.57 137.42 50.53 137.09 50.57"/>
          <path class="st4" d="M145.12,48.95l23.11-2.77v.62s1.05-.12,1.05-.12v-.03s0,.05,0,.07c0,.37-.24.69-.54.73l-23.64,2.84.02-1.33"/>
          <polyline class="st4" points="137.09 50.46 145.15 46.79 145.12 48.95 145.1 50.27 145.07 52.2 137.42 50.53 137.09 50.46"/>
          <polyline class="st4" points="169.33 12.56 169.33 12.15 169.33 12.56"/>
          <polyline class="st4" points="168.22 46.79 168.23 46.17 168.63 22.3 169.69 22.18 169.28 46.64 169.28 46.67 168.22 46.79"/>
          <polyline class="st4" points="167.1 22.48 169.33 12.56 169.42 12.14 171.4 21.98 169.69 22.18 168.63 22.3 167.1 22.48"/>
        </g>
      </g>
    </g>
  </g>
  <g>
    <line class="st4" x1="39.96" y1="45.57" x2="9.21" y2="26.82"/>
    <g>
      <line class="st1" x1="39.96" y1="45.57" x2="15.95" y2="30.92"/>
      <polygon class="st4" points="18.74 29.73 9.16 26.91 16.05 34.14 18.74 29.73"/>
    </g>
  </g>
  <g class="st10">
    <g class="st10">
      <g class="st19">
        <g>
          <polyline class="st4" points="11.61 57.39 11.91 57.26 11.61 57.39"/>
          <path class="st4" d="M18.81,53.79l20.71-8.67v.55s.94-.39.94-.39v-.03s0,.04,0,.06c0,.32-.21.67-.48.78l-21.19,8.87v-1.18"/>
          <polyline class="st4" points="11.61 57.29 18.81 51.89 18.81 53.79 18.8 54.97 18.79 56.67 11.91 57.26 11.61 57.29"/>
          <polyline class="st4" points="40.21 15.23 40.21 14.86 40.21 15.23"/>
          <polyline class="st4" points="39.51 45.67 39.52 45.12 39.67 23.99 40.62 23.6 40.46 45.25 40.46 45.28 39.51 45.67"/>
          <polyline class="st4" points="38.3 24.56 40.21 15.23 40.29 14.82 42.16 22.96 40.62 23.6 39.67 23.99 38.3 24.56"/>
        </g>
      </g>
    </g>
  </g>
  <text class="st5" transform="translate(29.26 103.52) rotate(-20)"><tspan x="0" y="0">Entrance</tspan></text>
  <g class="st26">
    <g class="st10">
      <polygon class="st15" points="91.31 46.32 91.31 78.97 65.98 89.6 65.98 56.95 91.31 46.32"/>
      <polygon class="st13" points="52.74 23.34 91.31 46.32 65.98 56.95 27.41 33.97 52.74 23.34"/>
      <polygon class="st14" points="27.41 33.97 65.98 56.95 65.98 89.6 27.41 66.62 27.41 33.97"/>
    </g>
  </g>
  <g class="st10">
    <g class="st10">
      <g class="st22">
        <g>
          <polyline class="st4" points="52.31 80.35 52.61 80.22 52.31 80.35"/>
          <path class="st4" d="M59.5,76.75l20.71-8.67v.55s.94-.39.94-.39v-.03s0,.04,0,.06c0,.32-.21.67-.48.78l-21.19,8.87v-1.17"/>
          <polyline class="st4" points="52.31 80.25 59.51 74.84 59.5 76.75 59.5 77.92 59.49 79.63 52.61 80.22 52.31 80.25"/>
          <polyline class="st4" points="80.91 38.18 80.91 37.81 80.91 38.18"/>
          <polyline class="st4" points="80.21 68.63 80.22 68.08 80.37 46.95 81.32 46.55 81.16 68.21 81.16 68.24 80.21 68.63"/>
          <polyline class="st4" points="79 47.52 80.91 38.18 80.99 37.78 82.85 45.92 81.32 46.55 80.37 46.95 79 47.52"/>
        </g>
      </g>
    </g>
  </g>
  <g>
    <line class="st4" x1="111.22" y1="86.82" x2="80.46" y2="68.07"/>
    <g>
      <line class="st1" x1="111.22" y1="86.82" x2="87.19" y2="72.17"/>
      <polygon class="st4" points="89.99 70.98 80.41 68.16 87.3 75.39 89.99 70.98"/>
    </g>
  </g>
  <text class="st5" transform="translate(10.44 76.43) rotate(-20)"><tspan x="0" y="0">Exit</tspan></text>
  <text/>
  <g class="st27">
    <g class="st10">
      <polygon class="st9" points="187.53 30.06 187.02 59.56 151.26 61.74 151.77 32.25 187.53 30.06"/>
      <g class="st10">
        <g class="st20">
          <g class="st8">
            <path class="st28" d="M187.53,30.06l-.51,29.49c1.88,3.71,6.57,7.12,13.33,9.81l.51-29.49c-6.76-2.69-11.46-6.1-13.33-9.81"/>
            <path class="st18" d="M200.86,39.87l-.51,29.49c1.3.52,2.68,1.01,4.14,1.47l.51-29.49c-1.45-.46-2.83-.96-4.14-1.47"/>
            <path class="st17" d="M205,41.35l-.51,29.49c1.15.37,2.34.71,3.58,1.04l.51-29.49c-1.24-.33-2.43-.68-3.58-1.04"/>
            <path class="st11" d="M208.57,42.39l-.51,29.49c.99.26,2,.51,3.03.75l.51-29.49c-1.04-.24-2.05-.48-3.03-.75"/>
          </g>
        </g>
      </g>
      <path class="st7" d="M151.26,61.74l35.76-2.19c2.75,5.44,11.57,10.23,24.08,13.07l-17.6,12.04c-21.94-4.99-37.41-13.38-42.24-22.93Z"/>
      <polygon class="st6" points="211.61 43.14 211.1 72.63 193.5 84.67 194 55.18 211.61 43.14"/>
      <g class="st10">
        <g class="st21">
          <g class="st8">
            <path class="st28" d="M151.26,61.74l.51-29.49c3.29,6.51,11.53,12.48,23.39,17.21l-.51,29.49c-11.86-4.72-20.09-10.7-23.39-17.21"/>
            <path class="st18" d="M174.64,78.95l.51-29.49c2.29.91,4.71,1.77,7.25,2.59l-.51,29.49c-2.55-.81-4.97-1.68-7.25-2.59"/>
            <path class="st17" d="M181.9,81.53l.51-29.49c2.01.64,4.11,1.25,6.28,1.83l-.51,29.49c-2.17-.58-4.26-1.19-6.28-1.83"/>
            <path class="st11" d="M188.17,83.36l.51-29.49c1.73.46,3.5.9,5.32,1.31l-.51,29.49c-1.82-.41-3.59-.85-5.32-1.31"/>
          </g>
        </g>
      </g>
      <path class="st7" d="M151.77,32.25l35.76-2.19c2.75,5.44,11.57,10.23,24.08,13.07l-17.6,12.04c-21.94-4.99-37.41-13.38-42.24-22.93Z"/>
    </g>
  </g>
  <g class="st10">
    <g class="st10">
      <g class="st25">
        <g>
          <polyline class="st4" points="174.8 78.62 175.1 78.49 174.8 78.62"/>
          <path class="st4" d="M182,75.02l20.71-8.67v.55s.94-.39.94-.39v-.03s0,.04,0,.06c0,.32-.21.67-.48.78l-21.19,8.87v-1.17"/>
          <polyline class="st4" points="174.8 78.52 182.01 73.12 182 75.02 181.99 76.2 181.98 77.9 175.1 78.49 174.8 78.52"/>
          <polyline class="st4" points="203.4 36.46 203.41 36.09 203.4 36.46"/>
          <polyline class="st4" points="202.71 66.9 202.71 66.35 202.87 45.22 203.81 44.83 203.65 66.48 203.65 66.51 202.71 66.9"/>
          <polyline class="st4" points="201.49 45.79 203.4 36.46 203.48 36.05 205.35 44.19 203.81 44.83 202.87 45.22 201.49 45.79"/>
        </g>
      </g>
    </g>
  </g>
  <g>
    <line class="st4" x1="229.77" y1="73.43" x2="202.52" y2="66.44"/>
    <g>
      <line class="st1" x1="229.77" y1="73.43" x2="210.16" y2="68.4"/>
      <polygon class="st4" points="212.48 66.44 202.5 66.55 211.2 71.44 212.48 66.44"/>
    </g>
  </g>
  <text class="st5" transform="translate(159.13 105.47) rotate(-30)"><tspan x="0" y="0">Entrance</tspan></text>
  <text class="st5" transform="translate(133.07 67) rotate(-14)"><tspan x="0" y="0">Exit</tspan></text>
  <text class="st5" transform="translate(6.03 54.53)"><tspan x="0" y="0">x</tspan></text>
  <text class="st5" transform="translate(42.52 15.97)"><tspan x="0" y="0">y</tspan></text>
  <text class="st5" transform="translate(5.22 34.32)"><tspan x="0" y="0">z</tspan></text>
  <text class="st5" transform="translate(151.11 22.67)"><tspan x="0" y="0">z</tspan></text>
  <text class="st5" transform="translate(172.42 16.02)"><tspan x="0" y="0">y</tspan></text>
  <text class="st5" transform="translate(134.61 48.01)"><tspan x="0" y="0">x</tspan></text>
  <text class="st5" transform="translate(2.55 9.6)"><tspan x="0" y="0">A) STRAIGHT</tspan></text>
  <text class="st5" transform="translate(132.73 8.72)"><tspan x="0" y="0">B) CIRCULAR</tspan></text>
  <text class="st5" transform="translate(276.15 105.86) rotate(-22)"><tspan x="0" y="0">Entrance</tspan></text>
  <g>
    <polygon class="st16" points="336.17 51.61 336.17 84.29 310.84 94.92 310.84 62.25 336.17 51.61"/>
    <g class="st10">
      <g class="st10">
        <g class="st24">
          <g>
            <polyline class="st4" points="295.52 85.9 295.82 85.77 295.52 85.9"/>
            <path class="st4" d="M302.72,82.3l20.71-8.67v.55s.94-.39.94-.39v-.03s0,.04,0,.06c0,.32-.21.67-.47.78l-21.19,8.87v-1.17"/>
            <polyline class="st4" points="295.52 85.8 302.73 80.4 302.72 82.3 302.71 83.48 302.7 85.18 295.82 85.77 295.52 85.8"/>
            <polyline class="st4" points="324.12 43.72 324.13 43.35 324.12 43.72"/>
            <polyline class="st4" points="323.43 74.18 323.43 73.63 323.59 52.48 324.53 52.09 324.37 73.76 324.37 73.79 323.43 74.18"/>
            <polyline class="st4" points="322.21 53.05 324.12 43.72 324.21 43.32 326.07 51.45 324.53 52.09 323.59 52.48 322.21 53.05"/>
          </g>
        </g>
      </g>
    </g>
    <g>
      <line class="st4" x1="346.77" y1="87.84" x2="323.69" y2="74.01"/>
      <g>
        <line class="st1" x1="346.77" y1="87.84" x2="330.45" y2="78.06"/>
        <polygon class="st4" points="333.23 76.84 323.63 74.1 330.58 81.28 333.23 76.84"/>
      </g>
    </g>
  </g>
  <text class="st5" transform="translate(261.45 70.82) rotate(-1)"><tspan x="0" y="0">Exit</tspan></text>
  <text class="st5" transform="translate(263.83 52.22)"><tspan x="0" y="0">x</tspan></text>
  <g>
    <g class="st10">
      <g class="st10">
        <g class="st23">
          <g>
            <polyline class="st4" points="261.9 57.74 262.24 57.7 261.9 57.74"/>
            <path class="st4" d="M269.94,56.11l23.11-2.77v.62s1.05-.12,1.05-.12v-.03s0,.05,0,.07c0,.37-.25.69-.54.73l-23.64,2.84.02-1.33"/>
            <polyline class="st4" points="261.91 57.63 269.97 53.96 269.94 56.11 269.92 57.44 269.89 59.36 262.24 57.7 261.91 57.63"/>
            <polyline class="st4" points="294.14 19.73 294.15 19.31 294.14 19.73"/>
            <polyline class="st4" points="293.04 53.96 293.05 53.34 293.45 29.47 294.51 29.34 294.09 53.81 294.09 53.84 293.04 53.96"/>
            <polyline class="st4" points="291.92 29.65 294.14 19.73 294.24 19.3 296.22 29.14 294.51 29.34 293.45 29.47 291.92 29.65"/>
          </g>
        </g>
      </g>
    </g>
    <text/>
    <g>
      <polygon points="279.61 30 279.86 30.27 285.58 36.23 283.81 36.42 282.91 36.51 280.94 36.72 279.61 30"/>
      <polygon points="283.81 36.42 294.03 54.53 293.14 54.62 282.91 36.51 283.81 36.42"/>
    </g>
    <polygon class="st12" points="310.81 39.34 310.34 69.07 277.46 70.88 277.93 41.15 310.81 39.34"/>
  </g>
  <text class="st5" transform="translate(260.41 10.36)"><tspan x="0" y="0">C) PATCH</tspan></text>
  <text class="st5" transform="translate(298.14 20.11)"><tspan x="0" y="0">y</tspan></text>
  <text class="st5" transform="translate(274.23 33.58)"><tspan x="0" y="0">z</tspan></text>
</svg>