<?xml version="1.0" encoding="UTF-8"?>
<svg id="Layer_1" xmlns="http://www.w3.org/2000/svg" version="1.1" viewBox="0 0 401.75 144.67">
  <defs>
    <style>
      .st0 {
        stroke-dasharray: 12.16 4.05;
      }

      .st0, .st1, .st2, .st3, .st4, .st5, .st6, .st7 {
        fill: none;
        stroke-width: 2px;
      }

      .st0, .st2, .st3, .st5, .st6 {
        stroke: #000;
      }

      .st0, .st3, .st5, .st6 {
        stroke-miterlimit: 10;
      }

      .st8 {
        font-family: MyriadPro-Regular, 'Myriad Pro';
        font-size: 15px;
      }

      .st1 {
        stroke: red;
      }

      .st1, .st2, .st4, .st7 {
        stroke-linecap: round;
        stroke-linejoin: round;
      }

      .st3 {
        stroke-dasharray: 12 4;
      }

      .st4 {
        stroke: blue;
      }

      .st6 {
        stroke-dasharray: 12.98 4.33;
      }

      .st7 {
        stroke: lime;
      }
    </style>
  </defs>
  <path class="st1" d="M1.8,52.59h.29M2.09,52.59h.29M2.38,52.59h.29M2.66,52.59h.29M2.95,52.59h.29M3.24,52.59h.29M3.53,52.59h.29M3.82,52.59l.29-.07M4.1,52.52h.29M4.39,52.52h.29M4.68,52.52l.29-.07M4.97,52.45h.29M5.26,52.45l.29-.07M5.54,52.38h.29M5.83,52.38l.29-.07M6.12,52.31l.29-.07M6.41,52.23h.29M6.7,52.23l.29-.07M6.98,52.16l.29-.07M7.27,52.09h.29M7.56,52.09l.29-.07M7.85,52.02l.29-.07M8.14,51.95l.29-.07M8.42,51.87l.29-.07M8.71,51.8l.29-.07M9,51.73l.22-.07M9.22,51.66l.29-.07M9.5,51.59l.29-.07M9.79,51.51l.29-.07M10.08,51.44l.29-.07M10.37,51.37l.29-.14M10.66,51.23l.29-.07M10.94,51.15l.22-.07M11.16,51.08l.29-.07M11.45,51.01l.29-.14M11.74,50.87l.29-.07M12.02,50.79l.29-.14M12.31,50.65l.22-.07M12.53,50.58l.29-.07M1.8,46.33h.22M2.02,46.33h.22M2.23,46.33h.22M2.45,46.33h.29M2.73,46.33h.22M2.95,46.33l.22-.07M3.17,46.26h.22M3.38,46.26h.22M3.6,46.26h.22M3.82,46.26l.29-.07M4.1,46.19h.22M4.32,46.19h.22M4.54,46.19l.22-.07M4.75,46.11h.22M4.97,46.11l.22-.07M5.18,46.04h.22M5.4,46.04l.22-.07M5.62,45.97h.29M5.9,45.97l.22-.07M6.12,45.9h.22M6.34,45.9l.22-.07M6.55,45.83l.22-.07M6.77,45.75h.22M6.98,45.75l.22-.07M7.2,45.68l.22-.07M7.42,45.61l.22-.07M7.63,45.54h.22M7.85,45.54l.22-.07M8.06,45.47l.22-.07M8.28,45.39l.22-.07M8.5,45.32l.22-.07M8.71,45.25l.22-.07M8.93,45.18l.22-.07M9.14,45.1l.22-.07M9.36,45.03l.22-.07M9.58,44.96l.22-.07M9.79,44.89l.22-.07M10.01,44.82l.22-.07M10.22,44.75l2.59-1.15M1.8,46.33v6.26M12.82,43.59v6.91"/>
  <path class="st2" d="M12.82,47.12l25.78-12.02M12.82,46.98l25.78-12.02M12.82,47.12v-.14M38.59,35.1v-.14"/>
  <path class="st1" d="M38.59,38.48l2.59-1.15M41.18,37.33l.22-.07M41.4,37.26l.22-.07M41.62,37.19l.22-.07M41.83,37.11l.22-.07M42.05,37.04l.22-.07M42.26,36.97l.22-.07M42.48,36.9l.22-.07M42.69,36.83l.22-.07M42.91,36.75l.22-.07M43.13,36.68l.22-.07M43.34,36.61l.22-.07M43.56,36.54l.22-.07M43.78,36.47l.22-.07M43.99,36.39h.22M44.21,36.39l.22-.07M44.42,36.32l.22-.07M44.64,36.25h.22M44.86,36.25l.22-.07M45.07,36.18l.22-.07M45.29,36.1h.29M45.58,36.1l.22-.07M45.79,36.03h.22M46.01,36.03l.22-.07M46.22,35.96h.22M46.44,35.96l.22-.07M46.66,35.89h.22M46.87,35.89h.22M47.09,35.89l.29-.07M47.38,35.82h.22M47.59,35.82h.22M47.81,35.82l.22-.07M48.02,35.75h.22M48.24,35.75h.22M48.46,35.75h.22M48.67,35.75h.29M48.96,35.75h.22M49.18,35.75h.22M49.39,35.75h.22M49.61,35.75h.22M49.82,35.75h.22M50.04,35.75h.29M50.33,35.75h.22M50.54,35.75h.22M50.76,35.75h.22M50.98,35.75h.22M51.19,35.75l.22.07M51.41,35.82h.22M51.62,35.82h.29M51.91,35.82l.22.07M52.13,35.89h.22M52.34,35.89h.22M52.56,35.89l.22.07M52.78,35.96h.22M52.99,35.96l.22.07M53.21,36.03h.22M53.42,36.03l.29.07M53.71,36.1h.22M53.93,36.1l.22.07M54.14,36.18l.22.07M54.36,36.25h.22M54.58,36.25l.22.07M54.79,36.32l.22.07M55.01,36.39h.22M55.22,36.39l.22.07M55.44,36.46l.22.07M55.66,36.54l.22.07M55.87,36.61l.22.07M56.09,36.68l.22.07M56.3,36.75l.22.07M56.52,36.82l.22.07M56.74,36.9l.22.07M56.95,36.97l.22.07M57.17,37.04l.22.07M57.38,37.11l.22.07M57.6,37.18l.22.07M57.82,37.26l.22.07M58.03,37.33l2.59,1.15M38.59,31.57l.29-.07M38.88,31.5l.22-.14M39.1,31.35l.29-.07M39.38,31.28l.29-.14M39.67,31.14l.29-.07M39.96,31.07l.29-.07M40.25,30.99l.22-.14M40.46,30.85l.29-.07M40.75,30.78l.29-.07M41.04,30.71l.29-.07M41.33,30.63l.29-.07M41.62,30.56l.29-.07M41.9,30.49l.29-.07M42.19,30.42l.22-.07M42.41,30.35l.29-.07M42.7,30.27l.29-.07M42.98,30.2l.29-.07M43.27,30.13l.29-.07M43.56,30.06l.29-.07M43.85,29.99l.29-.07M44.14,29.91h.29M44.42,29.91l.29-.07M44.71,29.84l.29-.07M45,29.77h.29M45.29,29.77l.29-.07M45.58,29.7h.29M45.86,29.7l.29-.07M46.15,29.62h.29M46.44,29.62l.29-.07M46.73,29.55h.29M47.02,29.55l.29-.07M47.3,29.48h.29M47.59,29.48h.29M47.88,29.48h.29M48.17,29.48h.29M48.46,29.48l.29-.07M48.74,29.41h.29M49.03,29.41h.29M49.32,29.41h.29M49.61,29.41h.29M49.9,29.41h.29M50.18,29.41h.29M50.47,29.41l.29.07M50.76,29.48h.29M51.05,29.48h.29M51.34,29.48h.29M51.62,29.48h.29M51.91,29.48l.29.07M52.2,29.55h.29M52.49,29.55l.29.07M52.78,29.62h.29M53.06,29.62l.29.07M53.35,29.7h.29M53.64,29.7l.29.07M53.93,29.77h.29M54.22,29.77l.29.07M54.5,29.84l.29.07M54.79,29.91h.29M55.08,29.91l.29.07M55.37,29.98l.29.07M55.66,30.06l.29.07M55.94,30.13l.29.07M56.23,30.2l.29.07M56.52,30.27l.29.07M56.81,30.34l.29.07M57.1,30.42l.22.07M57.31,30.49l.29.07M57.6,30.56l.29.07M57.89,30.63l.29.07M58.18,30.7l.29.07M58.46,30.78l.29.07M58.75,30.85l.29.14M59.04,30.99l.22.07M59.26,31.06l.29.07M59.54,31.14l.29.14M59.83,31.28l.29.07M60.12,31.35l.22.14M60.34,31.5l.29.07M38.59,31.57v6.91M60.62,31.57v6.91"/>
  <path class="st2" d="M60.62,35.1l25.78,12.02M60.62,34.95l25.78,12.02M60.62,35.1v-.14M86.4,47.12v-.14"/>
  <path class="st1" d="M86.4,50.51l.29.07M86.69,50.58l.29.07M86.98,50.65l.22.14M87.19,50.79l.29.07M87.48,50.87l.29.14M87.77,51.01l.29.07M88.06,51.08l.22.07M88.27,51.15l.29.07M88.56,51.23l.29.14M88.85,51.37l.29.07M89.13,51.44l.29.07M89.42,51.51l.29.07M89.71,51.59l.29.07M90,51.66l.29.07M90.29,51.73l.22.07M90.5,51.8l.29.07M90.79,51.87l.29.07M91.08,51.95l.29.07M91.37,52.02l.29.07M91.65,52.09h.29M91.94,52.09l.29.07M92.23,52.16l.29.07M92.52,52.23h.29M92.81,52.23l.29.07M93.1,52.31l.29.07M93.38,52.38h.29M93.67,52.38l.29.07M93.96,52.45h.29M94.25,52.45l.29.07M94.54,52.52h.29M94.82,52.52h.29M95.11,52.52l.29.07M95.4,52.59h.29M95.69,52.59h.29M95.98,52.59h.29M96.26,52.59h.29M96.55,52.59h.29M96.84,52.59h.29M97.13,52.59h.29M86.4,43.59l2.59,1.15M88.99,44.75l.22.07M89.21,44.82l.22.07M89.42,44.89l.22.07M89.64,44.96l.22.07M89.86,45.03l.22.07M90.07,45.11l.22.07M90.29,45.18l.22.07M90.5,45.25l.22.07M90.72,45.32l.22.07M90.94,45.39l.22.07M91.15,45.47l.22.07M91.37,45.54h.22M91.58,45.54l.22.07M91.8,45.61l.22.07M92.02,45.68l.22.07M92.23,45.75h.22M92.45,45.75l.22.07M92.66,45.83l.22.07M92.88,45.9h.22M93.1,45.9l.29.07M93.38,45.97h.22M93.6,45.97l.22.07M93.82,46.04h.22M94.03,46.04l.22.07M94.25,46.11h.22M94.46,46.11l.22.07M94.68,46.19h.22M94.9,46.19h.29M95.18,46.19l.22.07M95.4,46.26h.22M95.62,46.26h.22M95.83,46.26h.22M96.05,46.26l.22.07M96.26,46.33h.22M96.48,46.33h.29M96.77,46.33h.22M96.98,46.33h.22M97.2,46.33h.22M86.4,43.59v6.91M97.42,46.33v6.26"/>
  <path class="st2" d="M97.42,49.5h11.38M108.79,49.5h5.69M114.48,49.5h11.38M125.86,49.57h42.55M125.86,49.43h42.55M125.86,49.57v-.14M168.41,49.57v-.14"/>
  <path class="st7" d="M168.41,55.76h56.88M168.41,43.16h56.88M168.41,55.76v-12.6M225.29,55.76v-12.6M168.41,55.76l56.88-12.6M168.41,43.16l56.88,12.6"/>
  <path class="st2" d="M225.29,49.57h49.32M225.29,49.43h49.32M225.29,49.57v-.14M274.61,49.57v-.14M274.61,49.5h0M274.61,49.5h11.38M285.98,49.5h5.69M291.67,49.5h11.38"/>
  <path class="st1" d="M303.05,52.59h1.08M304.13,52.59h1.08M305.21,52.59h1.08M306.29,52.59l1.01-.07M307.29,52.52h1.08M308.37,52.52l1.08-.07M309.45,52.45l1.08-.07M310.53,52.38l1.01-.07M311.54,52.31l1.08-.07M312.62,52.23l1.08-.14M313.7,52.09l.72-.07M303.05,46.33h1.01M304.05,46.33h1.01M305.06,46.33l1.01-.07M306.07,46.26h1.01M307.08,46.26l1.01-.07M308.09,46.19h1.01M309.09,46.19l1.01-.07M310.1,46.11l.94-.07M311.04,46.04l1.01-.14M312.05,45.9l1.01-.07M313.05,45.83l1.37-.14M303.05,46.33v6.26M314.42,45.68v6.34"/>
  <path class="st2" d="M314.42,48.92l24.05-2.66M314.42,48.78l24.05-2.59M314.42,48.92v-.14M338.47,46.26v-.07"/>
  <path class="st1" d="M338.76,49.35l.5-.07M339.26,49.28h.5M339.77,49.28l.5-.07M340.27,49.21h.43M340.7,49.21l.5-.07M341.21,49.14h.5M341.71,49.14h.5M342.21,49.14l.43-.07M342.65,49.07h.5M343.15,49.07h.5M343.65,49.07h.5M338.11,43.09l.58-.07M338.69,43.02h.5M339.19,43.02l.58-.07M339.77,42.95l.5-.07M340.27,42.87h.58M340.85,42.87l.5-.07M341.35,42.8h.58M341.93,42.8h.58M342.5,42.8h.5M343.01,42.8h.58M343.58,42.8h.58M338.11,43.09l.65,6.26M344.16,42.8v6.26"/>
  <path class="st2" d="M344.16,45.97h5.69M344.16,45.83h5.69M344.16,45.97v-.14M349.85,45.97v-.14"/>
  <path class="st1" d="M349.85,49.07h.14M349.99,49.07h.14M350.13,49.07h.14M350.28,49.07h.14M350.42,49.07h.14M350.57,49.07h.14M350.71,49.07h.14M350.86,49.07l.14.07M351,49.14h.14M351.14,49.14h.14M351.29,49.14h.14M351.43,49.14h.14M351.57,49.14l.14.07M351.72,49.21h.14M351.86,49.21h.14M352.01,49.21l.14.07M352.15,49.28h.22M352.37,49.28h.14M352.51,49.28l.14.07M352.65,49.35h.14M352.8,49.35h.14M352.94,49.35l.14.07M353.09,49.43h.14M353.23,49.43l.14.07M353.37,49.5h.14M353.52,49.5l.14.07M353.66,49.57h.14M353.81,49.57l.14.07M353.95,49.64l.14.07M354.09,49.71h.14M354.24,49.71l.14.07M354.38,49.79h.14M354.53,49.79l.14.07M354.67,49.86l.07.07M354.74,49.93h.14M354.89,49.93l.14.07M355.03,50l.14.07M355.17,50.07l.14.07M355.32,50.14h.14M355.46,50.14l.14.07M355.61,50.22l.14.07M355.75,50.29l.14.07M355.9,50.36l.14.07M356.04,50.43l.14.07M356.18,50.5h.07M356.25,50.5l.14.07M356.4,50.58l.14.07M356.54,50.65l.14.07M356.69,50.72l.14.07M356.83,50.79l.14.07M356.97,50.86l.07.07M357.05,50.94l.14.07M357.19,51.01l.14.07M357.33,51.08l.14.07M357.48,51.15l.14.07M357.62,51.23l.07.07M357.69,51.3l.14.07M357.84,51.37l.14.14M357.98,51.51l.14.07M358.13,51.58l.07.07M358.2,51.66l.14.07M358.34,51.73l.14.07M358.49,51.8l.07.07M358.56,51.87l.14.14M358.7,52.02l.14.07M358.85,52.09l.07.07M358.92,52.16l.14.07M359.06,52.23l.14.14M359.21,52.38l.07.07M359.28,52.45l.14.07M359.42,52.52l.07.14M359.49,52.66l.14.07M359.64,52.74l.07.07M359.71,52.81l.14.14M359.86,52.95l.14.07M360,53.02l.07.07M360.07,53.1l.14.14M360.21,53.24l.07.07M360.29,53.31l.07.14M360.36,53.46l.14.07M360.5,53.53l.07.14M360.57,53.67l.14.07M360.72,53.74l.07.14M360.79,53.89l.14.07M360.93,53.96l.07.14M361.01,54.1l.07.07M361.08,54.18l.14.14M361.22,54.32l.07.07M361.29,54.39l.07.14M361.37,54.54l.14.14M361.51,54.68l.07.07M361.58,54.75l.07.14M361.65,54.9l.07.14M361.73,55.04l.14.07M361.87,55.11l.07.14M361.94,55.26l.07.14M362.01,55.4l.07.07M362.09,55.47l.07.14M362.16,55.62l.14.14M362.3,55.76l.07.07M362.37,55.83l.07.14M362.45,55.98l.07.14M362.52,56.12l.07.14M362.59,56.26l.07.07M362.66,56.34l.07.14M362.73,56.48l.07.14M362.81,56.62l.07.14M362.88,56.77l.07.14M362.95,56.91l.07.07M363.02,56.98l.07.14M363.09,57.13l.07.14M363.17,57.27l.07.14M363.24,57.42l.07.14M363.31,57.56l.07.14M363.38,57.7l.07.14M363.45,57.85v.07M363.45,57.92l.07.14M363.53,58.06l.07.14M363.6,58.21l.07.14M363.67,58.35l.07.14M363.74,58.5v.14M363.74,58.64l.07.14M363.82,58.78l.07.14M363.89,58.93l.07.14M363.96,59.07v.14M363.96,59.22l.07.14M364.03,59.36l.07.14M364.1,59.5v.14M364.1,59.65l.07.14M364.17,59.79v.14M364.17,59.94l.07.14M364.25,60.08v.14M364.25,60.22l.07.14M364.32,60.37v.14M364.32,60.51l.07.14M364.39,60.66v.14M364.39,60.8l.07.14M364.46,60.94v.14M364.46,61.09l.07.14M364.53,61.23v.14M364.53,61.37v.14M364.53,61.52l.07.14M364.61,61.66v.14M364.61,61.81v.14M364.61,61.95l.07.14M364.68,62.1v.14M364.68,62.24v.14M364.68,62.38v.14M364.68,62.53l.07.14M364.75,62.67v.14M364.75,62.81v.14M364.75,62.96v.14M364.75,63.1v.14M364.75,63.25v.14M364.75,63.39v.14M364.75,63.53v.22M364.75,63.75v.14M364.75,63.89v.14M349.85,42.73l.14.07M349.99,42.8h.22M350.21,42.8h.22M350.42,42.8h.22M350.64,42.8h.22M350.86,42.8h.22M351.07,42.8h.22M351.29,42.8h.22M351.5,42.8l.22.07M351.72,42.87h.22M351.93,42.87h.22M352.15,42.87l.22.07M352.37,42.95h.22M352.58,42.95h.22M352.8,42.95l.14.07M352.94,43.02h.22M353.16,43.02l.22.07M353.37,43.09h.22M353.59,43.09l.22.07M353.81,43.16h.22M354.02,43.16l.22.07M354.24,43.23l.22.07M354.45,43.31h.14M354.6,43.31l.22.07M354.82,43.38l.22.07M355.03,43.45h.22M355.25,43.45l.22.07M355.46,43.52l.22.07M355.68,43.59l.14.07M355.82,43.67h.22M356.04,43.67l.22.07M356.25,43.74l.22.07M356.47,43.81l.22.07M356.69,43.88l.14.07M356.83,43.95l.22.07M357.05,44.02l.22.07M357.26,44.1l.22.07M357.48,44.17l.14.07M357.62,44.24l.22.07M357.84,44.31l.22.07M358.05,44.39l.22.14M358.27,44.53l.14.07"/>
  <path class="st1" d="M358.41,44.6l.22.07M358.63,44.67l.22.07M358.85,44.75l.14.14M358.99,44.89l.22.07M359.21,44.96l.22.07M359.42,45.03l.14.07M359.57,45.1l.22.14M359.78,45.25l.14.07M359.93,45.32l.22.14M360.14,45.46l.14.07M360.29,45.54l.22.07M360.5,45.61l.22.14M360.72,45.75l.14.07M360.86,45.82l.22.14M361.08,45.97l.14.14M361.22,46.11l.22.07M361.44,46.18l.14.14M361.58,46.33l.14.07M361.73,46.4l.22.14M361.94,46.54l.14.14M362.09,46.69l.22.07M362.3,46.76l.14.14M362.45,46.9l.14.14M362.59,47.05l.22.14M362.81,47.19l.14.14M362.95,47.34l.14.07M363.09,47.41l.22.14M363.31,47.55l.14.14M363.45,47.7l.14.14M363.6,47.84l.14.14M363.74,47.98l.14.14M363.89,48.13l.22.14M364.1,48.27l.14.14M364.25,48.42l.14.14M364.39,48.56l.14.14M364.53,48.7l.14.14M364.68,48.85l.14.14M364.82,48.99l.14.14M364.97,49.14l.14.14M365.11,49.28l.14.14M365.25,49.42l.14.14M365.4,49.57l.14.22M365.54,49.78l.14.14M365.69,49.93l.14.14M365.83,50.07l.14.14M365.97,50.22l.14.14M366.12,50.36l.14.22M366.26,50.58l.14.14M366.41,50.72l.14.14M366.55,50.86l.07.22M366.62,51.08l.14.14M366.77,51.22l.14.14M366.91,51.37l.14.22M367.05,51.58l.07.14M367.13,51.73l.14.14M367.27,51.87l.14.22M367.41,52.09l.07.14M367.49,52.23l.14.22M367.63,52.45l.14.14M367.78,52.59l.07.22M367.85,52.81l.14.14M367.99,52.95l.07.22M368.06,53.17l.14.14M368.21,53.31l.07.22M368.28,53.53l.14.14M368.42,53.67l.07.22M368.49,53.89l.07.14M368.57,54.03l.14.22M368.71,54.25l.07.22M368.78,54.46l.07.14M368.86,54.61l.14.22M369,54.82l.07.22M369.07,55.04l.07.14M369.14,55.18l.07.22M369.21,55.4l.14.22M369.36,55.62l.07.14M369.43,55.76l.07.22M369.5,55.98l.07.22M369.57,56.19l.07.14M369.65,56.34l.07.22M369.72,56.55l.07.22M369.79,56.77l.07.22M369.86,56.98l.07.22M369.93,57.2l.07.14M370.01,57.34l.07.22M370.08,57.56l.07.22M370.15,57.78l.07.22M370.22,57.99v.22M370.22,58.21l.07.14M370.29,58.35l.07.22M370.37,58.57l.07.22M370.44,58.78v.22M370.44,59l.07.22M370.51,59.22l.07.22M370.58,59.43v.14M370.58,59.58l.07.22M370.65,59.79l.07.22M370.73,60.01v.22M370.73,60.22l.07.22M370.8,60.44v.22M370.8,60.66l.07.22M370.87,60.87v.22M370.87,61.09v.22M370.87,61.3l.07.14M370.94,61.45v.22M370.94,61.66v.22M370.94,61.88l.07.22M371.01,62.1v.22M371.01,62.31v.22M371.01,62.53v.22M371.01,62.74v.22M371.01,62.96l.07.22M371.09,63.18v.22M371.09,63.39v.22M371.09,63.61v.22M371.09,63.82v.22M349.85,42.73v6.34M371.09,64.04h-6.34"/>
  <path class="st2" d="M367.92,64.04v2.81M367.92,66.85v5.69M367.92,72.54v17.06M367.92,89.6v5.69M367.92,95.29v17.06M367.92,112.35v5.69M367.92,118.04v2.88"/>
  <path class="st1" d="M364.82,120.92v.14M364.82,121.06v.14M364.82,121.21l-.07.14M364.75,121.35v.14M364.75,121.5v.14M364.75,121.64v.14M364.75,121.79v.14M364.75,121.93v.14M364.75,122.07v.14M364.75,122.22v.14M364.75,122.36l-.07.14M364.68,122.51v.14M364.68,122.65v.14M364.68,122.79v.14M364.68,122.94l-.07.22M364.61,123.15v.14M364.61,123.3v.14M364.61,123.44l-.07.14M364.53,123.59v.14M364.53,123.73l-.07.14M364.46,123.87v.14M364.46,124.02v.14M364.46,124.16l-.07.14M364.39,124.31v.14M364.39,124.45l-.07.14M364.32,124.59v.14M364.32,124.74l-.07.14M364.25,124.88v.14M364.25,125.02l-.07.14M364.17,125.17l-.07.14M364.1,125.31v.14M364.1,125.46l-.07.14M364.03,125.6l-.07.14M363.96,125.74v.14M363.96,125.89l-.07.07M363.89,125.96l-.07.14M363.82,126.1v.14M363.82,126.25l-.07.14M363.74,126.39l-.07.14M363.67,126.54l-.07.14M363.6,126.68v.14M363.6,126.82l-.07.14M363.53,126.97l-.07.14M363.45,127.11l-.07.14M363.38,127.26l-.07.14M363.31,127.4l-.07.07M363.24,127.47l-.07.14M363.17,127.62l-.07.14M363.09,127.76l-.07.14M363.02,127.9l-.07.14M362.95,128.05l-.07.14M362.88,128.19l-.07.07M362.81,128.26l-.07.14M362.73,128.41l-.07.14M362.66,128.55l-.07.14M362.59,128.7l-.07.07M362.52,128.77l-.07.14M362.45,128.91l-.07.14M362.37,129.06l-.07.14M362.3,129.2l-.07.07M362.23,129.27l-.07.14M362.16,129.42l-.14.14M362.01,129.56l-.07.07M361.94,129.63l-.07.14M361.87,129.78l-.07.14M361.8,129.92l-.14.07M361.65,129.99l-.07.14M361.58,130.14l-.07.14M361.51,130.28l-.07.07M361.44,130.35l-.14.14M361.29,130.5l-.07.07M361.22,130.57l-.07.14M361.15,130.71l-.14.14M361.01,130.86l-.07.07M360.93,130.93l-.14.14M360.79,131.07l-.07.07M360.72,131.14l-.07.14M360.65,131.29l-.14.07M360.5,131.36l-.07.14M360.43,131.5l-.14.07M360.29,131.58l-.07.07M360.21,131.65l-.14.14M360.07,131.79l-.07.07M360,131.86l-.14.14M359.86,132.01l-.07.07M359.78,132.08l-.14.07M359.64,132.15l-.07.14M359.57,132.3l-.14.07M359.42,132.37l-.14.07M359.28,132.44l-.07.14M359.21,132.58l-.14.07M359.06,132.66l-.07.07M358.99,132.73l-.14.14M358.85,132.87l-.14.07M358.7,132.94l-.07.07M358.63,133.02l-.14.07M358.49,133.09l-.14.07M358.34,133.16l-.07.14M358.27,133.3l-.14.07M358.13,133.38l-.14.07M357.98,133.45l-.14.07M357.84,133.52l-.07.07M357.77,133.59l-.14.07M357.62,133.66l-.14.07M357.48,133.74l-.14.07M357.33,133.81l-.07.07M357.26,133.88l-.14.07M357.12,133.95l-.14.07M356.97,134.02l-.14.07M356.83,134.1l-.14.07M356.69,134.17l-.14.07M356.54,134.24l-.07.07M356.47,134.31l-.14.07M356.33,134.38l-.14.07M356.18,134.46l-.14.07M356.04,134.53l-.14.07M355.9,134.6h-.14M355.75,134.6l-.14.07M355.61,134.67l-.14.07M355.46,134.74l-.07.07M355.39,134.81l-.14.07M355.25,134.89h-.14M355.1,134.89l-.14.07M354.96,134.96l-.14.07M354.82,135.03h-.14M354.67,135.03l-.14.07M354.53,135.1l-.14.07M354.38,135.18h-.14M354.24,135.18l-.14.07M354.09,135.25h-.14M353.95,135.25l-.14.07M353.81,135.32l-.14.07M353.66,135.39h-.14M353.52,135.39l-.14.07M353.37,135.46h-.14M353.23,135.46h-.14M353.09,135.46l-.14.07M352.94,135.53h-.14M352.8,135.53l-.14.07M352.65,135.61h-.14M352.51,135.61h-.14M352.37,135.61l-.14.07M352.22,135.68h-.14M352.08,135.68h-.14M351.93,135.68l-.14.07M351.79,135.75h-.14M351.65,135.75h-.14M351.5,135.75h-.14M351.36,135.75l-.22.07M351.14,135.82h-.14M351,135.82h-.14M350.86,135.82h-.14M350.71,135.82h-.14M350.57,135.82h-.14M350.42,135.82h-.14M350.28,135.82h-.14M350.13,135.82h-.14M349.99,135.82h-.14M371.09,120.92v.22M371.09,121.14v.14M371.09,121.28v.22M371.09,121.5v.22M371.09,121.71v.22M371.09,121.93v.22M371.09,122.14l-.07.22M371.01,122.36v.22M371.01,122.58v.22M371.01,122.79v.22M371.01,123.01l-.07.22M370.94,123.23v.22M370.94,123.44v.22M370.94,123.66l-.07.22M370.87,123.87v.14M370.87,124.02l-.07.22M370.8,124.23v.22M370.8,124.45l-.07.22M370.73,124.67v.22M370.73,124.88l-.07.22M370.65,125.1v.22M370.65,125.31l-.07.22M370.58,125.53l-.07.22M370.51,125.75v.14M370.51,125.89l-.07.22M370.44,126.1l-.07.22M370.37,126.32l-.07.22M370.29,126.54v.22M370.29,126.75l-.07.22M370.22,126.97l-.07.14M370.15,127.11l-.07.22M370.08,127.33l-.07.22M370.01,127.55l-.07.22M369.93,127.76l-.07.22M369.86,127.98l-.07.14M369.79,128.12l-.07.22M369.72,128.34l-.07.22M369.65,128.55l-.07.22M369.57,128.77l-.07.14M369.5,128.91l-.07.22M369.43,129.13l-.07.22M369.36,129.35l-.07.14"/>
  <path class="st1" d="M369.29,129.49l-.07.22M369.21,129.7l-.14.22M369.07,129.92l-.07.14M369,130.06l-.07.22M368.93,130.28l-.14.22M368.78,130.5l-.07.14M368.71,130.64l-.07.22M368.64,130.86l-.14.14M368.49,131l-.07.22M368.42,131.22l-.07.22M368.35,131.43l-.14.14M368.21,131.58l-.07.22M368.13,131.79l-.14.14M367.99,131.94l-.07.22M367.92,132.15l-.14.14M367.78,132.3l-.14.22M367.63,132.51l-.07.14M367.56,132.66l-.14.14M367.41,132.8l-.14.22M367.27,133.02l-.07.14M367.2,133.16l-.14.22M367.05,133.38l-.14.14M366.91,133.52l-.07.14M366.84,133.66l-.14.22M366.69,133.88l-.14.14M366.55,134.02l-.14.14M366.41,134.17l-.14.22M366.26,134.38l-.14.14M366.12,134.53l-.07.14M366.05,134.67l-.14.14M365.9,134.82l-.14.22M365.76,135.03l-.14.14M365.61,135.18l-.14.14M365.47,135.32l-.14.14M365.33,135.46l-.14.14M365.18,135.61l-.14.14M365.04,135.75l-.14.14M364.9,135.9l-.14.14M364.75,136.04l-.22.22M364.53,136.26l-.14.14M364.39,136.4l-.14.14M364.25,136.54l-.14.14M364.1,136.69l-.14.07M363.96,136.76l-.14.14M363.82,136.9l-.22.14M363.6,137.05l-.14.14M363.45,137.19l-.14.14M363.31,137.34l-.14.14M363.17,137.48l-.22.14M362.95,137.62l-.14.14M362.81,137.77l-.14.07M362.66,137.84l-.22.14M362.45,137.98l-.14.14M362.3,138.13l-.14.14M362.16,138.27l-.22.07M361.94,138.34l-.14.14M361.8,138.49l-.22.14M361.58,138.63l-.14.07M361.44,138.7l-.22.14M361.22,138.85l-.14.07M361.08,138.92l-.22.14M360.86,139.06l-.14.07M360.72,139.14l-.22.14M360.5,139.28l-.14.07M360.36,139.35l-.22.14M360.14,139.5l-.14.07M360,139.57l-.22.14M359.78,139.71l-.22.07M359.57,139.78l-.14.07M359.42,139.86l-.22.14M359.21,140l-.14.07M359.06,140.07l-.22.07M358.85,140.14l-.22.07M358.63,140.22l-.14.14M358.49,140.36l-.22.07M358.27,140.43l-.22.07M358.05,140.5l-.14.07M357.91,140.58l-.22.07M357.69,140.65l-.22.07M357.48,140.72l-.22.07M357.26,140.79l-.14.07M357.12,140.86l-.22.07M356.9,140.94l-.22.07M356.69,141.01l-.22.07M356.47,141.08l-.22.07M356.25,141.15l-.14.07M356.11,141.22l-.22.07M355.9,141.3l-.22.07M355.68,141.37h-.22M355.46,141.37l-.22.07M355.25,141.44l-.14.07M355.1,141.51l-.22.07M354.89,141.58h-.22M354.67,141.58l-.22.07M354.45,141.66h-.22M354.24,141.66l-.22.07M354.02,141.73l-.22.07M353.81,141.8h-.22M353.59,141.8l-.14.07M353.45,141.87h-.22M353.23,141.87l-.22.07M353.01,141.94h-.22M352.8,141.94h-.22M352.58,141.94l-.22.07M352.37,142.02h-.22M352.15,142.02h-.22M351.93,142.02l-.22.07M351.72,142.09h-.22M351.5,142.09h-.22M351.29,142.09h-.14M351.14,142.09l-.22.07M350.93,142.16h-.22M350.71,142.16h-.22M350.49,142.16h-.22M350.28,142.16h-.22M350.06,142.16h-.22M371.09,120.92h-6.26M349.85,142.16v-6.34"/>
  <path class="st2" d="M349.85,138.99h0M349.85,138.99h-2.88M346.97,138.99h-5.69M341.28,138.99l-105.19.07M236.09,139.06h-5.69M230.4,139.06h-59.76M170.64,139.06h-5.69M164.95,139.06H59.76M59.76,139.06h-5.69M54.07,139.06h-2.88"/>
  <path class="st1" d="M51.19,135.97h-.14M51.05,135.97l-.14-.07M50.9,135.9h-.14M50.76,135.9h-.14M50.62,135.9h-.14M50.47,135.9h-.14M50.33,135.9h-.14M50.18,135.9h-.14M50.04,135.9h-.14M49.9,135.9h-.14M49.75,135.9l-.14-.07M49.61,135.83h-.14M49.46,135.83h-.14M49.32,135.83h-.14M49.18,135.83l-.14-.07M49.03,135.75h-.22M48.82,135.75h-.14M48.67,135.75l-.14-.07M48.53,135.68h-.14M48.38,135.68l-.14-.07M48.24,135.61h-.14M48.1,135.61h-.14M47.95,135.61l-.14-.07M47.81,135.54h-.14M47.66,135.54l-.14-.07M47.52,135.47h-.14M47.38,135.47l-.14-.07M47.23,135.39h-.14M47.09,135.39l-.14-.07M46.94,135.32l-.14-.07M46.8,135.25h-.14M46.66,135.25l-.14-.07M46.51,135.18l-.14-.07M46.37,135.1h-.07M46.3,135.1l-.14-.07M46.15,135.03l-.14-.07M46.01,134.96h-.14M45.86,134.96l-.14-.07M45.72,134.89l-.14-.07M45.58,134.82l-.14-.07M45.43,134.74h-.14M45.29,134.74l-.14-.07M45.14,134.67l-.14-.07M45,134.6l-.14-.07M44.86,134.53l-.07-.07M44.78,134.46l-.14-.07M44.64,134.39l-.14-.07M44.5,134.31l-.14-.07M44.35,134.24l-.14-.07M44.21,134.17l-.14-.07M44.06,134.1l-.07-.07M43.99,134.02l-.14-.07M43.85,133.95l-.14-.07M43.7,133.88l-.14-.07M43.56,133.81l-.14-.07M43.42,133.74l-.07-.07M43.34,133.66l-.14-.07M43.2,133.59l-.14-.07M43.06,133.52l-.14-.07M42.91,133.45l-.07-.07M42.84,133.38l-.14-.07M42.7,133.31l-.14-.14M42.55,133.16l-.07-.07M42.48,133.09l-.14-.07M42.34,133.02l-.14-.07M42.19,132.94l-.07-.14M42.12,132.8l-.14-.07M41.98,132.73l-.14-.07M41.83,132.66l-.07-.07M41.76,132.58l-.14-.14M41.62,132.44l-.07-.07M41.54,132.37l-.14-.07M41.4,132.3l-.07-.14M41.33,132.15l-.14-.07M41.18,132.08l-.14-.14M41.04,131.94l-.07-.07M40.97,131.86l-.14-.07M40.82,131.79l-.07-.14M40.75,131.65l-.14-.07M40.61,131.58l-.07-.14M40.54,131.43l-.07-.07M40.46,131.36l-.14-.14M40.32,131.22l-.07-.07M40.25,131.14l-.14-.14M40.1,131l-.07-.07M40.03,130.93l-.07-.14M39.96,130.78l-.14-.07M39.82,130.71l-.07-.14M39.74,130.57l-.07-.14M39.67,130.42l-.14-.07M39.53,130.35l-.07-.14M39.46,130.21l-.07-.07M39.38,130.14l-.07-.14M39.31,129.99l-.14-.14M39.17,129.85l-.07-.07M39.1,129.78l-.07-.14M39.02,129.63l-.07-.14M38.95,129.49l-.07-.07M38.88,129.42l-.14-.14M38.74,129.27l-.07-.14M38.66,129.13l-.07-.14M38.59,128.98l-.07-.07M38.52,128.91l-.07-.14M38.45,128.77l-.07-.14M38.38,128.62l-.07-.14M38.3,128.48l-.07-.07M38.23,128.41l-.07-.14M38.16,128.26l-.07-.14M38.09,128.12l-.07-.14M38.02,127.98l-.07-.14M37.94,127.83l-.07-.14M37.87,127.69l-.07-.07M37.8,127.62l-.07-.14M37.73,127.47l-.07-.14M37.66,127.33l-.07-.14M37.58,127.18l-.07-.14M37.51,127.04v-.14M37.51,126.9l-.07-.14M37.44,126.75l-.07-.14M37.37,126.61l-.07-.14M37.3,126.46v-.07M37.3,126.39l-.07-.14M37.22,126.25l-.07-.14M37.15,126.1l-.07-.14M37.08,125.96v-.14M37.08,125.82l-.07-.14M37.01,125.67l-.07-.14M36.94,125.53v-.14M36.94,125.38l-.07-.14M36.86,125.24v-.14M36.86,125.1l-.07-.14M36.79,124.95v-.14M36.79,124.81l-.07-.14M36.72,124.66v-.14M36.72,124.52l-.07-.14M36.65,124.38v-.14M36.65,124.23l-.07-.14M36.58,124.09v-.14M36.58,123.94l-.07-.14M36.5,123.8v-.14M36.5,123.66v-.14M36.5,123.51l-.07-.14M36.43,123.37v-.14M36.43,123.22v-.14M36.43,123.08l-.07-.14M36.36,122.94v-.14M36.36,122.79v-.14M36.36,122.65v-.22M36.36,122.43l-.07-.14M36.29,122.29v-.14M36.29,122.14v-.14M36.29,122v-.14M36.29,121.86v-.14M36.29,121.71v-.14M36.29,121.57v-.14M36.29,121.42v-.14M36.29,121.28v-.14M36.29,121.14v-.14M51.19,142.23h-.22M50.98,142.23h-.14M50.83,142.23h-.22M50.62,142.23h-.22M50.4,142.23h-.22M50.18,142.23h-.22M49.97,142.23l-.22-.07M49.75,142.16h-.22M49.54,142.16h-.22M49.32,142.16h-.22M49.1,142.16l-.22-.07M48.89,142.09h-.22M48.67,142.09h-.22M48.46,142.09l-.22-.07M48.24,142.02h-.14M48.09,142.02l-.22-.07M47.88,141.94h-.22M47.66,141.94l-.22-.07M47.45,141.87h-.22M47.23,141.87l-.22-.07M47.02,141.8h-.22M46.8,141.8l-.22-.07M46.58,141.73l-.22-.07M46.37,141.66h-.14M46.22,141.66l-.22-.07M46.01,141.59l-.22-.07M45.79,141.51l-.22-.07M45.57,141.44h-.22M45.36,141.44l-.22-.07M45.14,141.37l-.14-.07M45,141.3l-.22-.07M44.78,141.23l-.22-.07M44.57,141.15l-.22-.07M44.35,141.08l-.14-.07M44.21,141.01l-.22-.07M43.99,140.94l-.22-.07M43.78,140.86l-.22-.07M43.56,140.79l-.14-.07M43.42,140.72l-.22-.07M43.2,140.65l-.22-.07M42.98,140.58l-.22-.07M42.77,140.51l-.14-.07"/>
  <path class="st1" d="M42.62,140.43l-.22-.14M42.41,140.29l-.22-.07M42.19,140.22l-.14-.07M42.05,140.14l-.22-.07M41.83,140.07l-.22-.14M41.61,139.93l-.14-.07M41.47,139.86l-.22-.07M41.26,139.78l-.14-.14M41.11,139.64l-.22-.07M40.9,139.57l-.22-.14M40.68,139.43l-.14-.07M40.53,139.35l-.22-.07M40.32,139.28l-.14-.14M40.17,139.14l-.22-.14M39.96,138.99l-.14-.07M39.82,138.92l-.22-.14M39.6,138.78l-.14-.07M39.45,138.7l-.14-.14M39.31,138.56l-.22-.14M39.09,138.42l-.14-.07M38.95,138.35l-.22-.14M38.73,138.2l-.14-.14M38.59,138.06l-.14-.07M38.45,137.98l-.22-.14M38.23,137.84l-.14-.14M38.09,137.7l-.14-.14M37.94,137.55l-.22-.14M37.73,137.41l-.14-.14M37.58,137.27l-.14-.07M37.44,137.19l-.14-.14M37.3,137.05l-.22-.14M37.08,136.9l-.14-.14M36.94,136.76l-.14-.14M36.79,136.62l-.14-.14M36.65,136.47l-.14-.14M36.5,136.33l-.14-.14M36.36,136.19l-.14-.14M36.21,136.04l-.14-.14M36.07,135.9l-.14-.22M35.93,135.68l-.14-.14M35.78,135.54l-.14-.14M35.64,135.39l-.14-.14M35.5,135.25l-.14-.14M35.35,135.1l-.14-.14M35.21,134.96l-.14-.22M35.06,134.74l-.14-.14M34.92,134.6l-.14-.14M34.78,134.46l-.14-.14M34.63,134.31l-.14-.22M34.49,134.1l-.14-.14M34.34,133.95l-.07-.14M34.27,133.81l-.14-.22M34.13,133.59l-.14-.14M33.98,133.45l-.14-.14M33.84,133.3l-.07-.22M33.77,133.09l-.14-.14M33.62,132.94l-.07-.22M33.55,132.73l-.14-.14M33.41,132.58l-.14-.22M33.26,132.37l-.07-.14M33.19,132.22l-.14-.22M33.05,132.01l-.07-.14M32.98,131.86l-.14-.22M32.83,131.65l-.07-.14M32.76,131.5l-.14-.22M32.62,131.29l-.07-.14M32.54,131.14l-.14-.22M32.4,130.93l-.07-.22M32.33,130.71l-.07-.14M32.26,130.57l-.14-.22M32.11,130.35l-.07-.14M32.04,130.21l-.07-.22M31.97,129.99l-.07-.22M31.9,129.78l-.07-.14M31.82,129.63l-.14-.22M31.68,129.42l-.07-.22M31.61,129.2l-.07-.14M31.54,129.06l-.07-.22M31.46,128.84l-.07-.22M31.39,128.62l-.07-.22M31.32,128.41l-.07-.14M31.25,128.26l-.07-.22M31.18,128.05l-.07-.22M31.1,127.83l-.07-.22M31.03,127.62l-.07-.22M30.96,127.4l-.07-.14M30.89,127.26l-.07-.22M30.82,127.04v-.22M30.82,126.82l-.07-.22M30.74,126.61l-.07-.22M30.67,126.39l-.07-.14M30.6,126.25v-.22M30.6,126.03l-.07-.22M30.53,125.82l-.07-.22M30.46,125.6v-.22M30.46,125.38l-.07-.22M30.38,125.17l-.07-.22M30.31,124.95v-.22M30.31,124.74l-.07-.14M30.24,124.59v-.22M30.24,124.38l-.07-.22M30.17,124.16v-.22M30.17,123.94v-.22M30.17,123.73l-.07-.22M30.1,123.51v-.22M30.1,123.3v-.22M30.1,123.08l-.07-.22M30.02,122.86v-.22M30.02,122.65v-.22M30.02,122.43v-.22M30.02,122.22l-.07-.14M29.95,122.07v-.22M29.95,121.86v-.22M29.95,121.64v-.22M29.95,121.42v-.22M29.95,121.21v-.22M51.19,142.23v-6.26M29.95,120.99h6.34"/>
  <path class="st2" d="M33.12,120.99v-2.88M33.12,118.11v-5.69M33.12,112.43v-17.06M33.12,95.36v-5.69M33.12,89.67v-17.06M33.12,72.61v-5.69M33.12,66.92v-2.81"/>
  <path class="st1" d="M36.21,64.11v-.14M36.21,63.97v-.14M36.21,63.83v-.14M36.21,63.68l.07-.14M36.29,63.54v-.14M36.29,63.39v-.22M36.29,63.18v-.14M36.29,63.03v-.14M36.29,62.89v-.14M36.29,62.75v-.14M36.29,62.6l.07-.14M36.36,62.46v-.14M36.36,62.31v-.14M36.36,62.17v-.14M36.36,62.03l.07-.14M36.43,61.88v-.14M36.43,61.74v-.14M36.43,61.59l.07-.14M36.5,61.45v-.14M36.5,61.31v-.14M36.5,61.16l.07-.14M36.58,61.02v-.14M36.58,60.87l.07-.14M36.65,60.73v-.14M36.65,60.59l.07-.14M36.72,60.44v-.14M36.72,60.3l.07-.14M36.79,60.15v-.14M36.79,60.01l.07-.14M36.86,59.87l.07-.14M36.94,59.72v-.14M36.94,59.58l.07-.14M37.01,59.43v-.14M37.01,59.29l.07-.14M37.08,59.15l.07-.14M37.15,59l.07-.14M37.22,58.86v-.14M37.22,58.71l.07-.14M37.3,58.57l.07-.14M37.37,58.43l.07-.14M37.44,58.28v-.07M37.44,58.21l.07-.14M37.51,58.07l.07-.14M37.58,57.92l.07-.14M37.65,57.78l.07-.14M37.73,57.63l.07-.14M37.8,57.49l.07-.14M37.87,57.35l.07-.14M37.94,57.2l.07-.07M38.01,57.13l.07-.14M38.09,56.98l.07-.14M38.16,56.84l.07-.14M38.23,56.7l.07-.14M38.3,56.55l.07-.07M38.37,56.48l.07-.14M38.45,56.34l.07-.14M38.52,56.19l.07-.14M38.59,56.05l.07-.07M38.66,55.98l.07-.14M38.73,55.83l.07-.14M38.81,55.69l.07-.14M38.88,55.54l.14-.07M39.02,55.47l.07-.14M39.09,55.33l.07-.14M39.17,55.18l.07-.07M39.24,55.11l.14-.14M39.38,54.97l.07-.07M39.45,54.9l.07-.14M39.53,54.75l.07-.14M39.6,54.61l.14-.07M39.74,54.54l.07-.14M39.81,54.39l.07-.07M39.89,54.32l.14-.14M40.03,54.18l.07-.14M40.1,54.03l.07-.07M40.17,53.96l.14-.14M40.32,53.82l.07-.07M40.39,53.74l.14-.14M40.53,53.6l.07-.07M40.61,53.53l.14-.07M40.75,53.46l.07-.14M40.82,53.31l.14-.07M40.97,53.24l.07-.14M41.04,53.1l.14-.07M41.18,53.02l.07-.14M41.25,52.88l.14-.07M41.4,52.81l.07-.07M41.47,52.74l.14-.14M41.61,52.59l.14-.07M41.76,52.52l.07-.07M41.83,52.45l.14-.07M41.97,52.38l.07-.14M42.05,52.23l.14-.07M42.19,52.16l.14-.07M42.33,52.09l.07-.07M42.41,52.02l.14-.14M42.55,51.87l.14-.07M42.69,51.8l.07-.07M42.77,51.73l.14-.07M42.91,51.66l.14-.07M43.05,51.58l.14-.07M43.2,51.51l.07-.14M43.27,51.37l.14-.07M43.41,51.3l.14-.07M43.56,51.22l.14-.07M43.7,51.15l.07-.07M43.77,51.08l.14-.07M43.92,51.01l.14-.07M44.06,50.94l.14-.07M44.21,50.86l.14-.07M44.35,50.79l.14-.07M44.49,50.72l.07-.07M44.57,50.65h.14M44.71,50.65l.14-.07M44.85,50.58l.14-.07M45,50.5l.14-.07M45.14,50.43l.14-.07M45.29,50.36l.14-.07M45.43,50.29h.14M45.57,50.29l.07-.07M45.65,50.22l.14-.07M45.79,50.14l.14-.07M45.93,50.07h.14M46.08,50.07l.14-.07M46.22,50l.14-.07M46.37,49.93h.14M46.51,49.93l.14-.07M46.65,49.86l.14-.07M46.8,49.78h.14M46.94,49.78l.14-.07M47.09,49.71h.14M47.23,49.71l.14-.07M47.37,49.64l.14-.07M47.52,49.57h.14M47.66,49.57h.14M47.81,49.57l.14-.07M47.95,49.5h.14M48.09,49.5l.14-.07M48.24,49.42h.14M48.38,49.42l.14-.07M48.53,49.35h.14M48.67,49.35h.14M48.81,49.35l.14-.07M48.96,49.28h.14M49.1,49.28h.14M49.25,49.28h.14M49.39,49.28l.14-.07M49.53,49.21h.14M49.68,49.21h.22M49.89,49.21h.14M50.04,49.21h.14M50.18,49.21l.14-.07M50.33,49.14h.14M50.47,49.14h.14M50.61,49.14h.14M50.76,49.14h.14M50.9,49.14h.14M51.05,49.14h.14M29.95,64.11v-.22M29.95,63.9v-.22M29.95,63.68v-.22M29.95,63.47v-.22M29.95,63.25v-.22M29.95,63.03v-.22M29.95,62.82l.07-.22M30.02,62.6v-.22M30.02,62.39v-.14M30.02,62.24v-.22M30.02,62.03l.07-.22M30.1,61.81v-.22M30.1,61.59v-.22M30.1,61.38l.07-.22M30.17,61.16v-.22M30.17,60.94l.07-.22M30.24,60.73v-.22M30.24,60.51l.07-.22M30.31,60.3v-.22M30.31,60.08l.07-.14M30.38,59.94v-.22M30.38,59.72l.07-.22M30.46,59.5l.07-.22M30.53,59.29v-.22M30.53,59.07l.07-.22M30.6,58.86l.07-.22M30.67,58.64v-.14M30.67,58.5l.07-.22M30.74,58.28l.07-.22M30.82,58.06l.07-.22M30.89,57.85l.07-.22M30.96,57.63l.07-.14M31.03,57.49l.07-.22M31.1,57.27l.07-.22M31.17,57.06l.07-.22M31.25,56.84l.07-.22M31.32,56.62l.07-.14M31.39,56.48l.07-.22M31.46,56.26l.07-.22M31.54,56.05l.07-.14M31.61,55.9l.07-.22M31.68,55.69l.07-.22"/>
  <path class="st1" d="M31.75,55.47l.07-.22M31.82,55.26l.14-.14M31.97,55.11l.07-.22M32.04,54.9l.07-.14M32.11,54.75l.14-.22M32.26,54.54l.07-.22M32.33,54.32l.07-.14M32.4,54.18l.14-.22M32.54,53.96l.07-.14M32.62,53.82l.07-.22M32.69,53.6l.14-.22M32.83,53.38l.07-.14M32.9,53.24l.14-.22M33.05,53.02l.07-.14M33.12,52.88l.14-.22M33.26,52.66l.14-.14M33.41,52.52l.07-.22M33.48,52.3l.14-.14M33.62,52.16l.14-.14M33.77,52.02l.07-.22M33.84,51.8l.14-.14M33.98,51.66l.14-.22M34.13,51.44l.07-.14M34.2,51.3l.14-.14M34.34,51.15l.14-.22M34.49,50.94l.14-.14M34.63,50.79l.14-.14M34.78,50.65l.14-.14M34.92,50.5l.07-.22M34.99,50.29l.14-.14M35.14,50.14l.14-.14M35.28,50l.14-.14M35.42,49.86l.14-.14M35.57,49.71l.14-.22M35.71,49.5l.14-.14M35.86,49.35l.14-.14M36,49.21l.14-.14M36.14,49.06l.14-.14M36.29,48.92l.22-.14M36.5,48.78l.14-.14M36.65,48.63l.14-.14M36.79,48.49l.14-.14M36.94,48.34l.14-.14M37.08,48.2l.14-.14M37.22,48.06l.22-.14M37.44,47.91l.14-.14M37.58,47.77l.14-.14M37.73,47.62l.14-.07M37.87,47.55l.22-.14M38.09,47.41l.14-.14M38.23,47.26l.14-.14M38.38,47.12l.22-.14M38.59,46.98l.14-.07M38.73,46.9l.14-.14M38.88,46.76l.22-.14M39.1,46.62l.14-.07M39.24,46.54l.22-.14M39.46,46.4l.14-.14M39.6,46.26l.22-.07M39.82,46.18l.14-.14M39.96,46.04l.22-.07M40.17,45.97l.14-.14M40.32,45.82l.22-.07M40.54,45.75l.14-.14M40.68,45.61l.22-.07M40.9,45.54l.14-.14M41.04,45.39l.22-.07M41.26,45.32l.14-.07M41.4,45.25l.22-.14M41.62,45.1l.22-.07M41.83,45.03l.14-.07M41.98,44.96l.22-.14M42.19,44.82l.22-.07M42.41,44.74l.14-.07M42.55,44.67l.22-.07M42.77,44.6l.22-.07M42.98,44.53l.14-.07M43.13,44.46l.22-.14M43.34,44.31l.22-.07M43.56,44.24l.22-.07M43.78,44.17l.14-.07M43.92,44.1l.22-.07M44.14,44.02l.22-.07M44.35,43.95l.22-.07M44.57,43.88h.14M44.71,43.88l.22-.07M44.93,43.81l.22-.07M45.14,43.73l.22-.07M45.36,43.66l.22-.07M45.58,43.59l.22-.07M45.79,43.52h.14M45.94,43.52l.22-.07M46.15,43.45l.22-.07M46.37,43.37h.22M46.58,43.37l.22-.07M46.8,43.3l.22-.07M47.02,43.23h.22M47.23,43.23l.14-.07M47.38,43.16h.22M47.59,43.16l.22-.07M47.81,43.09h.22M48.02,43.09l.22-.07M48.24,43.02h.22M48.46,43.02h.22M48.67,43.02l.22-.07M48.89,42.94h.22M49.1,42.94h.22M49.32,42.94h.22M49.54,42.94l.22-.07M49.75,42.87h.14M49.9,42.87h.22M50.11,42.87h.22M50.33,42.87h.22M50.54,42.87h.22M50.76,42.87h.22M50.98,42.87h.22M29.95,64.11h6.26M51.19,42.87v6.26"/>
  <path class="st2" d="M51.19,46.04h5.69M51.19,45.9h5.69M51.19,46.04v-.14M56.88,46.04v-.14"/>
  <path class="st1" d="M56.88,49.14h.5M57.38,49.14h.5M57.89,49.14h.43M58.32,49.14l.5.07M58.82,49.21h.5M59.33,49.21h.5M59.83,49.21l.43.07M60.26,49.28h.5M60.77,49.28l.5.07M61.27,49.35h.43M61.7,49.35l.5.07M56.88,42.87h.58M57.46,42.87h.5M57.96,42.87h.58M58.54,42.87h.5M59.04,42.87l.58.07M59.62,42.95h.58M60.19,42.95h.5M60.69,42.95l.58.07M61.27,43.02l.5.07M61.78,43.09h.58M62.35,43.09l.58.07M56.88,42.87v6.26M62.93,43.16l-.72,6.26"/>
  <path class="st2" d="M62.57,46.33h0M62.57,46.33l23.83.72"/>
  <path class="st1" d="M86.4,50.51l.29.07M86.69,50.58l.29.07M86.98,50.65l.22.14M87.19,50.79l.29.07M87.48,50.87l.29.14M87.77,51.01l.29.07M88.06,51.08l.22.07M88.27,51.15l.29.07M88.56,51.23l.29.14M88.85,51.37l.29.07M89.13,51.44l.29.07M89.42,51.51l.29.07M89.71,51.59l.29.07M90,51.66l.29.07M90.29,51.73l.22.07M90.5,51.8l.29.07M90.79,51.87l.29.07M91.08,51.95l.29.07M91.37,52.02l.29.07M91.65,52.09h.29M91.94,52.09l.29.07M92.23,52.16l.29.07M92.52,52.23h.29M92.81,52.23l.29.07M93.1,52.31l.29.07M93.38,52.38h.29M93.67,52.38l.29.07M93.96,52.45h.29M94.25,52.45l.29.07M94.54,52.52h.29M94.82,52.52h.29M95.11,52.52l.29.07M95.4,52.59h.29M95.69,52.59h.29M95.98,52.59h.29M96.26,52.59h.29M96.55,52.59h.29M96.84,52.59h.29M97.13,52.59h.29M86.4,43.59l2.59,1.15M88.99,44.75l.22.07M89.21,44.82l.22.07M89.42,44.89l.22.07M89.64,44.96l.22.07M89.86,45.03l.22.07M90.07,45.11l.22.07M90.29,45.18l.22.07M90.5,45.25l.22.07M90.72,45.32l.22.07M90.94,45.39l.22.07M91.15,45.47l.22.07M91.37,45.54h.22M91.58,45.54l.22.07M91.8,45.61l.22.07M92.02,45.68l.22.07M92.23,45.75h.22M92.45,45.75l.22.07M92.66,45.83l.22.07M92.88,45.9h.22M93.1,45.9l.29.07M93.38,45.97h.22M93.6,45.97l.22.07M93.82,46.04h.22M94.03,46.04l.22.07M94.25,46.11h.22M94.46,46.11l.22.07M94.68,46.19h.22M94.9,46.19h.29M95.18,46.19l.22.07M95.4,46.26h.22M95.62,46.26h.22M95.83,46.26h.22M96.05,46.26l.22.07M96.26,46.33h.22M96.48,46.33h.29M96.77,46.33h.22M96.98,46.33h.22M97.2,46.33h.22M86.4,43.59v6.91M97.42,46.33v6.26"/>
  <path class="st2" d="M97.42,49.5h11.38M108.79,49.5h5.69M114.48,49.5h11.38M125.86,49.57h42.55M125.86,49.43h42.55M125.86,49.57v-.14M168.41,49.57v-.14"/>
  <path class="st7" d="M168.41,55.76h56.88M168.41,43.16h56.88M168.41,55.76v-12.6M225.29,55.76v-12.6M168.41,55.76l56.88-12.6M168.41,43.16l56.88,12.6"/>
  <path class="st2" d="M225.29,49.57h49.32M225.29,49.43h49.32M225.29,49.57v-.14M274.61,49.57v-.14M274.61,49.5h0M274.61,49.5h11.38M285.98,49.5h5.69M291.67,49.5h11.38"/>
  <path class="st1" d="M303.05,52.59h1.08M304.13,52.59h1.08M305.21,52.59h1.08M306.29,52.59l1.01-.07M307.29,52.52h1.08M308.37,52.52l1.08-.07M309.45,52.45l1.08-.07M310.53,52.38l1.01-.07M311.54,52.31l1.08-.07M312.62,52.23l1.08-.14M313.7,52.09l.72-.07M303.05,46.33h1.01M304.05,46.33h1.01M305.06,46.33l1.01-.07M306.07,46.26h1.01M307.08,46.26l1.01-.07M308.09,46.19h1.01M309.09,46.19l1.01-.07M310.1,46.11l.94-.07M311.04,46.04l1.01-.14M312.05,45.9l1.01-.07M313.05,45.83l1.37-.14M303.05,46.33v6.26M314.42,45.68v6.34"/>
  <path class="st2" d="M314.42,48.85h0M314.42,48.92l25.42-12.89M314.35,48.78l25.42-12.82M314.42,48.92l-.07-.14M339.84,36.03l-.07-.07"/>
  <path class="st1" d="M339.91,39.49l2.52-1.22M342.43,38.27l.22-.14M342.65,38.12l.22-.07M342.86,38.05l.22-.07M343.08,37.98l.22-.07M343.29,37.91l.22-.07M343.51,37.83l.22-.07M343.73,37.76l.22-.14M343.94,37.62l.22-.07M344.16,37.55l.22-.07M344.37,37.47l.22-.07M344.59,37.4l.22-.07M344.81,37.33h.22M345.02,37.33l.22-.07M345.24,37.26l.22-.07M345.45,37.19l.22-.07M345.67,37.11l.22-.07M345.89,37.04l.22-.07M346.1,36.97h.22M346.32,36.97l.22-.07M346.53,36.9l.22-.07M346.75,36.83h.22M346.97,36.83l.22-.07M347.18,36.75l.22-.07M347.4,36.68h.22M347.61,36.68l.29-.07M347.9,36.61h.22M348.12,36.61l.22-.07M348.33,36.54h.22M348.55,36.54h.22M348.77,36.54l.22-.07M348.98,36.46h.22M349.2,36.46h.29M349.49,36.46l.22-.07M349.7,36.39h.22M349.92,36.39h.22M350.13,36.39h.22M350.35,36.39l.22-.07M350.57,36.32h.22M350.78,36.32h.29M351.07,36.32h.22M351.29,36.32h.22M351.5,36.32h.22M351.72,36.32h.22M351.93,36.32h.22M352.15,36.32h.29M352.44,36.32l.22.07M352.65,36.39h.22M352.87,36.39h.22M353.09,36.39h.22M353.3,36.39h.22M353.52,36.39l.22.07M353.73,36.46h.29M354.02,36.46h.22M354.24,36.46l.22.07M354.45,36.54h.22M354.67,36.54l.22.07M354.89,36.61h.22M355.1,36.61l.22.07M355.32,36.68h.22M355.53,36.68l.29.07M355.82,36.75h.22M356.04,36.75l.22.07M356.25,36.82l.22.07M356.47,36.9h.22M356.69,36.9l.22.07M356.9,36.97l.22.07M357.12,37.04h.22M357.33,37.04l.22.07M357.55,37.11l.22.07M357.77,37.18l.22.07M357.98,37.26l.22.07M358.2,37.33l.22.07M358.41,37.4l.22.07M358.63,37.47l.22.07M358.85,37.54l.22.07M359.06,37.62l.22.07M359.28,37.69l2.66,1.08M339.69,32.51l.22-.07M339.91,32.43l.29-.07M340.2,32.36l.29-.14M340.49,32.22l.22-.07M340.7,32.15l.29-.14M340.99,32l.29-.07M341.28,31.93l.29-.14M341.57,31.79l.22-.07M341.78,31.71l.29-.07M342.07,31.64l.29-.14M342.36,31.5l.29-.07M342.65,31.43l.29-.07M342.93,31.35l.29-.07M343.22,31.28l.22-.07M343.44,31.21l.29-.14M343.73,31.06l.29-.07M344.01,30.99l.29-.07M344.3,30.92l.29-.07M344.59,30.85l.29-.07M344.88,30.78h.29M345.17,30.78l.29-.07M345.45,30.71l.29-.07M345.74,30.63l.29-.07M346.03,30.56l.29-.07M346.32,30.49h.29M346.61,30.49l.29-.07M346.9,30.42l.22-.07M347.11,30.35h.29M347.4,30.35l.29-.07M347.69,30.27h.29M347.97,30.27l.29-.07M348.26,30.2h.29M348.55,30.2l.29-.07M348.84,30.13h.29M349.13,30.13h.29M349.41,30.13h.29M349.7,30.13l.36-.07M350.06,30.06h.29M350.35,30.06h.29M350.64,30.06h.29M350.93,30.06h.29M351.21,30.06h.29M351.5,30.06h.29M351.79,30.06h.29M352.08,30.06h.29M352.37,30.06h.29M352.65,30.06h.29M352.94,30.06h.29M353.23,30.06l.29.07M353.52,30.13h.29M353.81,30.13h.29M354.09,30.13l.29.07M354.38,30.2h.29M354.67,30.2h.29M354.96,30.2l.29.07M355.25,30.27h.29M355.53,30.27l.29.07M355.82,30.34l.29.07M356.11,30.42h.29M356.4,30.42l.29.07M356.69,30.49l.29.07M356.97,30.56h.29M357.26,30.56l.29.07M357.55,30.63l.29.07M357.84,30.7l.22.07M358.05,30.78l.29.07M358.34,30.85l.29.07M358.63,30.92l.29.07M358.92,30.99l.29.07M359.21,31.06l.29.07M359.49,31.14l.29.07M359.78,31.21l.29.07M360.07,31.28l.22.07M360.29,31.35l.29.14M360.57,31.5l.29.07M360.86,31.57l.29.07M361.15,31.64l.29.07M361.44,31.71l.22.07M339.69,32.51l.22,6.98M361.65,31.79l.29,6.98"/>
  <path class="st2" d="M361.8,35.31l26.14,11.16M361.8,35.24l26.21,11.16M361.8,35.31v-.07M387.93,46.47l.07-.07"/>
  <path class="st1" d="M388.08,49.93l.29.07M388.37,50l.22.07M388.58,50.07l.29.07M388.87,50.15l.29.14M389.16,50.29l.29.07M389.45,50.36l.29.07M389.73,50.43l.29.07M390.02,50.51l.22.07M390.24,50.58l.29.07M390.53,50.65l.29.07M390.82,50.72l.29.07M391.1,50.79l.29.07M391.39,50.87l.29.07M391.68,50.94l.29.07M391.97,51.01l.29.07M392.25,51.08l.29.07M392.54,51.15l.29.07M392.83,51.23h.29M393.12,51.23l.29.07M393.41,51.3l.29.07M393.69,51.37h.29M393.98,51.37l.29.07M394.27,51.44h.29M394.56,51.44l.29.07M394.85,51.51h.29M395.13,51.51l.29.07M395.42,51.58h.29M395.71,51.58h.29M396,51.58l.29.07M396.29,51.66h.29M396.57,51.66h.29M396.86,51.66h.29M397.15,51.66h.29M397.44,51.66h.29M397.73,51.66l.29.07M398.01,51.73h.29M398.3,51.73l.29-.07M398.59,51.66h.29M398.88,51.66h.29M387.86,42.95l2.59,1.08M390.45,44.03l.22.07M390.67,44.1l.22.07M390.89,44.17l.22.07M391.1,44.24l.22.07M391.32,44.31l.22.07M391.53,44.39l.22.07M391.75,44.46l.22.07M391.97,44.53l.22.07M392.18,44.6l.22.07M392.4,44.67l.22.07M392.61,44.75h.22M392.83,44.75l.22.07M393.05,44.82l.29.07M393.33,44.89h.22M393.55,44.89l.22.07M393.77,44.96l.22.07M393.98,45.03h.22M394.2,45.03l.22.07M394.41,45.1h.22M394.63,45.1l.22.07M394.85,45.18h.22M395.06,45.18h.29M395.35,45.18l.22.07M395.57,45.25h.22M395.78,45.25l.22.07M396,45.32h.22M396.21,45.32h.22M396.43,45.32h.22M396.65,45.32l.29.07M396.93,45.39h.22M397.15,45.39h.22M397.37,45.39h.22M397.58,45.39h.22M397.8,45.39h.22M398.01,45.39h.22M398.23,45.39h.29M398.52,45.39h.22M398.73,45.39h.22M387.86,42.95l.22,6.98M398.95,45.39l.22,6.26"/>
  <path class="st2" d="M399.02,48.56h0M97.42,49.57h28.44M97.42,49.43h28.44M97.42,49.57v-.14M125.86,49.57v-.14"/>
  <path class="st4" d="M108.79,52.59h5.69M108.79,46.33h5.69M108.79,52.59v-6.26M114.48,52.59v-6.26"/>
  <path class="st2" d="M97.42,49.57h28.44M97.42,49.43h28.44M97.42,49.57v-.14M125.86,49.57v-.14"/>
  <path class="st4" d="M108.79,52.59h5.69M108.79,46.33h5.69M108.79,52.59v-6.26M114.48,52.59v-6.26"/>
  <path class="st2" d="M274.61,49.57h28.44M274.61,49.43h28.44M274.61,49.57v-.14M303.05,49.57v-.14"/>
  <path class="st4" d="M285.98,52.59h5.69M285.98,46.33h5.69M285.98,52.59v-6.26M291.67,52.59v-6.26"/>
  <path class="st2" d="M274.61,49.57h28.44M274.61,49.43h28.44M274.61,49.57v-.14M303.05,49.57v-.14"/>
  <path class="st4" d="M285.98,52.59h5.69M285.98,46.33h5.69M285.98,52.59v-6.26M291.67,52.59v-6.26"/>
  <path class="st2" d="M367.85,64.04v56.88M367.99,64.04v56.88M367.85,64.04h.14M367.85,120.92h.14"/>
  <path class="st4" d="M364.75,66.85v5.69M371.09,66.85v5.69M364.75,66.85h6.34M364.75,72.54h6.34M364.75,89.6v5.69M371.09,89.6v5.69M364.75,89.6h6.34M364.75,95.29h6.34M364.82,112.35v5.69M371.09,112.35v5.69M364.82,112.35h6.26M364.82,118.04h6.26"/>
  <path class="st2" d="M349.85,138.92l-298.66.07M349.85,139.06l-298.66.07M349.85,138.92v.14M51.19,138.99v.14"/>
  <path class="st4" d="M346.97,135.83h-5.69M346.97,142.16h-5.69M346.97,135.83v6.34M341.28,135.83v6.34M236.09,135.9h-5.69M236.09,142.16h-5.69M236.09,135.9v6.26M230.4,135.9v6.26M170.64,135.9h-5.69M170.64,142.23h-5.69M170.64,135.9v6.34M164.95,135.9v6.34M59.76,135.9l-5.69.07M59.76,142.23h-5.69M59.76,135.9v6.34M54.07,135.97v6.26"/>
  <path class="st2" d="M33.19,120.99v-56.88M33.05,120.99v-56.88M33.19,120.99h-.14M33.19,64.11h-.14"/>
  <path class="st4" d="M36.29,118.11v-5.69M29.95,118.11v-5.69M36.29,118.11h-6.34M36.29,112.43h-6.34M36.29,95.36v-5.69M29.95,95.36v-5.69M36.29,95.36h-6.34M36.29,89.67h-6.34M36.21,72.61v-5.69M29.95,72.61v-5.69M36.21,72.61h-6.26M36.21,66.92h-6.26"/>
  <path class="st1" d="M86.4,50.51l.29.07M86.69,50.58l.29.07M86.98,50.65l.22.14M87.19,50.79l.29.07M87.48,50.87l.29.14M87.77,51.01l.29.07M88.06,51.08l.22.07M88.27,51.15l.29.07M88.56,51.23l.29.14M88.85,51.37l.29.07M89.13,51.44l.29.07M89.42,51.51l.29.07M89.71,51.59l.29.07M90,51.66l.29.07M90.29,51.73l.22.07M90.5,51.8l.29.07M90.79,51.87l.29.07M91.08,51.95l.29.07M91.37,52.02l.29.07M91.65,52.09h.29M91.94,52.09l.29.07M92.23,52.16l.29.07M92.52,52.23h.29M92.81,52.23l.29.07M93.1,52.31l.29.07M93.38,52.38h.29M93.67,52.38l.29.07M93.96,52.45h.29M94.25,52.45l.29.07M94.54,52.52h.29M94.82,52.52h.29M95.11,52.52l.29.07M95.4,52.59h.29M95.69,52.59h.29M95.98,52.59h.29M96.26,52.59h.29M96.55,52.59h.29M96.84,52.59h.29M97.13,52.59h.29M86.4,43.59l2.59,1.15M88.99,44.75l.22.07M89.21,44.82l.22.07M89.42,44.89l.22.07M89.64,44.96l.22.07M89.86,45.03l.22.07M90.07,45.11l.22.07M90.29,45.18l.22.07M90.5,45.25l.22.07M90.72,45.32l.22.07M90.94,45.39l.22.07M91.15,45.47l.22.07M91.37,45.54h.22M91.58,45.54l.22.07M91.8,45.61l.22.07M92.02,45.68l.22.07M92.23,45.75h.22M92.45,45.75l.22.07M92.66,45.83l.22.07M92.88,45.9h.22M93.1,45.9l.29.07M93.38,45.97h.22M93.6,45.97l.22.07M93.82,46.04h.22M94.03,46.04l.22.07M94.25,46.11h.22M94.46,46.11l.22.07M94.68,46.19h.22M94.9,46.19h.29M95.18,46.19l.22.07M95.4,46.26h.22M95.62,46.26h.22M95.83,46.26h.22M96.05,46.26l.22.07M96.26,46.33h.22M96.48,46.33h.29M96.77,46.33h.22M96.98,46.33h.22M97.2,46.33h.22M86.4,43.59v6.91M97.42,46.33v6.26M86.4,50.51l.29.07M86.69,50.58l.29.07M86.98,50.65l.22.14M87.19,50.79l.29.07M87.48,50.87l.29.14M87.77,51.01l.29.07M88.06,51.08l.22.07M88.27,51.15l.29.07M88.56,51.23l.29.14M88.85,51.37l.29.07M89.13,51.44l.29.07M89.42,51.51l.29.07M89.71,51.59l.29.07M90,51.66l.29.07M90.29,51.73l.22.07M90.5,51.8l.29.07M90.79,51.87l.29.07M91.08,51.95l.29.07M91.37,52.02l.29.07M91.65,52.09h.29M91.94,52.09l.29.07M92.23,52.16l.29.07M92.52,52.23h.29M92.81,52.23l.29.07M93.1,52.31l.29.07M93.38,52.38h.29M93.67,52.38l.29.07M93.96,52.45h.29M94.25,52.45l.29.07M94.54,52.52h.29M94.82,52.52h.29M95.11,52.52l.29.07M95.4,52.59h.29M95.69,52.59h.29M95.98,52.59h.29M96.26,52.59h.29M96.55,52.59h.29M96.84,52.59h.29M97.13,52.59h.29M86.4,43.59l2.59,1.15M88.99,44.75l.22.07M89.21,44.82l.22.07M89.42,44.89l.22.07M89.64,44.96l.22.07M89.86,45.03l.22.07M90.07,45.11l.22.07M90.29,45.18l.22.07M90.5,45.25l.22.07M90.72,45.32l.22.07M90.94,45.39l.22.07M91.15,45.47l.22.07M91.37,45.54h.22M91.58,45.54l.22.07M91.8,45.61l.22.07M92.02,45.68l.22.07M92.23,45.75h.22M92.45,45.75l.22.07M92.66,45.83l.22.07M92.88,45.9h.22M93.1,45.9l.29.07M93.38,45.97h.22M93.6,45.97l.22.07M93.82,46.04h.22M94.03,46.04l.22.07M94.25,46.11h.22M94.46,46.11l.22.07M94.68,46.19h.22M94.9,46.19h.29M95.18,46.19l.22.07M95.4,46.26h.22M95.62,46.26h.22M95.83,46.26h.22M96.05,46.26l.22.07M96.26,46.33h.22M96.48,46.33h.29M96.77,46.33h.22M96.98,46.33h.22M97.2,46.33h.22M86.4,43.59v6.91M97.42,46.33v6.26"/>
  <path class="st2" d="M125.86,49.57h42.55M125.86,49.43h42.55M125.86,49.57v-.14M168.41,49.57v-.14M125.86,49.57h42.55M125.86,49.43h42.55M125.86,49.57v-.14M168.41,49.57v-.14"/>
  <path class="st7" d="M168.41,55.76h56.88M168.41,43.16h56.88M168.41,55.76v-12.6M225.29,55.76v-12.6M168.41,55.76l56.88-12.6M168.41,43.16l56.88,12.6M168.41,55.76h56.88M168.41,43.16h56.88M168.41,55.76v-12.6M225.29,55.76v-12.6M168.41,55.76l56.88-12.6M168.41,43.16l56.88,12.6"/>
  <path class="st2" d="M225.29,49.57h49.32M225.29,49.43h49.32M225.29,49.57v-.14M274.61,49.57v-.14M225.29,49.57h49.32M225.29,49.43h49.32M225.29,49.57v-.14M274.61,49.57v-.14"/>
  <path class="st1" d="M303.05,52.59h1.08M304.13,52.59h1.08M305.21,52.59h1.08M306.29,52.59l1.01-.07M307.29,52.52h1.08M308.37,52.52l1.08-.07M309.45,52.45l1.08-.07M310.53,52.38l1.01-.07M311.54,52.31l1.08-.07M312.62,52.23l1.08-.14M313.7,52.09l.72-.07M303.05,46.33h1.01M304.05,46.33h1.01M305.06,46.33l1.01-.07M306.07,46.26h1.01M307.08,46.26l1.01-.07M308.09,46.19h1.01M309.09,46.19l1.01-.07M310.1,46.11l.94-.07M311.04,46.04l1.01-.14M312.05,45.9l1.01-.07M313.05,45.83l1.37-.14M303.05,46.33v6.26M314.42,45.68v6.34M303.05,52.59h1.08M304.13,52.59h1.08M305.21,52.59h1.08M306.29,52.59l1.01-.07M307.29,52.52h1.08M308.37,52.52l1.08-.07M309.45,52.45l1.08-.07M310.53,52.38l1.01-.07M311.54,52.31l1.08-.07M312.62,52.23l1.08-.14M313.7,52.09l.72-.07M303.05,46.33h1.01M304.05,46.33h1.01M305.06,46.33l1.01-.07M306.07,46.26h1.01M307.08,46.26l1.01-.07M308.09,46.19h1.01M309.09,46.19l1.01-.07M310.1,46.11l.94-.07M311.04,46.04l1.01-.14M312.05,45.9l1.01-.07M313.05,45.83l1.37-.14M303.05,46.33v6.26M314.42,45.68v6.34"/>
  <path class="st2" d="M97.42,49.57h28.44M97.42,49.43h28.44M97.42,49.57v-.14M125.86,49.57v-.14M97.42,49.57h28.44M97.42,49.43h28.44M97.42,49.57v-.14M125.86,49.57v-.14"/>
  <path class="st4" d="M108.79,52.59h5.69M108.79,46.33h5.69M108.79,52.59v-6.26M114.48,52.59v-6.26M108.79,52.59h5.69M108.79,46.33h5.69M108.79,52.59v-6.26M114.48,52.59v-6.26"/>
  <path class="st2" d="M274.61,49.57h28.44M274.61,49.43h28.44M274.61,49.57v-.14M303.05,49.57v-.14M274.61,49.57h28.44M274.61,49.43h28.44M274.61,49.57v-.14M303.05,49.57v-.14"/>
  <path class="st4" d="M285.98,52.59h5.69M285.98,46.33h5.69M285.98,52.59v-6.26M291.67,52.59v-6.26M285.98,52.59h5.69M285.98,46.33h5.69M285.98,52.59v-6.26M291.67,52.59v-6.26"/>
  <text class="st8" transform="translate(184.02 79.81)"><tspan x="0" y="0">Linac</tspan></text>
  <text class="st8" transform="translate(24.35 12.56)"><tspan x="0" y="0">Injector</tspan></text>
  <text class="st8" transform="translate(189.27 125.47)"><tspan x="0" y="0">Arc</tspan></text>
  <text class="st8" transform="translate(341.6 15.31)"><tspan x="0" y="0">Dump</tspan></text>
  <path d="M126.6,68.31"/>
  <g>
    <line class="st3" x1="95.62" y1="66" x2="300.76" y2="66"/>
    <polygon points="297.99 69.9 313.16 65.83 297.99 61.76 297.99 69.9"/>
  </g>
  <g>
    <path class="st3" d="M357.6,102.81s1.46,23.57-15.33,25.67c-16,2-263.93.97-276.17-.67-6.15-.82-10.12-6.76-12.56-12.58"/>
    <polygon points="58.23 116.7 49.94 103.35 50.45 119.06 58.23 116.7"/>
  </g>
  <g>
    <path class="st5" d="M.51,38.42c1.67-1,3.38-2.04,5.14-3.1"/>
    <path class="st6" d="M9.36,33.09c9.41-5.55,19.85-11.06,30.56-12.83,12.31-2.04,22.92.8,32.76,5.49"/>
    <path class="st5" d="M74.63,26.7c1.78.9,3.54,1.85,5.28,2.84"/>
    <polygon points="75.5 31.48 90.6 35.82 79.69 24.51 75.5 31.48"/>
  </g>
  <g>
    <path class="st5" d="M316.1,37.31c1.74-1.05,3.44-2.1,5.11-3.15"/>
    <path class="st0" d="M324.64,32c8.04-5.01,15.89-9.49,26.43-11.24,12.36-2.05,23.01.83,32.89,5.55"/>
    <path class="st5" d="M385.78,27.2c1.78.9,3.54,1.85,5.28,2.84"/>
    <polygon points="386.65 31.98 401.75 36.32 390.84 25.01 386.65 31.98"/>
  </g>
</svg>