<?xml version="1.0" encoding="UTF-8"?>
<svg id="Layer_1" xmlns="http://www.w3.org/2000/svg" version="1.1" viewBox="0 0 427 257">
  <defs>
    <style>
      .st0 {
        font-family: Helvetica, Helvetica;
      }

      .st0, .st1, .st2 {
        font-size: 12px;
      }

      .st3 {
        stroke-width: 1.25px;
      }

      .st3, .st4, .st5, .st6, .st7, .st8, .st9 {
        fill: none;
      }

      .st3, .st8 {
        stroke: #c303be;
      }

      .st10 {
        fill: #d60de9;
      }

      .st1, .st11, .st12, .st13 {
        font-family: MyriadPro-Regular, 'Myriad Pro';
      }

      .st1, .st11, .st14, .st13 {
        fill: #c403be;
      }

      .st11 {
        font-size: 13px;
      }

      .st4, .st7 {
        stroke: #c409ce;
      }

      .st5 {
        stroke-width: 1.5px;
      }

      .st5, .st9 {
        stroke: #000;
      }

      .st12 {
        font-size: 10px;
      }

      .st6 {
        stroke: #c403be;
      }

      .st7, .st8 {
        stroke-dasharray: 12 12;
      }

      .st13 {
        font-size: 9px;
      }

      .st2 {
        font-family: Symbol, Symbol;
      }
    </style>
  </defs>
  <line class="st5" y1="226.67" x2="372.67" y2="226.67"/>
  <polyline points="370.59 229.68 381.97 226.63 370.59 223.58 370.59 229.68"/>
  <polygon class="st9" points="370.59 229.68 381.97 226.63 370.59 223.58 370.59 229.68"/>
  <line class="st5" x1="142" y1="256.67" x2="142" y2="11.33"/>
  <polyline points="145.01 13.41 141.96 2.03 138.91 13.41 145.01 13.41"/>
  <polygon class="st9" points="145.01 13.41 141.96 2.03 138.91 13.41 145.01 13.41"/>
  <line class="st5" x1="102" y1="255.67" x2="338.67" y2="85.67"/>
  <polyline points="338.75 89.33 346.18 80.18 335.17 84.39 338.75 89.33"/>
  <polygon class="st9" points="338.75 89.33 346.18 80.18 335.17 84.39 338.75 89.33"/>
  <text class="st0" transform="translate(346.5 95.5)"><tspan x="0" y="0">X</tspan></text>
  <text class="st0" transform="translate(380.93 238.47)"><tspan x="0" y="0">Z</tspan></text>
  <text class="st0" transform="translate(126.67 16.67)"><tspan x="0" y="0">Y</tspan></text>
  <text class="st1" transform="translate(204.67 76.67)"><tspan x="0" y="0">x</tspan></text>
  <text class="st1" transform="translate(245.33 40.67)"><tspan x="0" y="0">y</tspan></text>
  <text class="st1" transform="translate(308.67 65.33)"><tspan x="0" y="0">z</tspan></text>
  <line class="st3" x1="251.81" y1="108.76" x2="311.68" y2="74.52"/>
  <polyline class="st14" points="312.02 77.44 318.75 70.85 309.62 73.18 312.02 77.44"/>
  <polygon class="st4" points="312.02 77.44 318.75 70.85 309.62 73.18 312.02 77.44"/>
  <line class="st8" x1="242.03" y1="199.31" x2="307.41" y2="177.32"/>
  <polyline class="st14" points="306.58 180.13 314.46 174.97 305.05 175.49 306.58 180.13"/>
  <polygon class="st4" points="306.58 180.13 314.46 174.97 305.05 175.49 306.58 180.13"/>
  <line class="st3" x1="251.49" y1="108.86" x2="257.44" y2="50.71"/>
  <polyline class="st14" points="259.48 53.99 257.9 44.7 254.62 53.54 259.48 53.99"/>
  <polygon class="st4" points="259.48 53.99 257.9 44.7 254.62 53.54 259.48 53.99"/>
  <line class="st3" x1="251.63" y1="109.26" x2="222.39" y2="72.1"/>
  <polyline class="st14" points="223.97 70.54 216.35 65 220.18 73.61 223.97 70.54"/>
  <polygon class="st4" points="223.97 70.54 216.35 65 220.18 73.61 223.97 70.54"/>
  <text class="st2" transform="translate(82 238)"><tspan x="0" y="0">φ</tspan></text>
  <text class="st2" transform="translate(97 171.33)"><tspan x="0" y="0">ψ</tspan></text>
  <text class="st2" transform="translate(302.67 210.67)"><tspan x="0" y="0">θ</tspan></text>
  <line class="st7" x1="246.49" y1="111.8" x2="5.2" y2="249.2"/>
  <path class="st9" d="M71.19,217.68c4.88,8.42,7.68,18.21,7.68,28.65"/>
  <polyline points="73.62 217.88 68.05 212.33 70.1 219.92 73.62 217.88"/>
  <path class="st9" d="M293.7,191.62c3.81,10.01,5.12,21.13,3.27,32.46"/>
  <polyline points="296.3 192.25 291.24 185.25 292.12 193.85 296.3 192.25"/>
  <path class="st6" d="M153.33,199.33c46-63.33,141.76-133.76,222.62-131.88"/>
  <polyline class="st10" points="376.14 70.19 384.48 68.04 376.18 65.73 376.14 70.19"/>
  <polygon class="st6" points="376.14 70.19 384.48 68.04 376.18 65.73 376.14 70.19"/>
  <path class="st9" d="M107.93,175.81c3.57,3.58,5.92,9.72,5.92,16.69,0,11.05-5.91,20-13.19,20s-13.19-8.95-13.19-20c0-6,1.74-11.38,4.5-15.04"/>
  <polyline points="92.16 179.88 95.04 173.35 90.39 176.82 92.16 179.88"/>
  <text class="st13" transform="translate(377.33 80.17) rotate(.04)"><tspan x="0" y="0">Branch</tspan><tspan x="0" y="8">reference</tspan><tspan x="0" y="16">curve</tspan></text>
  <text class="st12" transform="translate(321 173.35)"><tspan x="0" y="0">Projection of the</tspan><tspan class="st14" x="0" y="8">z-axis</tspan><tspan x="23.1" y="8" xml:space="preserve"> on the X-Z plane</tspan></text>
  <text class="st12" transform="translate(296.23 239)"><tspan x="0" y="0">Floor Coordinates</tspan></text>
  <text class="st11" transform="translate(380.93 65)"><tspan x="0" y="0">s</tspan></text>
</svg>