<?xml version="1.0" encoding="UTF-8"?>
<svg id="Layer_1" xmlns="http://www.w3.org/2000/svg" version="1.1" viewBox="0 0 295.25 172.45">
  <defs>
    <style>
      .st0 {
        stroke: #00189a;
      }

      .st0, .st1, .st2, .st3, .st4 {
        fill: #fff;
      }

      .st0, .st1, .st3, .st5, .st4 {
        stroke-miterlimit: 10;
        stroke-width: 1.2px;
      }

      .st6 {
        fill: #7c002b;
      }

      .st7 {
        fill: #175100;
      }

      .st8 {
        font-family: MyriadPro-Regular, 'Myriad Pro';
        font-size: 16px;
      }

      .st9 {
        fill: #0004b3;
      }

      .st1 {
        stroke: #84a000;
      }

      .st3 {
        stroke: #00979d;
      }

      .st5 {
        fill: #5900bb;
        stroke: #fff;
      }

      .st4 {
        stroke: #b500a9;
      }
    </style>
  </defs>
  <g>
    <rect class="st2" x="118.56" y="1" width="55.54" height="22.06"/>
    <path class="st6" d="M173.11,2v20.06h-53.54V2h53.54M175.11,0h-57.54v24.06h57.54V0h0Z"/>
  </g>
  <text class="st8" transform="translate(124.45 17.7)"><tspan x="0" y="0" xml:space="preserve">Lattice   </tspan></text>
  <line class="st4" x1="62.11" y1="57.89" x2="136.66" y2="24.06"/>
  <g>
    <g>
      <rect class="st2" x="22" y="58.89" width="64.53" height="24.65"/>
      <path class="st9" d="M85.53,59.89v22.65H23v-22.65h62.53M87.53,57.89H21v26.65h66.53v-26.65h0Z"/>
    </g>
    <text class="st8" transform="translate(24.64 76.36)"><tspan x="0" y="0">Branch A</tspan></text>
  </g>
  <g>
    <g>
      <rect class="st2" x="99.41" y="58.89" width="64.53" height="24.65"/>
      <path class="st9" d="M162.94,59.89v22.65h-62.53v-22.65h62.53M164.94,57.89h-66.53v26.65h66.53v-26.65h0Z"/>
    </g>
    <text class="st8" transform="translate(102.12 76.36)"><tspan x="0" y="0">Branch B</tspan></text>
  </g>
  <g>
    <g>
      <rect class="st2" x="176.11" y="58.89" width="64.53" height="24.65"/>
      <path class="st9" d="M239.63,59.89v22.65h-62.53v-22.65h62.53M241.63,57.89h-66.53v26.65h66.53v-26.65h0Z"/>
    </g>
    <text class="st8" transform="translate(178.81 76.36)"><tspan x="0" y="0">Branch C</tspan></text>
  </g>
  <circle class="st5" cx="258.28" cy="71.21" r="2.1"/>
  <circle class="st5" cx="292.55" cy="71.21" r="2.1"/>
  <circle class="st5" cx="275.41" cy="71.21" r="2.1"/>
  <line class="st0" x1="138.18" y1="84.54" x2="138.18" y2="129.06"/>
  <line class="st3" x1="37.95" y1="129.06" x2="283.52" y2="129.06"/>
  <line class="st1" x1="38.58" y1="129.06" x2="38.58" y2="145.73"/>
  <line class="st1" x1="204.29" y1="129.06" x2="204.29" y2="145.73"/>
  <line class="st1" x1="120.45" y1="129.06" x2="120.45" y2="145.73"/>
  <g>
    <g>
      <polygon class="st2" points="1 146.8 73.6 146.73 73.6 171.38 1 171.45 1 146.8"/>
      <path class="st7" d="M72.6,147.73v22.65l-70.6.07v-22.65l70.6-.07M74.6,145.73l-74.6.08v26.65l74.6-.08v-26.65h0Z"/>
    </g>
    <text class="st8" transform="translate(4.35 164.27)"><tspan x="0" y="0">Element 1</tspan></text>
  </g>
  <g>
    <g>
      <rect class="st2" x="84.84" y="146.73" width="73.02" height="24.65"/>
      <path class="st7" d="M156.86,147.73v22.65h-71.02v-22.65h71.02M158.86,145.73h-75.02v26.65h75.02v-26.65h0Z"/>
    </g>
    <text class="st8" transform="translate(88.2 164.2)"><tspan x="0" y="0">Element 2</tspan></text>
  </g>
  <g>
    <g>
      <rect class="st2" x="170.18" y="146.73" width="70.45" height="24.65"/>
      <path class="st7" d="M239.63,147.73v22.65h-68.45v-22.65h68.45M241.63,145.73h-72.45v26.65h72.45v-26.65h0Z"/>
    </g>
    <text class="st8" transform="translate(172.25 164.2)"><tspan x="0" y="0">Element 3</tspan></text>
  </g>
  <g>
    <circle class="st7" cx="251.06" cy="159.05" r="1.85"/>
    <path class="st2" d="M251.06,157.45c.88,0,1.6.72,1.6,1.6s-.72,1.6-1.6,1.6-1.6-.72-1.6-1.6.72-1.6,1.6-1.6M251.06,156.95c-1.16,0-2.1.94-2.1,2.1s.94,2.1,2.1,2.1,2.1-.94,2.1-2.1-.94-2.1-2.1-2.1h0Z"/>
  </g>
  <g>
    <circle class="st7" cx="285.33" cy="159.05" r="1.85"/>
    <path class="st2" d="M285.33,157.45c.88,0,1.6.72,1.6,1.6s-.72,1.6-1.6,1.6-1.6-.72-1.6-1.6.72-1.6,1.6-1.6M285.33,156.95c-1.16,0-2.1.94-2.1,2.1s.94,2.1,2.1,2.1,2.1-.94,2.1-2.1-.94-2.1-2.1-2.1h0Z"/>
  </g>
  <g>
    <circle class="st7" cx="268.2" cy="159.05" r="1.85"/>
    <path class="st2" d="M268.2,157.45c.88,0,1.6.72,1.6,1.6s-.72,1.6-1.6,1.6-1.6-.72-1.6-1.6.72-1.6,1.6-1.6M268.2,156.95c-1.16,0-2.1.94-2.1,2.1s.94,2.1,2.1,2.1,2.1-.94,2.1-2.1-.94-2.1-2.1-2.1h0Z"/>
  </g>
  <line class="st0" x1="53.83" y1="84.54" x2="53.83" y2="99.21"/>
  <line class="st0" x1="207.02" y1="84.54" x2="207.02" y2="99.21"/>
  <line class="st3" x1="20.54" y1="99.21" x2="95.07" y2="99.21"/>
  <line class="st3" x1="183.75" y1="99.21" x2="258.28" y2="99.21"/>
  <line class="st1" x1="21" y1="98.93" x2="21" y2="110.05"/>
  <line class="st1" x1="77.54" y1="99.65" x2="77.54" y2="110.77"/>
  <line class="st1" x1="48.94" y1="99.65" x2="48.94" y2="110.77"/>
  <line class="st1" x1="183.75" y1="98.93" x2="183.75" y2="110.05"/>
  <line class="st1" x1="240.29" y1="99.65" x2="240.29" y2="110.77"/>
  <line class="st1" x1="211.68" y1="99.65" x2="211.68" y2="110.77"/>
  <g>
    <polygon class="st2" points="10.18 110.6 30.9 110.57 30.9 119.66 10.18 119.69 10.18 110.6"/>
    <path class="st7" d="M30.15,111.33v7.59l-19.23.03v-7.59l19.23-.03M31.65,109.82l-22.23.03v10.59l22.23-.03v-10.59h0Z"/>
  </g>
  <g>
    <polygon class="st2" points="228.3 110.6 249.03 110.57 249.03 119.66 228.3 119.69 228.3 110.6"/>
    <path class="st7" d="M248.28,111.33v7.59l-19.23.03v-7.59l19.23-.03M249.78,109.82l-22.23.03v10.59l22.23-.03v-10.59h0Z"/>
  </g>
  <g>
    <polygon class="st2" points="201.32 110.6 222.04 110.57 222.04 119.66 201.32 119.69 201.32 110.6"/>
    <path class="st7" d="M221.3,111.33v7.59l-19.23.03v-7.59l19.23-.03M222.8,109.82l-22.23.03v10.59l22.23-.03v-10.59h0Z"/>
  </g>
  <g>
    <polygon class="st2" points="173.38 110.6 194.11 110.57 194.11 119.66 173.38 119.69 173.38 110.6"/>
    <path class="st7" d="M193.36,111.33v7.59l-19.23.03v-7.59l19.23-.03M194.86,109.82l-22.23.03v10.59l22.23-.03v-10.59h0Z"/>
  </g>
  <g>
    <polygon class="st2" points="67.18 110.6 87.91 110.57 87.91 119.66 67.18 119.69 67.18 110.6"/>
    <path class="st7" d="M87.16,111.33v7.59l-19.23.03v-7.59l19.23-.03M88.66,109.82l-22.23.03v10.59l22.23-.03v-10.59h0Z"/>
  </g>
  <g>
    <polygon class="st2" points="38.57 110.6 59.3 110.57 59.3 119.66 38.57 119.69 38.57 110.6"/>
    <path class="st7" d="M58.55,111.33v7.59l-19.23.03v-7.59l19.23-.03M60.05,109.82l-22.23.03v10.59l22.23-.03v-10.59h0Z"/>
  </g>
  <line class="st4" x1="134.3" y1="57.89" x2="142.68" y2="24.06"/>
  <line class="st4" x1="148.69" y1="24.06" x2="200.57" y2="57.89"/>
  <line class="st4" x1="160.08" y1="23.32" x2="273.24" y2="57.89"/>
</svg>