<?xml version="1.0" encoding="UTF-8"?>
<svg id="Layer_1" xmlns="http://www.w3.org/2000/svg" xmlns:xlink="http://www.w3.org/1999/xlink" version="1.1" viewBox="0 0 432.25 129.51">
  <defs>
    <style>
      .st0, .st1, .st2, .st3, .st4, .st5, .st6, .st7 {
        fill: none;
      }

      .st1, .st2, .st3, .st4, .st5, .st6, .st7 {
        stroke-miterlimit: 10;
      }

      .st1, .st4, .st5, .st6 {
        stroke: #231f20;
      }

      .st2 {
        stroke: #699658;
      }

      .st2, .st3 {
        stroke-width: 4px;
      }

      .st8, .st9, .st10, .st11, .st12 {
        fill: #231f20;
      }

      .st3 {
        stroke: #83277e;
      }

      .st13 {
        isolation: isolate;
      }

      .st14 {
        fill: #4d7b44;
      }

      .st14, .st15, .st16 {
        opacity: .7;
      }

      .st17 {
        clip-path: url(#clippath-1);
      }

      .st9 {
        font-size: 16px;
      }

      .st9, .st10, .st11, .st12 {
        font-family: MyriadPro-Regular, 'Myriad Pro';
      }

      .st4 {
        stroke-width: .91px;
      }

      .st10 {
        font-size: 11px;
      }

      .st11 {
        font-size: 12px;
      }

      .st12 {
        font-size: 14px;
      }

      .st18 {
        fill: #fff;
      }

      .st5 {
        stroke-width: 1.5px;
      }

      .st6 {
        stroke-width: .5px;
      }

      .st19 {
        fill: #681b0e;
      }

      .st7 {
        stroke: #681b0e;
      }

      .st20 {
        fill: #5c0911;
      }

      .st15 {
        fill: #659a57;
      }

      .st21 {
        fill: #660817;
      }

      .st16 {
        fill: #77b265;
      }

      .st22 {
        fill: #721d6d;
      }

      .st22, .st23, .st24 {
        opacity: .7;
      }

      .st25 {
        clip-path: url(#clippath);
      }

      .st26 {
        fill: #62150b;
      }

      .st23 {
        fill: #50024d;
      }

      .st24 {
        fill: #6d1a69;
      }
    </style>
    <clipPath id="clippath">
      <polygon class="st0" points="74.12 43.25 86.57 149 7.3 120.23 -5.15 14.48 74.12 43.25"/>
    </clipPath>
    <clipPath id="clippath-1">
      <polygon class="st0" points="188.03 51.44 177.87 156.95 120.75 109.02 130.91 3.51 188.03 51.44"/>
    </clipPath>
  </defs>
  <g>
    <line class="st8" x1="43.29" y1="84.72" x2="90.29" y2="52.88"/>
    <g>
      <line class="st1" x1="43.29" y1="84.72" x2="82.95" y2="57.85"/>
      <polygon class="st8" points="82.87 61.27 90.22 52.78 79.61 56.46 82.87 61.27"/>
    </g>
  </g>
  <g class="st13">
    <g class="st13">
      <g class="st25">
        <g>
          <path class="st8" d="M37.01,30.46l.05.45-.05-.45"/>
          <polyline class="st8" points="38.88 41.85 37.79 41.46 42.78 83.87 43.32 84.07 43.45 85.16 43.45 85.16 44 85.36 38.88 41.85"/>
          <polyline class="st8" points="36.93 30.43 36.01 40.81 37.79 41.46 38.88 41.85 40.47 42.43 37.07 30.91 36.93 30.43"/>
          <polyline class="st8" points="2.03 69.79 1.69 69.66 2.03 69.79"/>
          <polyline class="st8" points="43.32 84.07 42.78 83.87 9.93 71.95 10.1 73.43 43.5 85.54 43.45 85.16 43.32 84.07"/>
          <polyline class="st8" points="9.68 69.81 2.03 69.79 1.7 69.79 10.39 75.81 10.1 73.43 9.93 71.95 9.68 69.81"/>
        </g>
      </g>
    </g>
  </g>
  <g>
    <line class="st8" x1="156.67" y1="83.61" x2="198.08" y2="80.79"/>
    <g>
      <line class="st1" x1="156.67" y1="83.61" x2="189.24" y2="81.39"/>
      <polygon class="st8" points="187.45 84.3 198.07 80.67 187.05 78.5 187.45 84.3"/>
    </g>
  </g>
  <g class="st13">
    <g class="st13">
      <g class="st17">
        <g>
          <path class="st8" d="M161.16,29.68l-.04.45.04-.45"/>
          <polyline class="st8" points="160.48 41.17 159.69 40.51 155.62 82.81 156.01 83.14 155.9 84.23 155.91 84.23 156.3 84.57 160.48 41.17"/>
          <polyline class="st8" points="161.1 29.62 158.41 39.43 159.69 40.51 160.48 41.17 161.63 42.13 161.12 30.12 161.1 29.62"/>
          <polyline class="st8" points="126.12 58.86 125.88 58.65 126.12 58.86"/>
          <polyline class="st8" points="156.01 83.14 155.62 82.81 131.95 62.95 131.81 64.43 155.87 84.62 155.9 84.23 156.01 83.14"/>
          <polyline class="st8" points="132.15 60.82 126.12 58.86 125.86 58.78 131.58 66.81 131.81 64.43 131.95 62.95 132.15 60.82"/>
        </g>
      </g>
    </g>
  </g>
  <g class="st13">
    <polygon class="st23" points="176.82 66.78 170.68 128.7 137.08 100.51 143.23 38.59 176.82 66.78"/>
    <polygon class="st22" points="176.82 66.78 177.87 66.68 171.72 128.6 170.68 128.7 176.82 66.78"/>
    <polygon class="st24" points="143.23 38.59 144.28 38.49 177.87 66.68 176.82 66.78 143.23 38.59"/>
  </g>
  <text class="st10" transform="translate(90.85 59.22)"><tspan x="0" y="0">z</tspan></text>
  <text class="st10" transform="translate(194.82 89.02)"><tspan x="0" y="0">z</tspan></text>
  <path class="st21" d="M53.06,95.24c.6.22,1.17,1.14,1.28,2.07s-.3,1.5-.9,1.28-1.17-1.15-1.28-2.07.29-1.5.9-1.28Z"/>
  <path class="st20" d="M145.82,90.7c.44.37.72,1.41.63,2.33s-.52,1.38-.95,1.01-.72-1.41-.63-2.34.51-1.37.95-1Z"/>
  <g>
    <line class="st26" x1="56" y1="96.16" x2="142.9" y2="92.37"/>
    <g>
      <line class="st7" x1="56" y1="96.16" x2="134.05" y2="92.76"/>
      <polygon class="st19" points="132.2 95.75 142.9 92.37 131.95 89.94 132.2 95.75"/>
    </g>
  </g>
  <text class="st11" transform="translate(9.5 123.04)"><tspan x="0" y="0">Entrance</tspan></text>
  <text class="st11" transform="translate(135.13 124.02)"><tspan x="0" y="0">Exit</tspan></text>
  <g class="st13">
    <polygon class="st14" points="62.84 62.48 70.14 124.54 23.62 107.65 16.31 45.6 62.84 62.48"/>
    <polygon class="st16" points="62.84 62.48 63.76 62.13 71.06 124.19 70.14 124.54 62.84 62.48"/>
    <polygon class="st15" points="16.31 45.6 17.24 45.25 63.76 62.13 62.84 62.48 16.31 45.6"/>
  </g>
  <g>
    <line class="st1" x1="263.8" y1="123.65" x2="356.76" y2="124.05"/>
    <polygon class="st8" points="355.36 125.99 362.96 123.99 355.38 121.92 355.36 125.99"/>
  </g>
  <rect class="st18" x="308.09" y="116.7" width="13.33" height="13.9"/>
  <line class="st3" x1="362.76" y1="110.01" x2="362.76" y2="40.93"/>
  <line class="st2" x1="275.98" y1="118.39" x2="246.61" y2="47.12"/>
  <text class="st11" transform="translate(269.4 87.95)"><tspan x="0" y="0">Entrance</tspan></text>
  <text class="st11" transform="translate(371.72 51.58)"><tspan x="0" y="0">Exit</tspan></text>
  <text class="st10" transform="translate(321.23 59.22)"><tspan x="0" y="0">z</tspan></text>
  <g>
    <g>
      <line class="st5" x1="366.56" y1="84.95" x2="366.56" y2="59.45"/>
      <polygon class="st8" points="368.65 60.93 366.47 52.8 364.29 60.93 368.65 60.93"/>
    </g>
    <g>
      <line class="st5" x1="367.81" y1="84.95" x2="419.33" y2="84.95"/>
      <polygon class="st8" points="417.84 87.04 425.97 84.86 417.84 82.68 417.84 87.04"/>
    </g>
    <circle class="st8" cx="366.56" cy="84.95" r="2.65"/>
  </g>
  <g>
    <line class="st5" x1="263.17" y1="77.85" x2="253.04" y2="52.79"/>
    <polygon class="st8" points="255.53 53.38 250.47 46.66 251.49 55.01 255.53 53.38"/>
  </g>
  <g>
    <line class="st5" x1="264.32" y1="77.38" x2="312.09" y2="58.08"/>
    <polygon class="st8" points="311.49 60.57 318.22 55.51 309.86 56.53 311.49 60.57"/>
  </g>
  <path class="st8" d="M265.75,76.8c.58,1.42-.12,3.05-1.54,3.63-1.42.57-3.05-.12-3.63-1.54-.57-1.43.12-3.05,1.54-3.63,1.42-.58,3.05.11,3.62,1.54Z"/>
  <text class="st10" transform="translate(419.23 98.17)"><tspan x="0" y="0">z</tspan></text>
  <line class="st1" x1="262.7" y1="127.02" x2="262.7" y2="94.83"/>
  <line class="st4" x1="363.56" y1="129.51" x2="363.56" y2="110.92"/>
  <text class="st9" transform="translate(312.09 129.09)"><tspan x="0" y="0">L</tspan></text>
  <text class="st12" transform="translate(2.58 41.24)"><tspan x="0" y="0">A)</tspan></text>
  <text class="st12" transform="translate(218.26 42.58)"><tspan x="0" y="0">B)</tspan></text>
  <line class="st6" x1="249.07" y1="44.19" x2="245.43" y2="35.17"/>
  <line class="st6" x1="364.15" y1="80.79" x2="331.52"/>
  <g>
    <line class="st6" x1="329.71" y1="6.78" x2="247.75" y2="39.89"/>
    <polygon class="st8" points="328.27 5.86 333.84 5.18 329.36 8.56 328.27 5.86"/>
  </g>
  <rect class="st18" x="271.24" y="15.52" width="44.19" height="10.67" transform="translate(16.87 121.09) rotate(-24)"/>
  <text class="st11" transform="translate(275.98 30.61) rotate(-21)"><tspan x="0" y="0">z_offset</tspan></text>
</svg>