<?xml version="1.0" encoding="UTF-8"?>
<svg id="Layer_1" xmlns="http://www.w3.org/2000/svg" xmlns:xlink="http://www.w3.org/1999/xlink" version="1.1" viewBox="0 0 548.62 241.23">
  <defs>
    <style>
      .st0, .st1, .st2, .st3, .st4, .st5, .st6, .st7, .st8, .st9, .st10, .st11, .st12, .st13, .st14, .st15, .st16, .st17 {
        fill: none;
      }

      .st1 {
        stroke-dasharray: 7.09;
      }

      .st1, .st2, .st3, .st7, .st9, .st10, .st12, .st13, .st14, .st17 {
        stroke-width: 1.18px;
      }

      .st1, .st3, .st4, .st7, .st9, .st10, .st12, .st13, .st14, .st15, .st17 {
        stroke-linecap: round;
        stroke-linejoin: round;
      }

      .st1, .st3, .st7, .st9, .st10, .st12, .st13, .st14, .st15, .st17 {
        stroke: #222020;
      }

      .st18, .st19 {
        fill: #ed1d34;
      }

      .st2 {
        stroke: #ea205f;
      }

      .st2, .st5, .st6, .st8, .st11, .st16 {
        stroke-miterlimit: 10;
      }

      .st20 {
        font-size: 13px;
      }

      .st20, .st21 {
        fill: #dc1d44;
      }

      .st20, .st21, .st22, .st23, .st24, .st25, .st26, .st19, .st27, .st28 {
        font-family: MyriadPro-Regular, 'Myriad Pro';
      }

      .st21, .st24, .st26, .st19 {
        font-size: 18px;
      }

      .st3 {
        stroke-dasharray: 5.3 5.3;
      }

      .st29, .st27, .st28 {
        fill: #3953a5;
      }

      .st30, .st23, .st24, .st25 {
        fill: #231f20;
      }

      .st31, .st26 {
        fill: #2bb34b;
      }

      .st4 {
        stroke: #2bb34b;
        stroke-width: 1.5px;
      }

      .st5 {
        stroke-width: 2px;
      }

      .st5, .st6 {
        stroke: #ed1d34;
      }

      .st32 {
        isolation: isolate;
      }

      .st22 {
        fill: #5dbd6c;
      }

      .st22, .st23, .st27 {
        font-size: 16px;
      }

      .st6 {
        stroke-width: 1.93px;
      }

      .st7 {
        stroke-dasharray: 5.23 5.23;
      }

      .st25 {
        font-size: 12px;
      }

      .st8 {
        stroke: #2db34a;
        stroke-opacity: .81;
        stroke-width: 19px;
      }

      .st33 {
        fill: #ea205f;
      }

      .st9 {
        stroke-dasharray: 4.68 4.68;
      }

      .st10 {
        stroke-dasharray: 5.5 5.5;
      }

      .st11 {
        stroke-width: 2.2px;
      }

      .st11, .st16 {
        stroke: #231f20;
      }

      .st34 {
        opacity: .81;
      }

      .st12 {
        stroke-dasharray: 4.59 4.59;
      }

      .st13 {
        stroke-dasharray: 5.28 5.28;
      }

      .st15 {
        stroke-width: 1.72px;
      }

      .st16 {
        stroke-width: 3.36px;
      }

      .st28 {
        font-size: 14px;
      }

      .st35 {
        clip-path: url(#clippath);
      }

      .st17 {
        stroke-dasharray: 5.44 5.44;
      }
    </style>
    <clipPath id="clippath">
      <polygon class="st0" points="76.88 68.11 104.65 50.59 107.79 58.2 80.01 75.72 76.88 68.11"/>
    </clipPath>
  </defs>
  <text class="st23" transform="translate(232.6 13.39)"><tspan x="0" y="0">B) </tspan></text>
  <text class="st23" transform="translate(1.17 157.03)"><tspan x="0" y="0">C)</tspan></text>
  <g>
    <rect class="st29" x="27.15" y="181.53" width="137.5" height="19.5"/>
    <text class="st24" transform="translate(8.65 214.53)"><tspan x="0" y="0">x</tspan></text>
    <text class="st24" transform="translate(64.15 179.03)"><tspan x="0" y="0">z</tspan></text>
    <path class="st8" d="M30.35,228.71c39.06-23.79,84.93-37.49,134-37.49"/>
    <g class="st34">
      <path class="st5" d="M16.65,190.03l147.7.69c-49.07,0-94.95,13.7-134,37.49l-10.35,5.85"/>
      <polygon class="st18" points="20.56 228.62 7.74 241.19 25.13 236.72 20.56 228.62"/>
    </g>
    <g>
      <polyline class="st11" points="57.37 185.53 28.58 185.53 28.58 168.73"/>
      <polygon class="st30" points="54.75 181.85 69.08 185.68 54.75 189.53 54.75 181.85"/>
      <polygon class="st30" points="32.25 171.35 28.42 157.03 24.57 171.35 32.25 171.35"/>
    </g>
    <g>
      <polyline class="st11" points="54.7 211.33 29.65 225.53 21.37 210.92"/>
      <polygon class="st30" points="50.61 209.42 64.96 205.7 54.39 216.1 50.61 209.42"/>
      <polygon class="st30" points="25.86 211.38 15.46 200.81 19.18 215.17 25.86 211.38"/>
    </g>
    <text class="st24" transform="translate(33.65 164.53)"><tspan x="0" y="0">x</tspan></text>
    <text class="st24" transform="translate(42.65 209.53)"><tspan x="0" y="0">z</tspan></text>
    <text class="st19" transform="translate(4.37 236.73)"><tspan x="0" y="0">s</tspan></text>
    <text class="st22" transform="translate(55.21 238.01) rotate(-13)"><tspan x="0" y="0">bnd1 (reversed)</tspan></text>
    <text class="st28" transform="translate(90.13 177.53)"><tspan x="0" y="0">dft1</tspan></text>
  </g>
  <rect class="st29" x="249.99" y="196.19" width="137.5" height="19.5"/>
  <g>
    <polyline class="st11" points="279.43 203.59 250.64 203.59 250.64 186.8"/>
    <polygon class="st30" points="276.81 199.91 291.14 203.75 276.81 207.6 276.81 199.91"/>
    <polygon class="st30" points="254.31 189.42 250.48 175.09 246.64 189.42 254.31 189.42"/>
  </g>
  <text class="st24" transform="translate(254.49 176.69)"><tspan x="0" y="0">x</tspan></text>
  <text class="st24" transform="translate(286.99 195.19)"><tspan x="0" y="0">z</tspan></text>
  <path class="st8" d="M521.99,168.38c-39.06,23.8-84.93,37.5-134,37.5"/>
  <g class="st34">
    <path class="st5" d="M238.08,207.7l146.5.31c49.07,0,94.95-13.7,134-37.5l10.35-5.85"/>
    <polygon class="st18" points="528.37 170.09 541.19 157.52 523.8 162 528.37 170.09"/>
  </g>
  <g>
    <polyline class="st11" points="498.59 185.7 523.44 171.14 531.93 185.63"/>
    <polygon class="st30" points="502.71 187.55 488.41 191.48 498.83 180.92 502.71 187.55"/>
    <polygon class="st30" points="527.43 185.23 537.98 195.65 534.05 181.35 527.43 185.23"/>
  </g>
  <text class="st24" transform="translate(527.99 204.19)"><tspan x="0" y="0">x</tspan></text>
  <text class="st24" transform="translate(491.49 201.69)"><tspan x="0" y="0">z</tspan></text>
  <text class="st19" transform="translate(541.49 166.69)"><tspan x="0" y="0">s</tspan></text>
  <line class="st16" x1="387.49" y1="194.58" x2="387.49" y2="219.08"/>
  <text class="st27" transform="translate(311.6 192.22)"><tspan x="0" y="0">dft1</tspan></text>
  <text class="st22" transform="translate(414.01 188.63) rotate(-18.59)"><tspan x="0" y="0">bnd1(reversed)</tspan></text>
  <text class="st23" transform="translate(383.09 193.42)"><tspan x="0" y="0">P</tspan></text>
  <g>
    <line class="st14" x1="164.55" y1="35.91" x2="162.05" y2="35.25"/>
    <line class="st13" x1="156.95" y1="33.91" x2="149.28" y2="31.89"/>
    <path class="st14" d="M146.73,31.22l-2.5-.66c-.52.7-1.04,1.39-1.55,2.07"/>
    <path class="st17" d="M139.36,36.93c-8.31,10.46-16.06,17.64-31.5,25.35"/>
    <path class="st14" d="M105.41,63.48c-.76.36-1.54.73-2.34,1.1l2.43.88"/>
    <line class="st10" x1="110.68" y1="67.32" x2="118.43" y2="70.13"/>
    <line class="st14" x1="121.02" y1="71.06" x2="123.45" y2="71.94"/>
  </g>
  <g>
    <path class="st2" d="M24.87,102.03c9.75-17.83,32.68-25.22,51.08-32.36l35.83-14.17c19.21-9.18,24.02-12.99,37.41-31.11l10.12-12.4"/>
    <polygon class="st33" points="160.22 15.3 164.84 5.02 155.7 11.61 160.22 15.3"/>
  </g>
  <polygon class="st15" points="7.91 118.27 4.37 78.63 42.37 82.18 44.29 122.39 7.91 118.27"/>
  <path class="st15" d="M4.51,78.47c26.5-21.14,33.88-25.26,62.43-32.68l20.87,7.55c-21.42,6.18-29.66,10.02-45.44,28.83"/>
  <g>
    <line class="st14" x1="103.05" y1="64.06" x2="103.13" y2="61.47"/>
    <line class="st12" x1="103.28" y1="56.89" x2="103.8" y2="40.84"/>
    <line class="st14" x1="103.87" y1="38.55" x2="103.95" y2="35.97"/>
  </g>
  <g>
    <line class="st14" x1="87.53" y1="86.29" x2="85.17" y2="85.24"/>
    <path class="st3" d="M80.32,83.09l-12.94-5.74c-19.55,6.51-41.15,18.87-56.22,36.82"/>
    <path class="st14" d="M9.48,116.22c-.53.67-1.06,1.36-1.58,2.05"/>
  </g>
  <path class="st15" d="M156.18,16.14l8.37,19.77c-13.39,18.12-21.9,26.84-41.1,36.03l-35.92,14.35"/>
  <line class="st1" x1="135.17" y1="11.61" x2="144.23" y2="30.56"/>
  <path class="st15" d="M123.45,71.94l1.84-30.12-37.48,11.53-.28,32.8v.14c-18.4,7.13-33.5,18.25-43.24,36.11"/>
  <g>
    <line class="st14" x1="67.21" y1="45.77" x2="67.21" y2="48.36"/>
    <line class="st7" x1="67.21" y1="53.59" x2="67.21" y2="71.9"/>
    <line class="st14" x1="67.21" y1="74.51" x2="67.21" y2="77.1"/>
  </g>
  <line class="st15" x1="103.95" y1="35.97" x2="67.21" y2="45.77"/>
  <g>
    <line class="st14" x1="103.07" y1="64.58" x2="100.64" y2="65.45"/>
    <line class="st9" x1="96.24" y1="67.02" x2="72.02" y2="75.69"/>
    <line class="st14" x1="69.81" y1="76.48" x2="67.38" y2="77.35"/>
  </g>
  <g>
    <line class="st4" x1="77.9" y1="68.24" x2="56.81" y2="61.62"/>
    <polygon class="st31" points="60.08 59.15 46.63 58.58 57.99 65.8 60.08 59.15"/>
  </g>
  <g>
    <line class="st4" x1="78.03" y1="68.34" x2="78.03" y2="41.19"/>
    <polygon class="st31" points="81.37 43.57 77.88 30.56 74.4 43.57 81.37 43.57"/>
  </g>
  <g class="st32">
    <g class="st35">
      <g>
        <path class="st31" d="M97.58,60.06l-20.11,7.68c-.31.12-.47.54-.36.93.01.04.02.08.04.11.14.33.43.5.71.4l20.11-7.69-.38-1.43"/>
        <polyline class="st31" points="107.28 56.98 96.85 57.29 97.58 60.06 97.97 61.49 98.63 63.97 107.28 56.98"/>
      </g>
    </g>
  </g>
  <text class="st26" transform="translate(37.36 66.37)"><tspan x="0" y="0">x</tspan></text>
  <text class="st26" transform="translate(71.11 31.76)"><tspan x="0" y="0">y</tspan></text>
  <text class="st26" transform="translate(107.98 63.2)"><tspan x="0" y="0">z</tspan></text>
  <path class="st15" d="M103.95,35.97c15.05-6.34,20.65-10.35,31.22-24.36l21,4.53c-8.96,12.66-16.2,19.36-30.89,25.67l-21.34-5.85"/>
  <text class="st21" transform="translate(166.91 12.41)"><tspan x="0" y="0">s</tspan></text>
  <text class="st20" transform="translate(50.97 125.37) rotate(2.8)"><tspan x="0" y="0">Upstream</tspan></text>
  <text class="st20" transform="translate(161.62 43.54) rotate(36.75)"><tspan x="0" y="0">Downstream</tspan></text>
  <text class="st23" transform="translate(73.02 108.71)"><tspan x="0" y="0">A</tspan></text>
  <text class="st23" transform="translate(106.59 91.8)"><tspan x="0" y="0">B</tspan></text>
  <text class="st23" transform="translate(150.52 67.25)"><tspan x="0" y="0">C</tspan></text>
  <text class="st23" transform="translate(0 13.39)"><tspan x="0" y="0">A) </tspan></text>
  <text class="st23" transform="translate(240.07 160.63)"><tspan x="0" y="0">D) </tspan></text>
  <rect class="st29" x="244.51" y="37.2" width="137.5" height="19.5"/>
  <g>
    <polyline class="st11" points="273.3 44.94 244.51 44.94 244.51 28.15"/>
    <polygon class="st30" points="270.68 41.26 285.01 45.1 270.68 48.94 270.68 41.26"/>
    <polygon class="st30" points="248.18 30.76 244.35 16.43 240.51 30.76 248.18 30.76"/>
  </g>
  <text class="st24" transform="translate(249.99 20.27)"><tspan x="0" y="0">x</tspan></text>
  <text class="st24" transform="translate(275.54 38.12)"><tspan x="0" y="0">z</tspan></text>
  <path class="st8" d="M516.51,84.52c-39.06-23.8-84.93-37.5-134-37.5"/>
  <g class="st34">
    <path class="st6" d="M232.6,48.13l146.5-.29c49.07,0,94.95,12.71,134,34.77l10.61,5.55"/>
    <polygon class="st18" points="519.02 90.55 535.89 94.34 523.17 82.62 519.02 90.55"/>
  </g>
  <text class="st24" transform="translate(387.49 20.27)"><tspan x="0" y="0">x</tspan></text>
  <text class="st24" transform="translate(416.09 40.63)"><tspan x="0" y="0">z</tspan></text>
  <text class="st19" transform="translate(528.13 81.74)"><tspan x="0" y="0">s</tspan></text>
  <text class="st27" transform="translate(291.14 74.6)"><tspan x="0" y="0">dft1</tspan></text>
  <text class="st22" transform="translate(421.9 73.7) rotate(16.41)"><tspan x="0" y="0">bnd1</tspan></text>
  <g>
    <polyline class="st11" points="413.17 46.54 384.38 46.54 384.38 29.74"/>
    <polygon class="st30" points="410.55 42.86 424.88 46.7 410.55 50.54 410.55 42.86"/>
    <polygon class="st30" points="388.05 32.36 384.22 18.03 380.37 32.36 388.05 32.36"/>
  </g>
  <text class="st25" transform="translate(429.57 108.83)"><tspan x="0" y="0">Lorem ipsum</tspan></text>
</svg>