<?xml version="1.0" encoding="UTF-8"?>
<svg id="Layer_1" xmlns="http://www.w3.org/2000/svg" version="1.1" viewBox="0 0 293 116">
  <defs>
    <style>
      .st0, .st1, .st2 {
        font-family: Times-Italic, Times;
        font-style: italic;
      }

      .st3 {
        letter-spacing: 0em;
      }

      .st3, .st4 {
        font-family: Times-Roman, Times;
      }

      .st5 {
        fill: #231f20;
      }

      .st6 {
        fill: #30459c;
      }

      .st6, .st7, .st1 {
        font-size: 12px;
      }

      .st6, .st8 {
        font-family: Symbol, Symbol;
      }

      .st9 {
        stroke: #2d429b;
      }

      .st9, .st10, .st11 {
        fill: none;
        stroke-miterlimit: 10;
      }

      .st7 {
        font-family: MyriadPro-Regular, 'Myriad Pro';
      }

      .st12, .st13 {
        font-size: 9px;
      }

      .st14 {
        fill: #2d429b;
      }

      .st10 {
        stroke: #231f20;
        stroke-width: 1.5px;
      }

      .st15 {
        font-size: 11px;
      }

      .st16 {
        fill: #fff;
      }

      .st17 {
        letter-spacing: 0em;
      }

      .st17, .st18 {
        font-size: 17px;
      }

      .st18 {
        letter-spacing: 0em;
      }

      .st19 {
        fill: #be2026;
      }

      .st13 {
        letter-spacing: 0em;
      }

      .st11 {
        stroke: #be2026;
        stroke-width: .75px;
      }

      .st2 {
        fill: #dd1f26;
      }
    </style>
  </defs>
  <g>
    <line class="st11" x1="225.94" y1="113.98" x2="225.94" y2="9.2"/>
    <polygon class="st19" points="227.4 10.24 225.88 4.54 224.35 10.24 227.4 10.24"/>
  </g>
  <g>
    <line class="st11" x1="293" y1="64.58" x2="152.9" y2="64.58"/>
    <polygon class="st19" points="153.94 63.12 148.25 64.65 153.94 66.17 153.94 63.12"/>
  </g>
  <text class="st2" transform="translate(148.07 78.23)"><tspan class="st17" x="0" y="0">x</tspan><tspan class="st13" x="7.46" y="4">0</tspan></text>
  <text class="st2" transform="translate(230.68 7.88)"><tspan class="st18" x="0" y="0">y</tspan><tspan class="st12" x="7.44" y="4">0</tspan></text>
  <text class="st15" transform="translate(167.77 77.08)"><tspan class="st8" x="0" y="0">q</tspan><tspan class="st0" x="5.73" y="2.56">t </tspan><tspan class="st4" x="11.54" y="0">= </tspan><tspan class="st8" x="20.49" y="0">p</tspan></text>
  <g>
    <line class="st10" x1="191.59" y1="64.58" x2="178.27" y2="64.58"/>
    <polygon class="st5" points="180.35 61.66 168.97 64.71 180.35 67.76 180.35 61.66"/>
  </g>
  <g>
    <line class="st10" x1="191.59" y1="64.58" x2="191.59" y2="51.76"/>
    <polygon class="st5" points="194.52 53.84 191.47 42.46 188.41 53.84 194.52 53.84"/>
  </g>
  <text class="st1" transform="translate(172.45 60.33)"><tspan x="0" y="0">z</tspan></text>
  <text class="st1" transform="translate(182.7 48.83)"><tspan x="0" y="0">y</tspan></text>
  <g>
    <line class="st10" x1="225.69" y1="41.46" x2="225.98" y2="28.13"/>
    <polygon class="st5" points="228.86 30.27 226.05 18.83 222.76 30.14 228.86 30.27"/>
  </g>
  <g>
    <line class="st10" x1="225.69" y1="41.46" x2="212.88" y2="41.46"/>
    <polygon class="st5" points="214.96 38.54 203.57 41.58 214.96 44.64 214.96 38.54"/>
  </g>
  <text class="st1" transform="translate(217.2 105.77)"><tspan x="0" y="0">z</tspan></text>
  <text class="st1" transform="translate(277.7 60.33)"><tspan x="0" y="0">z</tspan></text>
  <text class="st1" transform="translate(217.2 26.83)"><tspan x="0" y="0">z</tspan></text>
  <text class="st1" transform="translate(266.55 48.83)"><tspan x="0" y="0">y</tspan></text>
  <text class="st1" transform="translate(204.06 97.38)"><tspan x="0" y="0">x</tspan></text>
  <text class="st1" transform="translate(203.58 37.43)"><tspan x="0" y="0">x</tspan></text>
  <g>
    <line class="st10" x1="226.18" y1="87.56" x2="226.18" y2="100.88"/>
    <polygon class="st5" points="223.25 98.8 226.3 110.18 229.35 98.8 223.25 98.8"/>
  </g>
  <g>
    <line class="st10" x1="226.18" y1="87.75" x2="213.35" y2="87.75"/>
    <polygon class="st5" points="215.43 84.83 204.05 87.87 215.43 90.93 215.43 84.83"/>
  </g>
  <g>
    <line class="st10" x1="261.02" y1="64.34" x2="274.35" y2="64.63"/>
    <polygon class="st5" points="272.2 67.5 283.65 64.7 272.33 61.4 272.2 67.5"/>
  </g>
  <g>
    <line class="st10" x1="261.02" y1="64.34" x2="261.02" y2="51.52"/>
    <polygon class="st5" points="263.94 53.6 260.9 42.22 257.84 53.6 263.94 53.6"/>
  </g>
  <text class="st15" transform="translate(230.68 26.05)"><tspan class="st8" x="0" y="0">q</tspan><tspan class="st0" x="5.73" y="2.56">t </tspan><tspan class="st4" x="11.54" y="0">= -</tspan><tspan class="st8" x="24.15" y="0">p</tspan><tspan class="st3" x="30.19" y="0">/2</tspan></text>
  <text class="st15" transform="translate(260.32 77.08)"><tspan class="st8" x="0" y="0">q</tspan><tspan class="st0" x="5.73" y="2.56">t </tspan><tspan class="st4" x="11.54" y="0">= 0</tspan></text>
  <text class="st15" transform="translate(231.68 110.18)"><tspan class="st8" x="0" y="0">q</tspan><tspan class="st0" x="5.73" y="2.56">t </tspan><tspan class="st4" x="11.54" y="0">= </tspan><tspan class="st8" x="20.49" y="0">p</tspan><tspan class="st4" x="26.53" y="0">/2</tspan></text>
  <text class="st7" transform="translate(3.31 12.74)"><tspan x="0" y="0">A)</tspan></text>
  <text class="st7" transform="translate(147.67 13.33)"><tspan x="0" y="0">B)</tspan></text>
  <g>
    <line class="st11" x1="69.59" y1="112.39" x2="69.59" y2="7.6"/>
    <polygon class="st19" points="71.05 8.64 69.52 2.95 68 8.64 71.05 8.64"/>
  </g>
  <g>
    <line class="st11" x1="123.82" y1="62.99" x2="6.63" y2="62.99"/>
    <polygon class="st19" points="7.67 61.52 1.98 63.05 7.67 64.58 7.67 61.52"/>
  </g>
  <g>
    <line class="st10" x1="33.14" y1="63.41" x2="33.14" y2="50.59"/>
    <polygon class="st5" points="36.06 52.67 33.02 41.29 29.96 52.67 36.06 52.67"/>
  </g>
  <g>
    <line class="st10" x1="106.51" y1="62.76" x2="106.51" y2="75.58"/>
    <polygon class="st5" points="103.59 73.5 106.64 84.88 109.69 73.5 103.59 73.5"/>
  </g>
  <g>
    <line class="st10" x1="69.06" y1="99.35" x2="56.24" y2="99.35"/>
    <polygon class="st5" points="58.32 96.43 46.94 99.48 58.32 102.53 58.32 96.43"/>
  </g>
  <g>
    <line class="st10" x1="70" y1="26.76" x2="82.82" y2="26.76"/>
    <polygon class="st5" points="80.74 29.69 92.13 26.64 80.74 23.59 80.74 29.69"/>
  </g>
  <text class="st15" transform="translate(92.01 59.16)"><tspan class="st8" x="0" y="0">q</tspan><tspan class="st0" x="5.73" y="2.56">t </tspan><tspan class="st4" x="11.54" y="0">= 0</tspan></text>
  <text class="st15" transform="translate(9.86 103.67)"><tspan class="st8" x="0" y="0">q</tspan><tspan class="st0" x="5.73" y="2.56">t </tspan><tspan class="st4" x="11.54" y="0">= </tspan><tspan class="st8" x="20.49" y="0">p</tspan><tspan class="st4" x="26.53" y="0">/2</tspan></text>
  <text class="st15" transform="translate(19.08 73.82)"><tspan class="st8" x="0" y="0">q</tspan><tspan class="st0" x="5.73" y="2.56">t </tspan><tspan class="st4" x="11.54" y="0">= </tspan><tspan class="st8" x="20.49" y="0">p</tspan></text>
  <text class="st15" transform="translate(93.12 29.5)"><tspan class="st8" x="0" y="0">q</tspan><tspan class="st0" x="5.73" y="2.56">t </tspan><tspan class="st4" x="11.54" y="0">= -</tspan><tspan class="st8" x="24.15" y="0">p</tspan><tspan class="st3" x="30.19" y="0">/2</tspan></text>
  <text class="st2" transform="translate(1.61 76.37)"><tspan class="st17" x="0" y="0">x</tspan><tspan class="st13" x="7.46" y="4">0</tspan></text>
  <text class="st2" transform="translate(75.33 9.95)"><tspan class="st18" x="0" y="0">y</tspan><tspan class="st12" x="7.44" y="4">0</tspan></text>
  <g>
    <line class="st9" x1="70.13" y1="91.14" x2="99.6" y2="91.14"/>
    <polygon class="st14" points="98.21 93.09 105.8 91.05 98.21 89.02 98.21 93.09"/>
  </g>
  <line class="st9" x1="106.62" y1="85.5" x2="106.62" y2="94.87"/>
  <rect class="st16" x="78.65" y="85.88" width="13.33" height="11.33"/>
  <text class="st6" transform="translate(82.64 92.88)"><tspan x="0" y="0">r</tspan></text>
</svg>