<?xml version="1.0" encoding="UTF-8"?>
<svg id="Layer_1" xmlns="http://www.w3.org/2000/svg" version="1.1" viewBox="0 0 732.25 335.61">
  <defs>
    <style>
      .st0, .st1 {
        font-family: Helvetica, Helvetica;
      }

      .st0, .st2 {
        font-size: 24px;
      }

      .st1 {
        font-size: 19px;
      }

      .st2 {
        font-family: MyriadPro-Regular, 'Myriad Pro';
      }

      .st3 {
        fill: #00f1c1;
      }

      .st4 {
        fill: #ffa664;
      }

      .st4, .st5, .st6 {
        stroke-width: 2px;
      }

      .st4, .st5, .st6, .st7, .st8 {
        stroke: #000;
        stroke-miterlimit: 10;
      }

      .st5 {
        fill: #a5a2ff;
      }

      .st9 {
        fill: #61ff76;
      }

      .st6 {
        fill: #ff4623;
      }

      .st7 {
        stroke-width: 2.5px;
      }

      .st7, .st8 {
        fill: none;
      }

      .st8 {
        stroke-width: 3px;
      }
    </style>
  </defs>
  <rect class="st4" x="45.6" y="79.72" width="268.56" height="53.36"/>
  <g>
    <rect class="st9" x="36.17" y="283.6" width="343.16" height="51.01"/>
    <path d="M378.32,284.6v49.01H37.17v-49.01h341.16M380.32,282.6H35.17v53.01h345.16v-53.01h0Z"/>
  </g>
  <rect class="st6" x="45.6" y="2.81" width="268.56" height="53.36"/>
  <text class="st0" transform="translate(79.6 35.78)"><tspan x="0" y="0">Simulation Program</tspan></text>
  <text class="st0" transform="translate(109.44 112.76)"><tspan x="0" y="0">Interface Layer</tspan></text>
  <text class="st2" transform="translate(367.72 112.55)"><tspan x="0" y="0">(Coded by program maintainer)</tspan></text>
  <text/>
  <text class="st2" transform="translate(406.67 183.2)"><tspan x="0" y="0">(Supplied with Lattice Standard) </tspan></text>
  <g>
    <rect class="st3" x="36.17" y="218.81" width="315.37" height="51.01"/>
    <path d="M350.53,219.81v49.01H37.17v-49.01h313.37M352.53,217.81H35.17v53.01h317.37v-53.01h0Z"/>
  </g>
  <text class="st0" transform="translate(118.27 254.68)"><tspan x="0" y="0">Reader / Writer</tspan></text>
  <text class="st2" transform="translate(366.88 254.85)"><tspan x="0" y="0" xml:space="preserve">(Such packages are widely available)  </tspan></text>
  <rect class="st5" x="126.97" y="144.98" width="268.56" height="53.36"/>
  <text class="st0" transform="translate(201.57 178.45)"><tspan x="0" y="0">Translator</tspan></text>
  <g>
    <line class="st7" x1="69.79" y1="140.79" x2="109.97" y2="160.72"/>
    <polygon points="70.64 146.89 55.9 133.9 75.15 137.78 70.64 146.89"/>
    <polygon points="104.61 163.73 123.87 167.6 109.13 154.62 104.61 163.73"/>
  </g>
  <g>
    <path class="st7" d="M30.49,102.86c-11.15-5.56-18.81-17.07-18.81-30.38s7.66-24.82,18.81-30.37"/>
    <polygon points="28.53 96.69 45.6 106.4 25.96 106.53 28.53 96.69"/>
    <polygon points="28.53 48.28 45.6 38.57 25.96 38.44 28.53 48.28"/>
  </g>
  <g>
    <path class="st7" d="M20.06,305.57c-11.15-5.56-18.81-17.07-18.81-30.38s7.66-24.82,18.81-30.37"/>
    <polygon points="18.09 299.4 35.17 309.11 15.53 309.24 18.09 299.4"/>
    <polygon points="18.09 250.98 35.17 241.28 15.53 241.15 18.09 250.98"/>
  </g>
  <path class="st8" d="M80.61,133.08"/>
  <g>
    <line class="st7" x1="69.82" y1="208.37" x2="109.94" y2="188.3"/>
    <polygon points="75.2 211.36 55.96 215.3 70.65 202.27 75.2 211.36"/>
    <polygon points="109.11 194.4 123.81 181.37 104.57 185.31 109.11 194.4"/>
  </g>
  <text class="st1" transform="translate(51.71 316.15)"><tspan x="0" y="0">PALS PALS file (YAML, JSON, etc.)</tspan></text>
</svg>